<?xml version="1.0" encoding="UTF-8" standalone="no"?>
<!DOCTYPE svg PUBLIC "-//W3C//DTD SVG 1.1//EN"
 "http://www.w3.org/Graphics/SVG/1.1/DTD/svg11.dtd">
<!-- Generated by graphviz version 2.42.4 (0)
 -->
<!-- Title: G Pages: 1 -->
<svg width="4137pt" height="449pt"
 viewBox="0.00 0.00 4136.55 449.00" xmlns="http://www.w3.org/2000/svg" xmlns:xlink="http://www.w3.org/1999/xlink">
<g id="graph0" class="graph" transform="scale(1 1) rotate(0) translate(4 445)">
<title>G</title>
<polygon fill="white" stroke="transparent" points="-4,4 -4,-445 4132.55,-445 4132.55,4 -4,4"/>
<text text-anchor="middle" x="2064.27" y="-425.8" font-family="Helvetica,sans-Serif" font-size="14.00">Arquitectura general del sistema POS (MVC adaptado + DAO dual)</text>
<g id="clust1" class="cluster">
<title>cluster_actor</title>
<path fill="white" stroke="#fdba74" d="M20,-257C20,-257 225.55,-257 225.55,-257 231.55,-257 237.55,-263 237.55,-269 237.55,-269 237.55,-326 237.55,-326 237.55,-332 231.55,-338 225.55,-338 225.55,-338 20,-338 20,-338 14,-338 8,-332 8,-326 8,-326 8,-269 8,-269 8,-263 14,-257 20,-257"/>
<text text-anchor="middle" x="122.77" y="-322.8" font-family="Helvetica,sans-Serif" font-size="14.00">Actor</text>
</g>
<g id="clust2" class="cluster">
<title>cluster_view</title>
<path fill="white" stroke="#60a5fa" d="M363.55,-246C363.55,-246 1549.55,-246 1549.55,-246 1555.55,-246 1561.55,-252 1561.55,-258 1561.55,-258 1561.55,-323 1561.55,-323 1561.55,-329 1555.55,-335 1549.55,-335 1549.55,-335 363.55,-335 363.55,-335 357.55,-335 351.55,-329 351.55,-323 351.55,-323 351.55,-258 351.55,-258 351.55,-252 357.55,-246 363.55,-246"/>
<text text-anchor="middle" x="956.55" y="-319.8" font-family="Helvetica,sans-Serif" font-size="14.00">Vista (Renderer React)</text>
</g>
<g id="clust3" class="cluster">
<title>cluster_controller</title>
<path fill="white" stroke="#a78bfa" d="M1389.55,-149C1389.55,-149 2698.05,-149 2698.05,-149 2704.05,-149 2710.05,-155 2710.05,-161 2710.05,-161 2710.05,-226 2710.05,-226 2710.05,-232 2704.05,-238 2698.05,-238 2698.05,-238 1389.55,-238 1389.55,-238 1383.55,-238 1377.55,-232 1377.55,-226 1377.55,-226 1377.55,-161 1377.55,-161 1377.55,-155 1383.55,-149 1389.55,-149"/>
<text text-anchor="middle" x="2043.8" y="-222.8" font-family="Helvetica,sans-Serif" font-size="14.00">Controller / Coordinación</text>
</g>
<g id="clust4" class="cluster">
<title>cluster_model</title>
<path fill="white" stroke="#34d399" d="M2509.55,-246C2509.55,-246 3369.55,-246 3369.55,-246 3375.55,-246 3381.55,-252 3381.55,-258 3381.55,-258 3381.55,-323 3381.55,-323 3381.55,-329 3375.55,-335 3369.55,-335 3369.55,-335 2509.55,-335 2509.55,-335 2503.55,-335 2497.55,-329 2497.55,-323 2497.55,-323 2497.55,-258 2497.55,-258 2497.55,-252 2503.55,-246 2509.55,-246"/>
<text text-anchor="middle" x="2939.55" y="-319.8" font-family="Helvetica,sans-Serif" font-size="14.00">Model / Lógica de negocio</text>
</g>
<g id="clust5" class="cluster">
<title>cluster_dao</title>
<path fill="white" stroke="#f59e0b" d="M3588.55,-101C3588.55,-101 3765.55,-101 3765.55,-101 3771.55,-101 3777.55,-107 3777.55,-113 3777.55,-113 3777.55,-316 3777.55,-316 3777.55,-322 3771.55,-328 3765.55,-328 3765.55,-328 3588.55,-328 3588.55,-328 3582.55,-328 3576.55,-322 3576.55,-316 3576.55,-316 3576.55,-113 3576.55,-113 3576.55,-107 3582.55,-101 3588.55,-101"/>
<text text-anchor="middle" x="3677.05" y="-312.8" font-family="Helvetica,sans-Serif" font-size="14.00">DAO / Acceso a datos</text>
</g>
<g id="clust6" class="cluster">
<title>cluster_data</title>
<path fill="white" stroke="#94a3b8" d="M3946.55,-177C3946.55,-177 4108.55,-177 4108.55,-177 4114.55,-177 4120.55,-183 4120.55,-189 4120.55,-189 4120.55,-398 4120.55,-398 4120.55,-404 4114.55,-410 4108.55,-410 4108.55,-410 3946.55,-410 3946.55,-410 3940.55,-410 3934.55,-404 3934.55,-398 3934.55,-398 3934.55,-189 3934.55,-189 3934.55,-183 3940.55,-177 3946.55,-177"/>
<text text-anchor="middle" x="4027.55" y="-394.8" font-family="Helvetica,sans-Serif" font-size="14.00">Datos y salidas</text>
</g>
<g id="clust7" class="cluster">
<title>cluster_external</title>
<path fill="white" stroke="#ec4899" d="M3215.55,-8C3215.55,-8 3384.55,-8 3384.55,-8 3390.55,-8 3396.55,-14 3396.55,-20 3396.55,-20 3396.55,-223 3396.55,-223 3396.55,-229 3390.55,-235 3384.55,-235 3384.55,-235 3215.55,-235 3215.55,-235 3209.55,-235 3203.55,-229 3203.55,-223 3203.55,-223 3203.55,-20 3203.55,-20 3203.55,-14 3209.55,-8 3215.55,-8"/>
<text text-anchor="middle" x="3300.05" y="-219.8" font-family="Helvetica,sans-Serif" font-size="14.00">Servicios externos / SO</text>
</g>
<!-- user -->
<g id="node1" class="node">
<title>user</title>
<ellipse fill="#fff7ed" stroke="#cbd5e1" stroke-width="1.1" cx="122.77" cy="-286" rx="106.55" ry="21.43"/>
<text text-anchor="middle" x="122.77" y="-289" font-family="Helvetica,sans-Serif" font-size="10.00">Usuario</text>
<text text-anchor="middle" x="122.77" y="-278" font-family="Helvetica,sans-Serif" font-size="10.00">(Admin / Supervisor / Seller)</text>
</g>
<!-- app -->
<g id="node2" class="node">
<title>app</title>
<path fill="#eff6ff" stroke="#cbd5e1" stroke-width="1.1" d="M464.55,-304C464.55,-304 371.55,-304 371.55,-304 365.55,-304 359.55,-298 359.55,-292 359.55,-292 359.55,-280 359.55,-280 359.55,-274 365.55,-268 371.55,-268 371.55,-268 464.55,-268 464.55,-268 470.55,-268 476.55,-274 476.55,-280 476.55,-280 476.55,-292 476.55,-292 476.55,-298 470.55,-304 464.55,-304"/>
<text text-anchor="middle" x="418.05" y="-289" font-family="Helvetica,sans-Serif" font-size="10.00">App.tsx</text>
<text text-anchor="middle" x="418.05" y="-278" font-family="Helvetica,sans-Serif" font-size="10.00">Inicio / sesión / setup</text>
</g>
<!-- user&#45;&gt;app -->
<g id="edge1" class="edge">
<title>user&#45;&gt;app</title>
<path fill="none" stroke="#64748b" stroke-width="1.1" d="M229.79,-286C229.79,-286 351.42,-286 351.42,-286"/>
<polygon fill="#64748b" stroke="#64748b" stroke-width="1.1" points="351.42,-288.8 359.42,-286 351.42,-283.2 351.42,-288.8"/>
<text text-anchor="middle" x="294.55" y="-288.8" font-family="Helvetica,sans-Serif" font-size="9.00" fill="#64748b">usa el sistema</text>
</g>
<!-- routes -->
<g id="node3" class="node">
<title>routes</title>
<path fill="#eff6ff" stroke="#cbd5e1" stroke-width="1.1" d="M771.55,-304C771.55,-304 631.55,-304 631.55,-304 625.55,-304 619.55,-298 619.55,-292 619.55,-292 619.55,-280 619.55,-280 619.55,-274 625.55,-268 631.55,-268 631.55,-268 771.55,-268 771.55,-268 777.55,-268 783.55,-274 783.55,-280 783.55,-280 783.55,-292 783.55,-292 783.55,-298 777.55,-304 771.55,-304"/>
<text text-anchor="middle" x="701.55" y="-289" font-family="Helvetica,sans-Serif" font-size="10.00">routes.tsx + RequireLicense</text>
<text text-anchor="middle" x="701.55" y="-278" font-family="Helvetica,sans-Serif" font-size="10.00">Rutas protegidas por permisos</text>
</g>
<!-- app&#45;&gt;routes -->
<g id="edge2" class="edge">
<title>app&#45;&gt;routes</title>
<path fill="none" stroke="#64748b" stroke-width="1.1" d="M476.79,-286C476.79,-286 611.5,-286 611.5,-286"/>
<polygon fill="#64748b" stroke="#64748b" stroke-width="1.1" points="611.5,-288.8 619.5,-286 611.5,-283.2 611.5,-288.8"/>
<text text-anchor="middle" x="548.05" y="-296.8" font-family="Helvetica,sans-Serif" font-size="9.00" fill="#64748b">carga flujo inicial</text>
</g>
<!-- pages -->
<g id="node4" class="node">
<title>pages</title>
<path fill="#eff6ff" stroke="#cbd5e1" stroke-width="1.1" d="M1200.55,-299.5C1200.55,-299.5 981.55,-299.5 981.55,-299.5 975.55,-299.5 969.55,-293.5 969.55,-287.5 969.55,-287.5 969.55,-270.5 969.55,-270.5 969.55,-264.5 975.55,-258.5 981.55,-258.5 981.55,-258.5 1200.55,-258.5 1200.55,-258.5 1206.55,-258.5 1212.55,-264.5 1212.55,-270.5 1212.55,-270.5 1212.55,-287.5 1212.55,-287.5 1212.55,-293.5 1206.55,-299.5 1200.55,-299.5"/>
<text text-anchor="middle" x="1091.05" y="-287.5" font-family="Helvetica,sans-Serif" font-size="10.00">Pages:</text>
<text text-anchor="middle" x="1091.05" y="-276.5" font-family="Helvetica,sans-Serif" font-size="10.00">Login, POS, Inventory, Cash,</text>
<text text-anchor="middle" x="1091.05" y="-265.5" font-family="Helvetica,sans-Serif" font-size="10.00">Expenses, Reports, DailyClose, Users, Activate</text>
</g>
<!-- routes&#45;&gt;pages -->
<g id="edge3" class="edge">
<title>routes&#45;&gt;pages</title>
<path fill="none" stroke="#64748b" stroke-width="1.1" d="M783.67,-283.75C783.67,-283.75 961.45,-283.75 961.45,-283.75"/>
<polygon fill="#64748b" stroke="#64748b" stroke-width="1.1" points="961.45,-286.55 969.45,-283.75 961.45,-280.95 961.45,-286.55"/>
<text text-anchor="middle" x="876.55" y="-296.8" font-family="Helvetica,sans-Serif" font-size="9.00" fill="#64748b">muestra pantalla / módulo</text>
</g>
<!-- ui -->
<g id="node5" class="node">
<title>ui</title>
<path fill="#eff6ff" stroke="#cbd5e1" stroke-width="1.1" d="M1541.55,-304C1541.55,-304 1400.55,-304 1400.55,-304 1394.55,-304 1388.55,-298 1388.55,-292 1388.55,-292 1388.55,-280 1388.55,-280 1388.55,-274 1394.55,-268 1400.55,-268 1400.55,-268 1541.55,-268 1541.55,-268 1547.55,-268 1553.55,-274 1553.55,-280 1553.55,-280 1553.55,-292 1553.55,-292 1553.55,-298 1547.55,-304 1541.55,-304"/>
<text text-anchor="middle" x="1471.05" y="-289" font-family="Helvetica,sans-Serif" font-size="10.00">UI components</text>
<text text-anchor="middle" x="1471.05" y="-278" font-family="Helvetica,sans-Serif" font-size="10.00">Layout, Modal, Sidebar, Topbar</text>
</g>
<!-- pages&#45;&gt;ui -->
<g id="edge4" class="edge">
<title>pages&#45;&gt;ui</title>
<path fill="none" stroke="#64748b" stroke-width="1.1" d="M1212.59,-283.75C1212.59,-283.75 1380.51,-283.75 1380.51,-283.75"/>
<polygon fill="#64748b" stroke="#64748b" stroke-width="1.1" points="1380.51,-286.55 1388.51,-283.75 1380.51,-280.95 1380.51,-286.55"/>
<text text-anchor="middle" x="1299.05" y="-296.8" font-family="Helvetica,sans-Serif" font-size="9.00" fill="#64748b">renderiza componentes</text>
</g>
<!-- services -->
<g id="node6" class="node">
<title>services</title>
<path fill="#f5f3ff" stroke="#cbd5e1" stroke-width="1.1" d="M1544.55,-206.5C1544.55,-206.5 1397.55,-206.5 1397.55,-206.5 1391.55,-206.5 1385.55,-200.5 1385.55,-194.5 1385.55,-194.5 1385.55,-177.5 1385.55,-177.5 1385.55,-171.5 1391.55,-165.5 1397.55,-165.5 1397.55,-165.5 1544.55,-165.5 1544.55,-165.5 1550.55,-165.5 1556.55,-171.5 1556.55,-177.5 1556.55,-177.5 1556.55,-194.5 1556.55,-194.5 1556.55,-200.5 1550.55,-206.5 1544.55,-206.5"/>
<text text-anchor="middle" x="1471.05" y="-194.5" font-family="Helvetica,sans-Serif" font-size="10.00">services/*.ts</text>
<text text-anchor="middle" x="1471.05" y="-183.5" font-family="Helvetica,sans-Serif" font-size="10.00">auth, products, sales, expenses,</text>
<text text-anchor="middle" x="1471.05" y="-172.5" font-family="Helvetica,sans-Serif" font-size="10.00">reports, users, config, session</text>
</g>
<!-- pages&#45;&gt;services -->
<g id="edge5" class="edge">
<title>pages&#45;&gt;services</title>
<path fill="none" stroke="#4f46e5" stroke-width="1.1" d="M1131.55,-258.36C1131.55,-230.96 1131.55,-186 1131.55,-186 1131.55,-186 1377.38,-186 1377.38,-186"/>
<polygon fill="#4f46e5" stroke="#4f46e5" stroke-width="1.1" points="1377.38,-188.8 1385.38,-186 1377.38,-183.2 1377.38,-188.8"/>
<text text-anchor="middle" x="1299.05" y="-214.8" font-family="Helvetica,sans-Serif" font-size="9.00" fill="#4f46e5">envía acción</text>
</g>
<!-- drawer -->
<g id="node21" class="node">
<title>drawer</title>
<path fill="#fce7f3" stroke="#cbd5e1" stroke-width="1.1" d="M3357.05,-52C3357.05,-52 3243.05,-52 3243.05,-52 3237.05,-52 3231.05,-46 3231.05,-40 3231.05,-40 3231.05,-28 3231.05,-28 3231.05,-22 3237.05,-16 3243.05,-16 3243.05,-16 3357.05,-16 3357.05,-16 3363.05,-16 3369.05,-22 3369.05,-28 3369.05,-28 3369.05,-40 3369.05,-40 3369.05,-46 3363.05,-52 3357.05,-52"/>
<text text-anchor="middle" x="3300.05" y="-37" font-family="Helvetica,sans-Serif" font-size="10.00">Cajón monetario</text>
<text text-anchor="middle" x="3300.05" y="-26" font-family="Helvetica,sans-Serif" font-size="10.00">serial o printer command</text>
</g>
<!-- pages&#45;&gt;drawer -->
<g id="edge19" class="edge">
<title>pages&#45;&gt;drawer</title>
<path fill="none" stroke="#be185d" stroke-width="1.1" d="M1050.55,-258.11C1050.55,-198.86 1050.55,-34 1050.55,-34 1050.55,-34 3222.88,-34 3222.88,-34"/>
<polygon fill="#be185d" stroke="#be185d" stroke-width="1.1" points="3222.88,-36.8 3230.88,-34 3222.88,-31.2 3222.88,-36.8"/>
<text text-anchor="middle" x="2155.05" y="-30.8" font-family="Helvetica,sans-Serif" font-size="9.00" fill="#be185d">apertura cajón</text>
</g>
<!-- preload -->
<g id="node7" class="node">
<title>preload</title>
<path fill="#f5f3ff" stroke="#cbd5e1" stroke-width="1.1" d="M1841.55,-207C1841.55,-207 1717.55,-207 1717.55,-207 1711.55,-207 1705.55,-201 1705.55,-195 1705.55,-195 1705.55,-183 1705.55,-183 1705.55,-177 1711.55,-171 1717.55,-171 1717.55,-171 1841.55,-171 1841.55,-171 1847.55,-171 1853.55,-177 1853.55,-183 1853.55,-183 1853.55,-195 1853.55,-195 1853.55,-201 1847.55,-207 1841.55,-207"/>
<text text-anchor="middle" x="1779.55" y="-192" font-family="Helvetica,sans-Serif" font-size="10.00">preload.ts</text>
<text text-anchor="middle" x="1779.55" y="-181" font-family="Helvetica,sans-Serif" font-size="10.00">window.api (contextBridge)</text>
</g>
<!-- services&#45;&gt;preload -->
<g id="edge6" class="edge">
<title>services&#45;&gt;preload</title>
<path fill="none" stroke="#4f46e5" stroke-width="1.1" d="M1556.57,-188.75C1556.57,-188.75 1697.39,-188.75 1697.39,-188.75"/>
<polygon fill="#4f46e5" stroke="#4f46e5" stroke-width="1.1" points="1697.39,-191.55 1705.39,-188.75 1697.39,-185.95 1697.39,-191.55"/>
<text text-anchor="middle" x="1631.05" y="-199.8" font-family="Helvetica,sans-Serif" font-size="9.00" fill="#4f46e5">invoca window.api</text>
</g>
<!-- ipc -->
<g id="node8" class="node">
<title>ipc</title>
<path fill="#f5f3ff" stroke="#cbd5e1" stroke-width="1.1" d="M2243.05,-206.5C2243.05,-206.5 2067.05,-206.5 2067.05,-206.5 2061.05,-206.5 2055.05,-200.5 2055.05,-194.5 2055.05,-194.5 2055.05,-177.5 2055.05,-177.5 2055.05,-171.5 2061.05,-165.5 2067.05,-165.5 2067.05,-165.5 2243.05,-165.5 2243.05,-165.5 2249.05,-165.5 2255.05,-171.5 2255.05,-177.5 2255.05,-177.5 2255.05,-194.5 2255.05,-194.5 2255.05,-200.5 2249.05,-206.5 2243.05,-206.5"/>
<text text-anchor="middle" x="2155.05" y="-194.5" font-family="Helvetica,sans-Serif" font-size="10.00">ipc/*.ipc.ts</text>
<text text-anchor="middle" x="2155.05" y="-183.5" font-family="Helvetica,sans-Serif" font-size="10.00">auth, products, sales, cash,</text>
<text text-anchor="middle" x="2155.05" y="-172.5" font-family="Helvetica,sans-Serif" font-size="10.00">expenses, reports, users, audit, config</text>
</g>
<!-- preload&#45;&gt;ipc -->
<g id="edge7" class="edge">
<title>preload&#45;&gt;ipc</title>
<path fill="none" stroke="#4f46e5" stroke-width="1.1" d="M1853.73,-188.75C1853.73,-188.75 2046.71,-188.75 2046.71,-188.75"/>
<polygon fill="#4f46e5" stroke="#4f46e5" stroke-width="1.1" points="2046.71,-191.55 2054.71,-188.75 2046.71,-185.95 2046.71,-191.55"/>
<text text-anchor="middle" x="1910.05" y="-199.8" font-family="Helvetica,sans-Serif" font-size="9.00" fill="#4f46e5">IPC invoke</text>
</g>
<!-- rbac -->
<g id="node9" class="node">
<title>rbac</title>
<path fill="#f5f3ff" stroke="#cbd5e1" stroke-width="1.1" d="M2690.05,-207C2690.05,-207 2528.05,-207 2528.05,-207 2522.05,-207 2516.05,-201 2516.05,-195 2516.05,-195 2516.05,-183 2516.05,-183 2516.05,-177 2522.05,-171 2528.05,-171 2528.05,-171 2690.05,-171 2690.05,-171 2696.05,-171 2702.05,-177 2702.05,-183 2702.05,-183 2702.05,-195 2702.05,-195 2702.05,-201 2696.05,-207 2690.05,-207"/>
<text text-anchor="middle" x="2609.05" y="-192" font-family="Helvetica,sans-Serif" font-size="10.00">RBAC</text>
<text text-anchor="middle" x="2609.05" y="-181" font-family="Helvetica,sans-Serif" font-size="10.00">shared/permissions.ts + ipc/rbac.ts</text>
</g>
<!-- ipc&#45;&gt;rbac -->
<g id="edge8" class="edge">
<title>ipc&#45;&gt;rbac</title>
<path fill="none" stroke="#7c3aed" stroke-width="1.1" d="M2255.24,-182.83C2255.24,-182.83 2507.69,-182.83 2507.69,-182.83"/>
<polygon fill="#7c3aed" stroke="#7c3aed" stroke-width="1.1" points="2507.69,-185.63 2515.69,-182.83 2507.69,-180.03 2507.69,-185.63"/>
<text text-anchor="middle" x="2424.55" y="-199.8" font-family="Helvetica,sans-Serif" font-size="9.00" fill="#7c3aed">valida permisos</text>
</g>
<!-- repo -->
<g id="node10" class="node">
<title>repo</title>
<path fill="#ecfdf5" stroke="#cbd5e1" stroke-width="1.1" d="M2700.55,-303.5C2700.55,-303.5 2517.55,-303.5 2517.55,-303.5 2511.55,-303.5 2505.55,-297.5 2505.55,-291.5 2505.55,-291.5 2505.55,-274.5 2505.55,-274.5 2505.55,-268.5 2511.55,-262.5 2517.55,-262.5 2517.55,-262.5 2700.55,-262.5 2700.55,-262.5 2706.55,-262.5 2712.55,-268.5 2712.55,-274.5 2712.55,-274.5 2712.55,-291.5 2712.55,-291.5 2712.55,-297.5 2706.55,-303.5 2700.55,-303.5"/>
<text text-anchor="middle" x="2609.05" y="-291.5" font-family="Helvetica,sans-Serif" font-size="10.00">Repositorios</text>
<text text-anchor="middle" x="2609.05" y="-280.5" font-family="Helvetica,sans-Serif" font-size="10.00">products.repo, sales.repo, cash.repo,</text>
<text text-anchor="middle" x="2609.05" y="-269.5" font-family="Helvetica,sans-Serif" font-size="10.00">expenses.repo, reports.repo, audit.repo</text>
</g>
<!-- ipc&#45;&gt;repo -->
<g id="edge9" class="edge">
<title>ipc&#45;&gt;repo</title>
<path fill="none" stroke="#059669" stroke-width="1.1" d="M2255.3,-194.67C2360.74,-194.67 2511.55,-194.67 2511.55,-194.67 2511.55,-194.67 2511.55,-254.07 2511.55,-254.07"/>
<polygon fill="#059669" stroke="#059669" stroke-width="1.1" points="2508.75,-254.07 2511.55,-262.07 2514.35,-254.07 2508.75,-254.07"/>
<text text-anchor="middle" x="2424.55" y="-254.8" font-family="Helvetica,sans-Serif" font-size="9.00" fill="#059669">coordina caso de uso</text>
</g>
<!-- printer -->
<g id="node20" class="node">
<title>printer</title>
<path fill="#fce7f3" stroke="#cbd5e1" stroke-width="1.1" d="M3376.55,-128C3376.55,-128 3223.55,-128 3223.55,-128 3217.55,-128 3211.55,-122 3211.55,-116 3211.55,-116 3211.55,-104 3211.55,-104 3211.55,-98 3217.55,-92 3223.55,-92 3223.55,-92 3376.55,-92 3376.55,-92 3382.55,-92 3388.55,-98 3388.55,-104 3388.55,-104 3388.55,-116 3388.55,-116 3388.55,-122 3382.55,-128 3376.55,-128"/>
<text text-anchor="middle" x="3300.05" y="-107.5" font-family="Helvetica,sans-Serif" font-size="10.00">Impresora / BrowserWindow.print</text>
</g>
<!-- ipc&#45;&gt;printer -->
<g id="edge18" class="edge">
<title>ipc&#45;&gt;printer</title>
<path fill="none" stroke="#be185d" stroke-width="1.1" d="M2155.55,-165.23C2155.55,-142.73 2155.55,-110 2155.55,-110 2155.55,-110 3203.19,-110 3203.19,-110"/>
<polygon fill="#be185d" stroke="#be185d" stroke-width="1.1" points="3203.19,-112.8 3211.19,-110 3203.19,-107.2 3203.19,-112.8"/>
<text text-anchor="middle" x="2796.05" y="-112.8" font-family="Helvetica,sans-Serif" font-size="9.00" fill="#be185d">impresión factura</text>
</g>
<!-- domain -->
<g id="node11" class="node">
<title>domain</title>
<path fill="#ecfdf5" stroke="#cbd5e1" stroke-width="1.1" d="M3032.55,-303.5C3032.55,-303.5 2891.55,-303.5 2891.55,-303.5 2885.55,-303.5 2879.55,-297.5 2879.55,-291.5 2879.55,-291.5 2879.55,-274.5 2879.55,-274.5 2879.55,-268.5 2885.55,-262.5 2891.55,-262.5 2891.55,-262.5 3032.55,-262.5 3032.55,-262.5 3038.55,-262.5 3044.55,-268.5 3044.55,-274.5 3044.55,-274.5 3044.55,-291.5 3044.55,-291.5 3044.55,-297.5 3038.55,-303.5 3032.55,-303.5"/>
<text text-anchor="middle" x="2962.05" y="-291.5" font-family="Helvetica,sans-Serif" font-size="10.00">Reglas de negocio</text>
<text text-anchor="middle" x="2962.05" y="-280.5" font-family="Helvetica,sans-Serif" font-size="10.00">createSale, closeCash, report*,</text>
<text text-anchor="middle" x="2962.05" y="-269.5" font-family="Helvetica,sans-Serif" font-size="10.00">license, config, invoice PDF</text>
</g>
<!-- repo&#45;&gt;domain -->
<g id="edge10" class="edge">
<title>repo&#45;&gt;domain</title>
<path fill="none" stroke="#059669" stroke-width="1.1" d="M2712.57,-283C2712.57,-283 2871.53,-283 2871.53,-283"/>
<polygon fill="#059669" stroke="#059669" stroke-width="1.1" points="2871.53,-285.8 2879.53,-283 2871.53,-280.2 2871.53,-285.8"/>
<text text-anchor="middle" x="2796.05" y="-296.8" font-family="Helvetica,sans-Serif" font-size="9.00" fill="#059669">aplica lógica / cálculos</text>
</g>
<!-- dbswitch -->
<g id="node12" class="node">
<title>dbswitch</title>
<path fill="#ecfdf5" stroke="#cbd5e1" stroke-width="1.1" d="M3361.55,-297C3361.55,-297 3238.55,-297 3238.55,-297 3232.55,-297 3226.55,-291 3226.55,-285 3226.55,-285 3226.55,-273 3226.55,-273 3226.55,-267 3232.55,-261 3238.55,-261 3238.55,-261 3361.55,-261 3361.55,-261 3367.55,-261 3373.55,-267 3373.55,-273 3373.55,-273 3373.55,-285 3373.55,-285 3373.55,-291 3367.55,-297 3361.55,-297"/>
<text text-anchor="middle" x="3300.05" y="-282" font-family="Helvetica,sans-Serif" font-size="10.00">db.ts / dbRouter.ts</text>
<text text-anchor="middle" x="3300.05" y="-271" font-family="Helvetica,sans-Serif" font-size="10.00">Selecciona SQLite o MySQL</text>
</g>
<!-- domain&#45;&gt;dbswitch -->
<g id="edge11" class="edge">
<title>domain&#45;&gt;dbswitch</title>
<path fill="none" stroke="#059669" stroke-width="1.1" d="M3044.73,-279.75C3044.73,-279.75 3218.27,-279.75 3218.27,-279.75"/>
<polygon fill="#059669" stroke="#059669" stroke-width="1.1" points="3218.27,-282.55 3226.27,-279.75 3218.27,-276.95 3218.27,-282.55"/>
<text text-anchor="middle" x="3128.05" y="-296.8" font-family="Helvetica,sans-Serif" font-size="9.00" fill="#059669">define backend activo</text>
</g>
<!-- files -->
<g id="node18" class="node">
<title>files</title>
<path fill="#f3f4f6" stroke="#cbd5e1" stroke-width="1.1" d="M4082.55,-378.5C4082.55,-378.5 3972.55,-378.5 3972.55,-378.5 3966.55,-378.5 3960.55,-372.5 3960.55,-366.5 3960.55,-366.5 3960.55,-349.5 3960.55,-349.5 3960.55,-343.5 3966.55,-337.5 3972.55,-337.5 3972.55,-337.5 4082.55,-337.5 4082.55,-337.5 4088.55,-337.5 4094.55,-343.5 4094.55,-349.5 4094.55,-349.5 4094.55,-366.5 4094.55,-366.5 4094.55,-372.5 4088.55,-378.5 4082.55,-378.5"/>
<text text-anchor="middle" x="4027.55" y="-366.5" font-family="Helvetica,sans-Serif" font-size="10.00">Archivos locales</text>
<text text-anchor="middle" x="4027.55" y="-355.5" font-family="Helvetica,sans-Serif" font-size="10.00">config.json, license.json,</text>
<text text-anchor="middle" x="4027.55" y="-344.5" font-family="Helvetica,sans-Serif" font-size="10.00">invoices/, backups/</text>
</g>
<!-- domain&#45;&gt;files -->
<g id="edge16" class="edge">
<title>domain&#45;&gt;files</title>
<path fill="none" stroke="#334155" stroke-width="1.1" d="M2962.55,-303.89C2962.55,-326.08 2962.55,-358 2962.55,-358 2962.55,-358 3952.52,-358 3952.52,-358"/>
<polygon fill="#334155" stroke="#334155" stroke-width="1.1" points="3952.52,-360.8 3960.52,-358 3952.52,-355.2 3952.52,-360.8"/>
<text text-anchor="middle" x="3486.55" y="-360.8" font-family="Helvetica,sans-Serif" font-size="9.00" fill="#334155">configuración, PDF, backups</text>
</g>
<!-- supabase -->
<g id="node19" class="node">
<title>supabase</title>
<path fill="#fce7f3" stroke="#cbd5e1" stroke-width="1.1" d="M3341.05,-204C3341.05,-204 3259.05,-204 3259.05,-204 3253.05,-204 3247.05,-198 3247.05,-192 3247.05,-192 3247.05,-180 3247.05,-180 3247.05,-174 3253.05,-168 3259.05,-168 3259.05,-168 3341.05,-168 3341.05,-168 3347.05,-168 3353.05,-174 3353.05,-180 3353.05,-180 3353.05,-192 3353.05,-192 3353.05,-198 3347.05,-204 3341.05,-204"/>
<text text-anchor="middle" x="3300.05" y="-189" font-family="Helvetica,sans-Serif" font-size="10.00">Supabase Function</text>
<text text-anchor="middle" x="3300.05" y="-178" font-family="Helvetica,sans-Serif" font-size="10.00">validate&#45;license</text>
</g>
<!-- domain&#45;&gt;supabase -->
<g id="edge17" class="edge">
<title>domain&#45;&gt;supabase</title>
<path fill="none" stroke="#be185d" stroke-width="1.1" d="M2962.55,-262.28C2962.55,-234.19 2962.55,-187.5 2962.55,-187.5 2962.55,-187.5 3238.94,-187.5 3238.94,-187.5"/>
<polygon fill="#be185d" stroke="#be185d" stroke-width="1.1" points="3238.94,-190.3 3246.94,-187.5 3238.94,-184.7 3238.94,-190.3"/>
<text text-anchor="middle" x="3128.05" y="-214.8" font-family="Helvetica,sans-Serif" font-size="9.00" fill="#be185d">validación de licencia</text>
</g>
<!-- sqlite -->
<g id="node13" class="node">
<title>sqlite</title>
<path fill="#fef3c7" stroke="#cbd5e1" stroke-width="1.1" d="M3736.55,-145C3736.55,-145 3617.55,-145 3617.55,-145 3611.55,-145 3605.55,-139 3605.55,-133 3605.55,-133 3605.55,-121 3605.55,-121 3605.55,-115 3611.55,-109 3617.55,-109 3617.55,-109 3736.55,-109 3736.55,-109 3742.55,-109 3748.55,-115 3748.55,-121 3748.55,-121 3748.55,-133 3748.55,-133 3748.55,-139 3742.55,-145 3736.55,-145"/>
<text text-anchor="middle" x="3677.05" y="-130" font-family="Helvetica,sans-Serif" font-size="10.00">DAO SQLite</text>
<text text-anchor="middle" x="3677.05" y="-119" font-family="Helvetica,sans-Serif" font-size="10.00">queries.ts + better&#45;sqlite3</text>
</g>
<!-- dbswitch&#45;&gt;sqlite -->
<g id="edge12" class="edge">
<title>dbswitch&#45;&gt;sqlite</title>
<path fill="none" stroke="#d97706" stroke-width="1.1" d="M3363.55,-260.95C3363.55,-222.61 3363.55,-136.5 3363.55,-136.5 3363.55,-136.5 3597.52,-136.5 3597.52,-136.5"/>
<polygon fill="#d97706" stroke="#d97706" stroke-width="1.1" points="3597.52,-139.3 3605.52,-136.5 3597.52,-133.7 3597.52,-139.3"/>
<text text-anchor="middle" x="3486.55" y="-178.8" font-family="Helvetica,sans-Serif" font-size="9.00" fill="#d97706">si dbMode=sqlite</text>
</g>
<!-- mysql -->
<g id="node14" class="node">
<title>mysql</title>
<path fill="#fef3c7" stroke="#cbd5e1" stroke-width="1.1" d="M3739.05,-297C3739.05,-297 3615.05,-297 3615.05,-297 3609.05,-297 3603.05,-291 3603.05,-285 3603.05,-285 3603.05,-273 3603.05,-273 3603.05,-267 3609.05,-261 3615.05,-261 3615.05,-261 3739.05,-261 3739.05,-261 3745.05,-261 3751.05,-267 3751.05,-273 3751.05,-273 3751.05,-285 3751.05,-285 3751.05,-291 3745.05,-297 3739.05,-297"/>
<text text-anchor="middle" x="3677.05" y="-282" font-family="Helvetica,sans-Serif" font-size="10.00">DAO MySQL</text>
<text text-anchor="middle" x="3677.05" y="-271" font-family="Helvetica,sans-Serif" font-size="10.00">mysql/*.mysql.ts + mysql2</text>
</g>
<!-- dbswitch&#45;&gt;mysql -->
<g id="edge13" class="edge">
<title>dbswitch&#45;&gt;mysql</title>
<path fill="none" stroke="#d97706" stroke-width="1.1" d="M3373.63,-279C3373.63,-279 3595,-279 3595,-279"/>
<polygon fill="#d97706" stroke="#d97706" stroke-width="1.1" points="3595,-281.8 3603,-279 3595,-276.2 3595,-281.8"/>
<text text-anchor="middle" x="3486.55" y="-281.8" font-family="Helvetica,sans-Serif" font-size="9.00" fill="#d97706">si dbMode=mysql</text>
</g>
<!-- sqlite_db -->
<g id="node16" class="node">
<title>sqlite_db</title>
<path fill="#f3f4f6" stroke="#cbd5e1" stroke-width="1.1" d="M4100.55,-221C4100.55,-221 3954.55,-221 3954.55,-221 3948.55,-221 3942.55,-215 3942.55,-209 3942.55,-209 3942.55,-197 3942.55,-197 3942.55,-191 3948.55,-185 3954.55,-185 3954.55,-185 4100.55,-185 4100.55,-185 4106.55,-185 4112.55,-191 4112.55,-197 4112.55,-197 4112.55,-209 4112.55,-209 4112.55,-215 4106.55,-221 4100.55,-221"/>
<text text-anchor="middle" x="4027.55" y="-206" font-family="Helvetica,sans-Serif" font-size="10.00">SQLite local</text>
<text text-anchor="middle" x="4027.55" y="-195" font-family="Helvetica,sans-Serif" font-size="10.00">userData/data/sistetecni&#45;pos.db</text>
</g>
<!-- sqlite&#45;&gt;sqlite_db -->
<g id="edge14" class="edge">
<title>sqlite&#45;&gt;sqlite_db</title>
<path fill="none" stroke="#334155" stroke-width="1.1" d="M3748.82,-127C3851.36,-127 4027.55,-127 4027.55,-127 4027.55,-127 4027.55,-176.99 4027.55,-176.99"/>
<polygon fill="#334155" stroke="#334155" stroke-width="1.1" points="4024.75,-176.99 4027.55,-184.99 4030.35,-176.99 4024.75,-176.99"/>
<text text-anchor="middle" x="3856.05" y="-140.8" font-family="Helvetica,sans-Serif" font-size="9.00" fill="#334155">SQL local</text>
</g>
<!-- mysql_db -->
<g id="node17" class="node">
<title>mysql_db</title>
<path fill="#f3f4f6" stroke="#cbd5e1" stroke-width="1.1" d="M4060.55,-297C4060.55,-297 3994.55,-297 3994.55,-297 3988.55,-297 3982.55,-291 3982.55,-285 3982.55,-285 3982.55,-273 3982.55,-273 3982.55,-267 3988.55,-261 3994.55,-261 3994.55,-261 4060.55,-261 4060.55,-261 4066.55,-261 4072.55,-267 4072.55,-273 4072.55,-273 4072.55,-285 4072.55,-285 4072.55,-291 4066.55,-297 4060.55,-297"/>
<text text-anchor="middle" x="4027.55" y="-282" font-family="Helvetica,sans-Serif" font-size="10.00">MySQL server</text>
<text text-anchor="middle" x="4027.55" y="-271" font-family="Helvetica,sans-Serif" font-size="10.00">Modo multicaja</text>
</g>
<!-- mysql&#45;&gt;mysql_db -->
<g id="edge15" class="edge">
<title>mysql&#45;&gt;mysql_db</title>
<path fill="none" stroke="#334155" stroke-width="1.1" d="M3751.38,-279C3751.38,-279 3974.47,-279 3974.47,-279"/>
<polygon fill="#334155" stroke="#334155" stroke-width="1.1" points="3974.47,-281.8 3982.47,-279 3974.47,-276.2 3974.47,-281.8"/>
<text text-anchor="middle" x="3856.05" y="-281.8" font-family="Helvetica,sans-Serif" font-size="9.00" fill="#334155">SQL remoto</text>
</g>
<!-- migrations -->
<g id="node15" class="node">
<title>migrations</title>
<path fill="#fef3c7" stroke="#cbd5e1" stroke-width="1.1" d="M3757.55,-221C3757.55,-221 3596.55,-221 3596.55,-221 3590.55,-221 3584.55,-215 3584.55,-209 3584.55,-209 3584.55,-197 3584.55,-197 3584.55,-191 3590.55,-185 3596.55,-185 3596.55,-185 3757.55,-185 3757.55,-185 3763.55,-185 3769.55,-191 3769.55,-197 3769.55,-197 3769.55,-209 3769.55,-209 3769.55,-215 3763.55,-221 3757.55,-221"/>
<text text-anchor="middle" x="3677.05" y="-206" font-family="Helvetica,sans-Serif" font-size="10.00">migrations.ts</text>
<text text-anchor="middle" x="3677.05" y="-195" font-family="Helvetica,sans-Serif" font-size="10.00">Esquema, seed admin, tablas base</text>
</g>
<!-- migrations&#45;&gt;sqlite_db -->
<g id="edge20" class="edge">
<title>migrations&#45;&gt;sqlite_db</title>
<path fill="none" stroke="#334155" stroke-width="1.1" d="M3769.59,-203C3769.59,-203 3934.3,-203 3934.3,-203"/>
<polygon fill="#334155" stroke="#334155" stroke-width="1.1" points="3934.3,-205.8 3942.3,-203 3934.3,-200.2 3934.3,-205.8"/>
<text text-anchor="middle" x="3856.05" y="-205.8" font-family="Helvetica,sans-Serif" font-size="9.00" fill="#334155">crea/actualiza esquema</text>
</g>
<!-- note1 -->
<g id="node22" class="node">
<title>note1</title>
<polygon fill="#f8fafc" stroke="#cbd5e1" stroke-width="1.1" points="2337.55,-327.5 1966.55,-327.5 1966.55,-286.5 2343.55,-286.5 2343.55,-321.5 2337.55,-327.5"/>
<polyline fill="none" stroke="#cbd5e1" stroke-width="1.1" points="2337.55,-327.5 2337.55,-321.5 "/>
<polyline fill="none" stroke="#cbd5e1" stroke-width="1.1" points="2343.55,-321.5 2337.55,-321.5 "/>
<text text-anchor="middle" x="2155.05" y="-315.5" font-family="Helvetica,sans-Serif" font-size="10.00">Interpretación académica sugerida:</text>
<text text-anchor="middle" x="2155.05" y="-304.5" font-family="Helvetica,sans-Serif" font-size="10.00">Vista = React renderer | Controller = services + preload + IPC |</text>
<text text-anchor="middle" x="2155.05" y="-293.5" font-family="Helvetica,sans-Serif" font-size="10.00">Model = repos + reglas de negocio | DAO = queries.ts + mysql/*.mysql.ts</text>
</g>
<!-- note1&#45;&gt;repo -->
<g id="edge21" class="edge">
<title>note1&#45;&gt;repo</title>
<path fill="none" stroke="#94a3b8" stroke-width="1.1" d="M2343.64,-295C2343.64,-295 2497.3,-295 2497.3,-295"/>
<polygon fill="#94a3b8" stroke="#94a3b8" stroke-width="1.1" points="2497.3,-297.8 2505.3,-295 2497.3,-292.2 2497.3,-297.8"/>
<text text-anchor="middle" x="2424.55" y="-309.8" font-family="Helvetica,sans-Serif" font-size="9.00" fill="#94a3b8">convención usada</text>
</g>
</g>
</svg>
