<?xml version="1.0" encoding="UTF-8" standalone="no"?>
<!DOCTYPE svg PUBLIC "-//W3C//DTD SVG 1.1//EN"
 "http://www.w3.org/Graphics/SVG/1.1/DTD/svg11.dtd">
<!-- Generated by graphviz version 2.42.4 (0)
 -->
<!-- Title: G Pages: 1 -->
<svg width="2993pt" height="470pt"
 viewBox="0.00 0.00 2993.00 470.00" xmlns="http://www.w3.org/2000/svg" xmlns:xlink="http://www.w3.org/1999/xlink">
<g id="graph0" class="graph" transform="scale(1 1) rotate(0) translate(4 466)">
<title>G</title>
<polygon fill="white" stroke="transparent" points="-4,4 -4,-466 2989,-466 2989,4 -4,4"/>
<text text-anchor="middle" x="1492.5" y="-446.8" font-family="Helvetica,sans-Serif" font-size="14.00">Inicio del sistema + validación/activación de licencia</text>
<g id="clust1" class="cluster">
<title>cluster_actor</title>
<path fill="white" stroke="#fdba74" d="M402.39,-292C402.39,-292 455.61,-292 455.61,-292 461.61,-292 467.61,-298 467.61,-304 467.61,-304 467.61,-355 467.61,-355 467.61,-361 461.61,-367 455.61,-367 455.61,-367 402.39,-367 402.39,-367 396.39,-367 390.39,-361 390.39,-355 390.39,-355 390.39,-304 390.39,-304 390.39,-298 396.39,-292 402.39,-292"/>
<text text-anchor="middle" x="429" y="-351.8" font-family="Helvetica,sans-Serif" font-size="14.00">Actor</text>
</g>
<g id="clust2" class="cluster">
<title>cluster_view</title>
<path fill="white" stroke="#60a5fa" d="M1029,-230C1029,-230 1513.5,-230 1513.5,-230 1519.5,-230 1525.5,-236 1525.5,-242 1525.5,-242 1525.5,-369 1525.5,-369 1525.5,-375 1519.5,-381 1513.5,-381 1513.5,-381 1029,-381 1029,-381 1023,-381 1017,-375 1017,-369 1017,-369 1017,-242 1017,-242 1017,-236 1023,-230 1029,-230"/>
<text text-anchor="middle" x="1271.25" y="-365.8" font-family="Helvetica,sans-Serif" font-size="14.00">Vista</text>
</g>
<g id="clust3" class="cluster">
<title>cluster_controller</title>
<path fill="white" stroke="#a78bfa" d="M1706,-161C1706,-161 2238,-161 2238,-161 2244,-161 2250,-167 2250,-173 2250,-173 2250,-348 2250,-348 2250,-354 2244,-360 2238,-360 2238,-360 1706,-360 1706,-360 1700,-360 1694,-354 1694,-348 1694,-348 1694,-173 1694,-173 1694,-167 1700,-161 1706,-161"/>
<text text-anchor="middle" x="1972" y="-344.8" font-family="Helvetica,sans-Serif" font-size="14.00">Controller</text>
</g>
<g id="clust4" class="cluster">
<title>cluster_model</title>
<path fill="white" stroke="#34d399" d="M2410,-134C2410,-134 2582,-134 2582,-134 2588,-134 2594,-140 2594,-146 2594,-146 2594,-203 2594,-203 2594,-209 2588,-215 2582,-215 2582,-215 2410,-215 2410,-215 2404,-215 2398,-209 2398,-203 2398,-203 2398,-146 2398,-146 2398,-140 2404,-134 2410,-134"/>
<text text-anchor="middle" x="2496" y="-199.8" font-family="Helvetica,sans-Serif" font-size="14.00">Model</text>
</g>
<g id="clust5" class="cluster">
<title>cluster_dao</title>
<path fill="white" stroke="#f59e0b" d="M2821,-19C2821,-19 2965,-19 2965,-19 2971,-19 2977,-25 2977,-31 2977,-31 2977,-158 2977,-158 2977,-164 2971,-170 2965,-170 2965,-170 2821,-170 2821,-170 2815,-170 2809,-164 2809,-158 2809,-158 2809,-31 2809,-31 2809,-25 2815,-19 2821,-19"/>
<text text-anchor="middle" x="2893" y="-154.8" font-family="Helvetica,sans-Serif" font-size="14.00">Persistencia / externo</text>
</g>
<g id="clust6" class="cluster">
<title>cluster_data</title>
<path fill="white" stroke="#94a3b8" d="M2822.5,-249C2822.5,-249 2963.5,-249 2963.5,-249 2969.5,-249 2975.5,-255 2975.5,-261 2975.5,-261 2975.5,-312 2975.5,-312 2975.5,-318 2969.5,-324 2963.5,-324 2963.5,-324 2822.5,-324 2822.5,-324 2816.5,-324 2810.5,-318 2810.5,-312 2810.5,-312 2810.5,-261 2810.5,-261 2810.5,-255 2816.5,-249 2822.5,-249"/>
<text text-anchor="middle" x="2893" y="-308.8" font-family="Helvetica,sans-Serif" font-size="14.00">Resultado</text>
</g>
<!-- actor -->
<g id="node1" class="node">
<title>actor</title>
<ellipse fill="#fff7ed" stroke="#cbd5e1" stroke-width="1.1" cx="429" cy="-318" rx="30.72" ry="18"/>
<text text-anchor="middle" x="429" y="-315.5" font-family="Helvetica,sans-Serif" font-size="10.00">Usuario</text>
</g>
<!-- app -->
<g id="node2" class="node">
<title>app</title>
<path fill="#eff6ff" stroke="#cbd5e1" stroke-width="1.1" d="M1189,-350C1189,-350 1037,-350 1037,-350 1031,-350 1025,-344 1025,-338 1025,-338 1025,-326 1025,-326 1025,-320 1031,-314 1037,-314 1037,-314 1189,-314 1189,-314 1195,-314 1201,-320 1201,-326 1201,-326 1201,-338 1201,-338 1201,-344 1195,-350 1189,-350"/>
<text text-anchor="middle" x="1113" y="-335" font-family="Helvetica,sans-Serif" font-size="10.00">App.tsx</text>
<text text-anchor="middle" x="1113" y="-324" font-family="Helvetica,sans-Serif" font-size="10.00">init: autodetect + setup + sesión</text>
</g>
<!-- actor&#45;&gt;app -->
<g id="edge1" class="edge">
<title>actor&#45;&gt;app</title>
<path fill="none" stroke="#64748b" stroke-width="1.1" d="M457.52,-325C457.52,-325 1016.84,-325 1016.84,-325"/>
<polygon fill="#64748b" stroke="#64748b" stroke-width="1.1" points="1016.84,-327.8 1024.84,-325 1016.84,-322.2 1016.84,-327.8"/>
<text text-anchor="middle" x="941.5" y="-327.8" font-family="Helvetica,sans-Serif" font-size="9.00" fill="#64748b">1. abre aplicación</text>
</g>
<!-- activate -->
<g id="node4" class="node">
<title>activate</title>
<path fill="#eff6ff" stroke="#cbd5e1" stroke-width="1.1" d="M1161.5,-274C1161.5,-274 1064.5,-274 1064.5,-274 1058.5,-274 1052.5,-268 1052.5,-262 1052.5,-262 1052.5,-250 1052.5,-250 1052.5,-244 1058.5,-238 1064.5,-238 1064.5,-238 1161.5,-238 1161.5,-238 1167.5,-238 1173.5,-244 1173.5,-250 1173.5,-250 1173.5,-262 1173.5,-262 1173.5,-268 1167.5,-274 1161.5,-274"/>
<text text-anchor="middle" x="1113" y="-259" font-family="Helvetica,sans-Serif" font-size="10.00">Activate.tsx</text>
<text text-anchor="middle" x="1113" y="-248" font-family="Helvetica,sans-Serif" font-size="10.00">formulario de licencia</text>
</g>
<!-- actor&#45;&gt;activate -->
<g id="edge12" class="edge">
<title>actor&#45;&gt;activate</title>
<path fill="none" stroke="#64748b" stroke-width="1.1" d="M429,-299.73C429,-281.44 429,-256 429,-256 429,-256 1044.3,-256 1044.3,-256"/>
<polygon fill="#64748b" stroke="#64748b" stroke-width="1.1" points="1044.3,-258.8 1052.3,-256 1044.3,-253.2 1044.3,-258.8"/>
<text text-anchor="middle" x="941.5" y="-265.8" font-family="Helvetica,sans-Serif" font-size="9.00" fill="#64748b">11. ingresa licenseKey</text>
</g>
<!-- guard -->
<g id="node3" class="node">
<title>guard</title>
<path fill="#eff6ff" stroke="#cbd5e1" stroke-width="1.1" d="M1505.5,-350C1505.5,-350 1410.5,-350 1410.5,-350 1404.5,-350 1398.5,-344 1398.5,-338 1398.5,-338 1398.5,-326 1398.5,-326 1398.5,-320 1404.5,-314 1410.5,-314 1410.5,-314 1505.5,-314 1505.5,-314 1511.5,-314 1517.5,-320 1517.5,-326 1517.5,-326 1517.5,-338 1517.5,-338 1517.5,-344 1511.5,-350 1505.5,-350"/>
<text text-anchor="middle" x="1458" y="-335" font-family="Helvetica,sans-Serif" font-size="10.00">RequireLicense.tsx</text>
<text text-anchor="middle" x="1458" y="-324" font-family="Helvetica,sans-Serif" font-size="10.00">checkOnline + status</text>
</g>
<!-- app&#45;&gt;guard -->
<g id="edge5" class="edge">
<title>app&#45;&gt;guard</title>
<path fill="none" stroke="#64748b" stroke-width="1.1" d="M1201.4,-332C1201.4,-332 1390.33,-332 1390.33,-332"/>
<polygon fill="#64748b" stroke="#64748b" stroke-width="1.1" points="1390.33,-334.8 1398.33,-332 1390.33,-329.2 1390.33,-334.8"/>
<text text-anchor="middle" x="1295" y="-334.8" font-family="Helvetica,sans-Serif" font-size="9.00" fill="#64748b">5. entra a rutas protegidas</text>
</g>
<!-- preload -->
<g id="node5" class="node">
<title>preload</title>
<path fill="#f5f3ff" stroke="#cbd5e1" stroke-width="1.1" d="M1837,-282C1837,-282 1714,-282 1714,-282 1708,-282 1702,-276 1702,-270 1702,-270 1702,-258 1702,-258 1702,-252 1708,-246 1714,-246 1714,-246 1837,-246 1837,-246 1843,-246 1849,-252 1849,-258 1849,-258 1849,-270 1849,-270 1849,-276 1843,-282 1837,-282"/>
<text text-anchor="middle" x="1775.5" y="-267" font-family="Helvetica,sans-Serif" font-size="10.00">preload.ts</text>
<text text-anchor="middle" x="1775.5" y="-256" font-family="Helvetica,sans-Serif" font-size="10.00">api.autodetect / api.license</text>
</g>
<!-- app&#45;&gt;preload -->
<g id="edge2" class="edge">
<title>app&#45;&gt;preload</title>
<path fill="none" stroke="#4f46e5" stroke-width="1.1" d="M1188,-313.88C1188,-297.74 1188,-276.67 1188,-276.67 1188,-276.67 1693.98,-276.67 1693.98,-276.67"/>
<polygon fill="#4f46e5" stroke="#4f46e5" stroke-width="1.1" points="1693.98,-279.47 1701.98,-276.67 1693.98,-273.87 1693.98,-279.47"/>
<text text-anchor="middle" x="1458" y="-266.8" font-family="Helvetica,sans-Serif" font-size="9.00" fill="#4f46e5">2. consulta autodetect / setup</text>
</g>
<!-- guard&#45;&gt;preload -->
<g id="edge6" class="edge">
<title>guard&#45;&gt;preload</title>
<path fill="none" stroke="#4f46e5" stroke-width="1.1" d="M1458,-313.88C1458,-298.64 1458,-279.33 1458,-279.33 1458,-279.33 1693.86,-279.33 1693.86,-279.33"/>
<polygon fill="#4f46e5" stroke="#4f46e5" stroke-width="1.1" points="1693.86,-282.13 1701.86,-279.33 1693.86,-276.53 1693.86,-282.13"/>
<text text-anchor="middle" x="1614.5" y="-333.8" font-family="Helvetica,sans-Serif" font-size="9.00" fill="#4f46e5">6. checkOnline + status</text>
</g>
<!-- activate&#45;&gt;preload -->
<g id="edge13" class="edge">
<title>activate&#45;&gt;preload</title>
<path fill="none" stroke="#4f46e5" stroke-width="1.1" d="M1173.55,-260C1173.55,-260 1693.87,-260 1693.87,-260"/>
<polygon fill="#4f46e5" stroke="#4f46e5" stroke-width="1.1" points="1693.87,-262.8 1701.87,-260 1693.87,-257.2 1693.87,-262.8"/>
<text text-anchor="middle" x="1458" y="-176.8" font-family="Helvetica,sans-Serif" font-size="9.00" fill="#4f46e5">12. api.license.activate</text>
</g>
<!-- ipc_auto -->
<g id="node6" class="node">
<title>ipc_auto</title>
<path fill="#f5f3ff" stroke="#cbd5e1" stroke-width="1.1" d="M2177,-329C2177,-329 2105,-329 2105,-329 2099,-329 2093,-323 2093,-317 2093,-317 2093,-305 2093,-305 2093,-299 2099,-293 2105,-293 2105,-293 2177,-293 2177,-293 2183,-293 2189,-299 2189,-305 2189,-305 2189,-317 2189,-317 2189,-323 2183,-329 2177,-329"/>
<text text-anchor="middle" x="2141" y="-308.5" font-family="Helvetica,sans-Serif" font-size="10.00">autodetect.ipc.ts</text>
</g>
<!-- preload&#45;&gt;ipc_auto -->
<g id="edge3" class="edge">
<title>preload&#45;&gt;ipc_auto</title>
<path fill="none" stroke="#4f46e5" stroke-width="1.1" d="M1849.06,-269.5C1959.92,-269.5 2157,-269.5 2157,-269.5 2157,-269.5 2157,-284.68 2157,-284.68"/>
<polygon fill="#4f46e5" stroke="#4f46e5" stroke-width="1.1" points="2154.2,-284.68 2157,-292.68 2159.8,-284.68 2154.2,-284.68"/>
<text text-anchor="middle" x="1944.5" y="-321.8" font-family="Helvetica,sans-Serif" font-size="9.00" fill="#4f46e5">3. invoke autodetect:status</text>
</g>
<!-- ipc_license -->
<g id="node7" class="node">
<title>ipc_license</title>
<path fill="#f5f3ff" stroke="#cbd5e1" stroke-width="1.1" d="M2230,-232C2230,-232 2052,-232 2052,-232 2046,-232 2040,-226 2040,-220 2040,-220 2040,-208 2040,-208 2040,-202 2046,-196 2052,-196 2052,-196 2230,-196 2230,-196 2236,-196 2242,-202 2242,-208 2242,-208 2242,-220 2242,-220 2242,-226 2236,-232 2230,-232"/>
<text text-anchor="middle" x="2141" y="-217" font-family="Helvetica,sans-Serif" font-size="10.00">main.ts IPC</text>
<text text-anchor="middle" x="2141" y="-206" font-family="Helvetica,sans-Serif" font-size="10.00">license:status / activate / check&#45;online</text>
</g>
<!-- preload&#45;&gt;ipc_license -->
<g id="edge7" class="edge">
<title>preload&#45;&gt;ipc_license</title>
<path fill="none" stroke="#4f46e5" stroke-width="1.1" d="M1849.35,-249.67C1933.06,-249.67 2058,-249.67 2058,-249.67 2058,-249.67 2058,-240.25 2058,-240.25"/>
<polygon fill="#4f46e5" stroke="#4f46e5" stroke-width="1.1" points="2060.8,-240.25 2058,-232.25 2055.2,-240.25 2060.8,-240.25"/>
<text text-anchor="middle" x="1944.5" y="-211.8" font-family="Helvetica,sans-Serif" font-size="9.00" fill="#4f46e5">7. IPC licencia</text>
</g>
<!-- preload&#45;&gt;ipc_license -->
<g id="edge14" class="edge">
<title>preload&#45;&gt;ipc_license</title>
<path fill="none" stroke="#4f46e5" stroke-width="1.1" d="M1849.01,-253.33C1937.97,-253.33 2076,-253.33 2076,-253.33 2076,-253.33 2076,-240.28 2076,-240.28"/>
<polygon fill="#4f46e5" stroke="#4f46e5" stroke-width="1.1" points="2078.8,-240.28 2076,-232.28 2073.2,-240.28 2078.8,-240.28"/>
<text text-anchor="middle" x="1944.5" y="-266.8" font-family="Helvetica,sans-Serif" font-size="9.00" fill="#4f46e5">13. license:activate</text>
</g>
<!-- route -->
<g id="node11" class="node">
<title>route</title>
<path fill="#f3f4f6" stroke="#cbd5e1" stroke-width="1.1" d="M2955.5,-293C2955.5,-293 2830.5,-293 2830.5,-293 2824.5,-293 2818.5,-287 2818.5,-281 2818.5,-281 2818.5,-269 2818.5,-269 2818.5,-263 2824.5,-257 2830.5,-257 2830.5,-257 2955.5,-257 2955.5,-257 2961.5,-257 2967.5,-263 2967.5,-269 2967.5,-269 2967.5,-281 2967.5,-281 2967.5,-287 2961.5,-293 2955.5,-293"/>
<text text-anchor="middle" x="2893" y="-272.5" font-family="Helvetica,sans-Serif" font-size="10.00">/activate o rutas protegidas</text>
</g>
<!-- ipc_auto&#45;&gt;route -->
<g id="edge4" class="edge">
<title>ipc_auto&#45;&gt;route</title>
<path fill="none" stroke="#059669" stroke-width="1.1" d="M2125,-292.95C2125,-289.79 2125,-287.5 2125,-287.5 2125,-287.5 2810.31,-287.5 2810.31,-287.5"/>
<polygon fill="#059669" stroke="#059669" stroke-width="1.1" points="2810.31,-290.3 2818.31,-287.5 2810.31,-284.7 2810.31,-290.3"/>
<text text-anchor="middle" x="2496" y="-313.8" font-family="Helvetica,sans-Serif" font-size="9.00" fill="#059669">4. decide SetupWizard o modo ready</text>
</g>
<!-- license -->
<g id="node8" class="node">
<title>license</title>
<path fill="#ecfdf5" stroke="#cbd5e1" stroke-width="1.1" d="M2574,-183.5C2574,-183.5 2418,-183.5 2418,-183.5 2412,-183.5 2406,-177.5 2406,-171.5 2406,-171.5 2406,-154.5 2406,-154.5 2406,-148.5 2412,-142.5 2418,-142.5 2418,-142.5 2574,-142.5 2574,-142.5 2580,-142.5 2586,-148.5 2586,-154.5 2586,-154.5 2586,-171.5 2586,-171.5 2586,-177.5 2580,-183.5 2574,-183.5"/>
<text text-anchor="middle" x="2496" y="-171.5" font-family="Helvetica,sans-Serif" font-size="10.00">license.ts</text>
<text text-anchor="middle" x="2496" y="-160.5" font-family="Helvetica,sans-Serif" font-size="10.00">getMachineId, licenseStatusLocal,</text>
<text text-anchor="middle" x="2496" y="-149.5" font-family="Helvetica,sans-Serif" font-size="10.00">activateOnline, checkOnline</text>
</g>
<!-- ipc_license&#45;&gt;license -->
<g id="edge8" class="edge">
<title>ipc_license&#45;&gt;license</title>
<path fill="none" stroke="#059669" stroke-width="1.1" d="M2242.05,-208C2337.46,-208 2466,-208 2466,-208 2466,-208 2466,-191.66 2466,-191.66"/>
<polygon fill="#059669" stroke="#059669" stroke-width="1.1" points="2468.8,-191.66 2466,-183.66 2463.2,-191.66 2468.8,-191.66"/>
<text text-anchor="middle" x="2324" y="-217.8" font-family="Helvetica,sans-Serif" font-size="9.00" fill="#059669">8. valida local / online</text>
</g>
<!-- ipc_license&#45;&gt;license -->
<g id="edge15" class="edge">
<title>ipc_license&#45;&gt;license</title>
<path fill="none" stroke="#059669" stroke-width="1.1" d="M2242.15,-220C2356.22,-220 2526,-220 2526,-220 2526,-220 2526,-191.58 2526,-191.58"/>
<polygon fill="#059669" stroke="#059669" stroke-width="1.1" points="2528.8,-191.58 2526,-183.58 2523.2,-191.58 2528.8,-191.58"/>
<text text-anchor="middle" x="2324" y="-162.8" font-family="Helvetica,sans-Serif" font-size="9.00" fill="#059669">14. activateOnline</text>
</g>
<!-- files -->
<g id="node9" class="node">
<title>files</title>
<path fill="#fef3c7" stroke="#cbd5e1" stroke-width="1.1" d="M2957,-139C2957,-139 2829,-139 2829,-139 2823,-139 2817,-133 2817,-127 2817,-127 2817,-115 2817,-115 2817,-109 2823,-103 2829,-103 2829,-103 2957,-103 2957,-103 2963,-103 2969,-109 2969,-115 2969,-115 2969,-127 2969,-127 2969,-133 2963,-139 2957,-139"/>
<text text-anchor="middle" x="2893" y="-118.5" font-family="Helvetica,sans-Serif" font-size="10.00">license.json + machine.json</text>
</g>
<!-- license&#45;&gt;files -->
<g id="edge9" class="edge">
<title>license&#45;&gt;files</title>
<path fill="none" stroke="#d97706" stroke-width="1.1" d="M2586.16,-150.7C2707.41,-150.7 2908,-150.7 2908,-150.7 2908,-150.7 2908,-147.3 2908,-147.3"/>
<polygon fill="#d97706" stroke="#d97706" stroke-width="1.1" points="2910.8,-147.3 2908,-139.3 2905.2,-147.3 2910.8,-147.3"/>
<text text-anchor="middle" x="2701.5" y="-167.8" font-family="Helvetica,sans-Serif" font-size="9.00" fill="#d97706">9a. lee/guarda estado local</text>
</g>
<!-- license&#45;&gt;files -->
<g id="edge17" class="edge">
<title>license&#45;&gt;files</title>
<path fill="none" stroke="#d97706" stroke-width="1.1" d="M2586.24,-158.9C2715.52,-158.9 2938,-158.9 2938,-158.9 2938,-158.9 2938,-147.06 2938,-147.06"/>
<polygon fill="#d97706" stroke="#d97706" stroke-width="1.1" points="2940.8,-147.06 2938,-139.06 2935.2,-147.06 2940.8,-147.06"/>
<text text-anchor="middle" x="2701.5" y="-112.8" font-family="Helvetica,sans-Serif" font-size="9.00" fill="#d97706">16. guarda lastCheckAt / expiresAt</text>
</g>
<!-- supabase -->
<g id="node10" class="node">
<title>supabase</title>
<path fill="#fce7f3" stroke="#cbd5e1" stroke-width="1.1" d="M2952.5,-63C2952.5,-63 2833.5,-63 2833.5,-63 2827.5,-63 2821.5,-57 2821.5,-51 2821.5,-51 2821.5,-39 2821.5,-39 2821.5,-33 2827.5,-27 2833.5,-27 2833.5,-27 2952.5,-27 2952.5,-27 2958.5,-27 2964.5,-33 2964.5,-39 2964.5,-39 2964.5,-51 2964.5,-51 2964.5,-57 2958.5,-63 2952.5,-63"/>
<text text-anchor="middle" x="2893" y="-42.5" font-family="Helvetica,sans-Serif" font-size="10.00">Supabase validate&#45;license</text>
</g>
<!-- license&#45;&gt;supabase -->
<g id="edge10" class="edge">
<title>license&#45;&gt;supabase</title>
<path fill="none" stroke="#be185d" stroke-width="1.1" d="M2466,-142.25C2466,-106.95 2466,-39 2466,-39 2466,-39 2813.05,-39 2813.05,-39"/>
<polygon fill="#be185d" stroke="#be185d" stroke-width="1.1" points="2813.05,-41.8 2821.05,-39 2813.05,-36.2 2813.05,-41.8"/>
<text text-anchor="middle" x="2701.5" y="-57.8" font-family="Helvetica,sans-Serif" font-size="9.00" fill="#be185d">9b. valida clave en servidor</text>
</g>
<!-- license&#45;&gt;supabase -->
<g id="edge16" class="edge">
<title>license&#45;&gt;supabase</title>
<path fill="none" stroke="#be185d" stroke-width="1.1" d="M2526,-142.46C2526,-110.12 2526,-51 2526,-51 2526,-51 2813.37,-51 2813.37,-51"/>
<polygon fill="#be185d" stroke="#be185d" stroke-width="1.1" points="2813.37,-53.8 2821.37,-51 2813.37,-48.2 2813.37,-53.8"/>
<text text-anchor="middle" x="2701.5" y="-2.8" font-family="Helvetica,sans-Serif" font-size="9.00" fill="#be185d">15. valida licencia y machineId</text>
</g>
<!-- license&#45;&gt;route -->
<g id="edge11" class="edge">
<title>license&#45;&gt;route</title>
<path fill="none" stroke="#059669" stroke-width="1.1" d="M2586.45,-175.3C2691.04,-175.3 2849,-175.3 2849,-175.3 2849,-175.3 2849,-248.71 2849,-248.71"/>
<polygon fill="#059669" stroke="#059669" stroke-width="1.1" points="2846.2,-248.71 2849,-256.71 2851.8,-248.71 2846.2,-248.71"/>
<text text-anchor="middle" x="2701.5" y="-277.8" font-family="Helvetica,sans-Serif" font-size="9.00" fill="#059669">10. ok =&gt; entra, no ok =&gt; /activate</text>
</g>
<!-- license&#45;&gt;route -->
<g id="edge18" class="edge">
<title>license&#45;&gt;route</title>
<path fill="none" stroke="#059669" stroke-width="1.1" d="M2586.28,-167.1C2699.51,-167.1 2879,-167.1 2879,-167.1 2879,-167.1 2879,-248.7 2879,-248.7"/>
<polygon fill="#059669" stroke="#059669" stroke-width="1.1" points="2876.2,-248.7 2879,-256.7 2881.8,-248.7 2876.2,-248.7"/>
<text text-anchor="middle" x="2701.5" y="-222.8" font-family="Helvetica,sans-Serif" font-size="9.00" fill="#059669">17. habilita acceso</text>
</g>
<!-- note1 -->
<g id="node12" class="node">
<title>note1</title>
<polygon fill="#f8fafc" stroke="#cbd5e1" stroke-width="1.1" points="852,-439 0,-439 0,-403 858,-403 858,-433 852,-439"/>
<polyline fill="none" stroke="#cbd5e1" stroke-width="1.1" points="852,-439 852,-433 "/>
<polyline fill="none" stroke="#cbd5e1" stroke-width="1.1" points="858,-433 852,-433 "/>
<text text-anchor="middle" x="429" y="-418.5" font-family="Helvetica,sans-Serif" font-size="10.00">El arranque real no solo muestra login: primero autodetecta MySQL, luego setup de negocio y finalmente licencia. Las rutas internas quedan bloqueadas por RequireLicense.</text>
</g>
<!-- view_main -->
<g id="node13" class="node">
<title>view_main</title>
<path fill="#cbd5e1" stroke="#cbd5e1" stroke-width="1.1" d="M1135,-439C1135,-439 1091,-439 1091,-439 1085,-439 1079,-433 1079,-427 1079,-427 1079,-415 1079,-415 1079,-409 1085,-403 1091,-403 1091,-403 1135,-403 1135,-403 1141,-403 1147,-409 1147,-415 1147,-415 1147,-427 1147,-427 1147,-433 1141,-439 1135,-439"/>
<text text-anchor="middle" x="1113" y="-418.5" font-family="Helvetica,sans-Serif" font-size="10.00">view_main</text>
</g>
<!-- note1&#45;&gt;view_main -->
<g id="edge19" class="edge">
<title>note1&#45;&gt;view_main</title>
<path fill="none" stroke="#94a3b8" stroke-width="1.1" stroke-dasharray="5,2" d="M858.3,-421C950.91,-421 1034.36,-421 1078.94,-421"/>
</g>
</g>
</svg>
