<?xml version="1.0" encoding="UTF-8" standalone="no"?>
<!DOCTYPE svg PUBLIC "-//W3C//DTD SVG 1.1//EN"
 "http://www.w3.org/Graphics/SVG/1.1/DTD/svg11.dtd">
<!-- Generated by graphviz version 2.42.4 (0)
 -->
<!-- Title: G Pages: 1 -->
<svg width="2533pt" height="297pt"
 viewBox="0.00 0.00 2533.00 297.00" xmlns="http://www.w3.org/2000/svg" xmlns:xlink="http://www.w3.org/1999/xlink">
<g id="graph0" class="graph" transform="scale(1 1) rotate(0) translate(4 293)">
<title>G</title>
<polygon fill="white" stroke="transparent" points="-4,4 -4,-293 2529,-293 2529,4 -4,4"/>
<text text-anchor="middle" x="1262.5" y="-273.8" font-family="Helvetica,sans-Serif" font-size="14.00">Login de usuario</text>
<g id="clust1" class="cluster">
<title>cluster_actor</title>
<path fill="white" stroke="#fdba74" d="M377.28,-89C377.28,-89 491.72,-89 491.72,-89 497.72,-89 503.72,-95 503.72,-101 503.72,-101 503.72,-152 503.72,-152 503.72,-158 497.72,-164 491.72,-164 491.72,-164 377.28,-164 377.28,-164 371.28,-164 365.28,-158 365.28,-152 365.28,-152 365.28,-101 365.28,-101 365.28,-95 371.28,-89 377.28,-89"/>
<text text-anchor="middle" x="434.5" y="-148.8" font-family="Helvetica,sans-Serif" font-size="14.00">Actor</text>
</g>
<g id="clust2" class="cluster">
<title>cluster_view</title>
<path fill="white" stroke="#60a5fa" d="M1043,-49C1043,-49 1153,-49 1153,-49 1159,-49 1165,-55 1165,-61 1165,-61 1165,-112 1165,-112 1165,-118 1159,-124 1153,-124 1153,-124 1043,-124 1043,-124 1037,-124 1031,-118 1031,-112 1031,-112 1031,-61 1031,-61 1031,-55 1037,-49 1043,-49"/>
<text text-anchor="middle" x="1098" y="-108.8" font-family="Helvetica,sans-Serif" font-size="14.00">Vista</text>
</g>
<g id="clust3" class="cluster">
<title>cluster_controller</title>
<path fill="white" stroke="#a78bfa" d="M1302.5,-114C1302.5,-114 2144,-114 2144,-114 2150,-114 2156,-120 2156,-126 2156,-126 2156,-246 2156,-246 2156,-252 2150,-258 2144,-258 2144,-258 1302.5,-258 1302.5,-258 1296.5,-258 1290.5,-252 1290.5,-246 1290.5,-246 1290.5,-126 1290.5,-126 1290.5,-120 1296.5,-114 1302.5,-114"/>
<text text-anchor="middle" x="1723.25" y="-242.8" font-family="Helvetica,sans-Serif" font-size="14.00">Controller</text>
</g>
<g id="clust4" class="cluster">
<title>cluster_model</title>
<path fill="white" stroke="#34d399" d="M1649,-20C1649,-20 1860,-20 1860,-20 1866,-20 1872,-26 1872,-32 1872,-32 1872,-89 1872,-89 1872,-95 1866,-101 1860,-101 1860,-101 1649,-101 1649,-101 1643,-101 1637,-95 1637,-89 1637,-89 1637,-32 1637,-32 1637,-26 1643,-20 1649,-20"/>
<text text-anchor="middle" x="1754.5" y="-85.8" font-family="Helvetica,sans-Serif" font-size="14.00">Model</text>
</g>
<g id="clust5" class="cluster">
<title>cluster_dao</title>
<path fill="white" stroke="#f59e0b" d="M2380,-56C2380,-56 2505,-56 2505,-56 2511,-56 2517,-62 2517,-68 2517,-68 2517,-119 2517,-119 2517,-125 2511,-131 2505,-131 2505,-131 2380,-131 2380,-131 2374,-131 2368,-125 2368,-119 2368,-119 2368,-68 2368,-68 2368,-62 2374,-56 2380,-56"/>
<text text-anchor="middle" x="2442.5" y="-115.8" font-family="Helvetica,sans-Serif" font-size="14.00">DAO</text>
</g>
<g id="clust6" class="cluster">
<title>cluster_data</title>
<path fill="white" stroke="#94a3b8" d="M2015.5,-24C2015.5,-24 2130.5,-24 2130.5,-24 2136.5,-24 2142.5,-30 2142.5,-36 2142.5,-36 2142.5,-87 2142.5,-87 2142.5,-93 2136.5,-99 2130.5,-99 2130.5,-99 2015.5,-99 2015.5,-99 2009.5,-99 2003.5,-93 2003.5,-87 2003.5,-87 2003.5,-36 2003.5,-36 2003.5,-30 2009.5,-24 2015.5,-24"/>
<text text-anchor="middle" x="2073" y="-83.8" font-family="Helvetica,sans-Serif" font-size="14.00">Datos / salida</text>
</g>
<!-- actor -->
<g id="node1" class="node">
<title>actor</title>
<ellipse fill="#fff7ed" stroke="#cbd5e1" stroke-width="1.1" cx="434.5" cy="-115" rx="61.44" ry="18"/>
<text text-anchor="middle" x="434.5" y="-112.5" font-family="Helvetica,sans-Serif" font-size="10.00">Empleado / Cajero</text>
</g>
<!-- view_main -->
<g id="node2" class="node">
<title>view_main</title>
<path fill="#eff6ff" stroke="#cbd5e1" stroke-width="1.1" d="M1145,-93C1145,-93 1051,-93 1051,-93 1045,-93 1039,-87 1039,-81 1039,-81 1039,-69 1039,-69 1039,-63 1045,-57 1051,-57 1051,-57 1145,-57 1145,-57 1151,-57 1157,-63 1157,-69 1157,-69 1157,-81 1157,-81 1157,-87 1151,-93 1145,-93"/>
<text text-anchor="middle" x="1098" y="-78" font-family="Helvetica,sans-Serif" font-size="10.00">Login.tsx</text>
<text text-anchor="middle" x="1098" y="-67" font-family="Helvetica,sans-Serif" font-size="10.00">form email/password</text>
</g>
<!-- actor&#45;&gt;view_main -->
<g id="edge1" class="edge">
<title>actor&#45;&gt;view_main</title>
<path fill="none" stroke="#64748b" stroke-width="1.1" d="M495.73,-116.5C659.99,-116.5 1098,-116.5 1098,-116.5 1098,-116.5 1098,-101.32 1098,-101.32"/>
<polygon fill="#64748b" stroke="#64748b" stroke-width="1.1" points="1100.8,-101.32 1098,-93.32 1095.2,-101.32 1100.8,-101.32"/>
<text text-anchor="middle" x="954" y="-112.8" font-family="Helvetica,sans-Serif" font-size="9.00" fill="#64748b">1. escribe credenciales</text>
</g>
<!-- service -->
<g id="node3" class="node">
<title>service</title>
<path fill="#f5f3ff" stroke="#cbd5e1" stroke-width="1.1" d="M1409.5,-169C1409.5,-169 1310.5,-169 1310.5,-169 1304.5,-169 1298.5,-163 1298.5,-157 1298.5,-157 1298.5,-145 1298.5,-145 1298.5,-139 1304.5,-133 1310.5,-133 1310.5,-133 1409.5,-133 1409.5,-133 1415.5,-133 1421.5,-139 1421.5,-145 1421.5,-145 1421.5,-157 1421.5,-157 1421.5,-163 1415.5,-169 1409.5,-169"/>
<text text-anchor="middle" x="1360" y="-154" font-family="Helvetica,sans-Serif" font-size="10.00">services/auth.ts</text>
<text text-anchor="middle" x="1360" y="-143" font-family="Helvetica,sans-Serif" font-size="10.00">login(email,password)</text>
</g>
<!-- view_main&#45;&gt;service -->
<g id="edge2" class="edge">
<title>view_main&#45;&gt;service</title>
<path fill="none" stroke="#4f46e5" stroke-width="1.1" d="M1157.12,-89.08C1234.4,-89.08 1360,-89.08 1360,-89.08 1360,-89.08 1360,-124.76 1360,-124.76"/>
<polygon fill="#4f46e5" stroke="#4f46e5" stroke-width="1.1" points="1357.2,-124.76 1360,-132.76 1362.8,-124.76 1357.2,-124.76"/>
<text text-anchor="middle" x="1211" y="-131.8" font-family="Helvetica,sans-Serif" font-size="9.00" fill="#4f46e5">2. login()</text>
</g>
<!-- preload -->
<g id="node4" class="node">
<title>preload</title>
<path fill="#f5f3ff" stroke="#cbd5e1" stroke-width="1.1" d="M1777,-203C1777,-203 1732,-203 1732,-203 1726,-203 1720,-197 1720,-191 1720,-191 1720,-179 1720,-179 1720,-173 1726,-167 1732,-167 1732,-167 1777,-167 1777,-167 1783,-167 1789,-173 1789,-179 1789,-179 1789,-191 1789,-191 1789,-197 1783,-203 1777,-203"/>
<text text-anchor="middle" x="1754.5" y="-188" font-family="Helvetica,sans-Serif" font-size="10.00">preload.ts</text>
<text text-anchor="middle" x="1754.5" y="-177" font-family="Helvetica,sans-Serif" font-size="10.00">window.api</text>
</g>
<!-- service&#45;&gt;preload -->
<g id="edge3" class="edge">
<title>service&#45;&gt;preload</title>
<path fill="none" stroke="#4f46e5" stroke-width="1.1" d="M1421.66,-152.33C1535.24,-152.33 1766,-152.33 1766,-152.33 1766,-152.33 1766,-158.76 1766,-158.76"/>
<polygon fill="#4f46e5" stroke="#4f46e5" stroke-width="1.1" points="1763.2,-158.76 1766,-166.76 1768.8,-158.76 1763.2,-158.76"/>
<text text-anchor="middle" x="1550" y="-164.8" font-family="Helvetica,sans-Serif" font-size="9.00" fill="#4f46e5">3. api.auth.login</text>
</g>
<!-- model -->
<g id="node6" class="node">
<title>model</title>
<path fill="#ecfdf5" stroke="#cbd5e1" stroke-width="1.1" d="M1852,-69.5C1852,-69.5 1657,-69.5 1657,-69.5 1651,-69.5 1645,-63.5 1645,-57.5 1645,-57.5 1645,-40.5 1645,-40.5 1645,-34.5 1651,-28.5 1657,-28.5 1657,-28.5 1852,-28.5 1852,-28.5 1858,-28.5 1864,-34.5 1864,-40.5 1864,-40.5 1864,-57.5 1864,-57.5 1864,-63.5 1858,-69.5 1852,-69.5"/>
<text text-anchor="middle" x="1754.5" y="-57.5" font-family="Helvetica,sans-Serif" font-size="10.00">Autenticación</text>
<text text-anchor="middle" x="1754.5" y="-46.5" font-family="Helvetica,sans-Serif" font-size="10.00">App.tsx guarda sesión</text>
<text text-anchor="middle" x="1754.5" y="-35.5" font-family="Helvetica,sans-Serif" font-size="10.00">ChangePassword si mustChangePassword</text>
</g>
<!-- service&#45;&gt;model -->
<g id="edge11" class="edge">
<title>service&#45;&gt;model</title>
<path fill="none" stroke="#059669" stroke-width="1.1" d="M1421.51,-139C1515.23,-139 1683,-139 1683,-139 1683,-139 1683,-77.87 1683,-77.87"/>
<polygon fill="#059669" stroke="#059669" stroke-width="1.1" points="1685.8,-77.87 1683,-69.87 1680.2,-77.87 1685.8,-77.87"/>
<text text-anchor="middle" x="1550" y="-109.8" font-family="Helvetica,sans-Serif" font-size="9.00" fill="#059669">11. App.tsx setSessionUser</text>
</g>
<!-- preload&#45;&gt;service -->
<g id="edge10" class="edge">
<title>preload&#45;&gt;service</title>
<path fill="none" stroke="#4f46e5" stroke-width="1.1" d="M1743,-166.86C1743,-162.8 1743,-159.67 1743,-159.67 1743,-159.67 1429.54,-159.67 1429.54,-159.67"/>
<polygon fill="#4f46e5" stroke="#4f46e5" stroke-width="1.1" points="1429.54,-156.87 1421.54,-159.67 1429.54,-162.47 1429.54,-156.87"/>
<text text-anchor="middle" x="1550" y="-219.8" font-family="Helvetica,sans-Serif" font-size="9.00" fill="#4f46e5">10. respuesta IPC</text>
</g>
<!-- ipc -->
<g id="node5" class="node">
<title>ipc</title>
<path fill="#f5f3ff" stroke="#cbd5e1" stroke-width="1.1" d="M2136,-181C2136,-181 2010,-181 2010,-181 2004,-181 1998,-175 1998,-169 1998,-169 1998,-157 1998,-157 1998,-151 2004,-145 2010,-145 2010,-145 2136,-145 2136,-145 2142,-145 2148,-151 2148,-157 2148,-157 2148,-169 2148,-169 2148,-175 2142,-181 2136,-181"/>
<text text-anchor="middle" x="2073" y="-166" font-family="Helvetica,sans-Serif" font-size="10.00">auth.ipc.ts</text>
<text text-anchor="middle" x="2073" y="-155" font-family="Helvetica,sans-Serif" font-size="10.00">auth:login + RBAC implícito</text>
</g>
<!-- preload&#45;&gt;ipc -->
<g id="edge4" class="edge">
<title>preload&#45;&gt;ipc</title>
<path fill="none" stroke="#4f46e5" stroke-width="1.1" d="M1789.19,-171.67C1789.19,-171.67 1989.71,-171.67 1989.71,-171.67"/>
<polygon fill="#4f46e5" stroke="#4f46e5" stroke-width="1.1" points="1989.71,-174.47 1997.71,-171.67 1989.71,-168.87 1989.71,-174.47"/>
<text text-anchor="middle" x="1931" y="-164.8" font-family="Helvetica,sans-Serif" font-size="9.00" fill="#4f46e5">4. auth:login</text>
</g>
<!-- ipc&#45;&gt;preload -->
<g id="edge9" class="edge">
<title>ipc&#45;&gt;preload</title>
<path fill="none" stroke="#4f46e5" stroke-width="1.1" d="M1997.92,-176.33C1997.92,-176.33 1797.03,-176.33 1797.03,-176.33"/>
<polygon fill="#4f46e5" stroke="#4f46e5" stroke-width="1.1" points="1797.03,-173.53 1789.03,-176.33 1797.03,-179.13 1797.03,-173.53"/>
<text text-anchor="middle" x="1931" y="-219.8" font-family="Helvetica,sans-Serif" font-size="9.00" fill="#4f46e5">9. retorna user</text>
</g>
<!-- dao -->
<g id="node7" class="node">
<title>dao</title>
<path fill="#fef3c7" stroke="#cbd5e1" stroke-width="1.1" d="M2497,-100C2497,-100 2388,-100 2388,-100 2382,-100 2376,-94 2376,-88 2376,-88 2376,-76 2376,-76 2376,-70 2382,-64 2388,-64 2388,-64 2497,-64 2497,-64 2503,-64 2509,-70 2509,-76 2509,-76 2509,-88 2509,-88 2509,-94 2503,-100 2497,-100"/>
<text text-anchor="middle" x="2442.5" y="-85" font-family="Helvetica,sans-Serif" font-size="10.00">authUser (SQLite)</text>
<text text-anchor="middle" x="2442.5" y="-74" font-family="Helvetica,sans-Serif" font-size="10.00">authUserMySql (MySQL)</text>
</g>
<!-- ipc&#45;&gt;dao -->
<g id="edge5" class="edge">
<title>ipc&#45;&gt;dao</title>
<path fill="none" stroke="#059669" stroke-width="1.1" d="M2139,-144.86C2139,-120.77 2139,-81.25 2139,-81.25 2139,-81.25 2367.9,-81.25 2367.9,-81.25"/>
<polygon fill="#059669" stroke="#059669" stroke-width="1.1" points="2367.9,-84.05 2375.9,-81.25 2367.9,-78.45 2367.9,-84.05"/>
<text text-anchor="middle" x="2262" y="-167.8" font-family="Helvetica,sans-Serif" font-size="9.00" fill="#059669">5. busca usuario en backend activo</text>
</g>
<!-- model&#45;&gt;view_main -->
<g id="edge12" class="edge">
<title>model&#45;&gt;view_main</title>
<path fill="none" stroke="#059669" stroke-width="1.1" d="M1644.99,-63.25C1644.99,-63.25 1165.2,-63.25 1165.2,-63.25"/>
<polygon fill="#059669" stroke="#059669" stroke-width="1.1" points="1165.2,-60.45 1157.2,-63.25 1165.2,-66.05 1165.2,-60.45"/>
<text text-anchor="middle" x="1360" y="-43.8" font-family="Helvetica,sans-Serif" font-size="9.00" fill="#059669">12. entra a AppRoutes o ChangePassword</text>
</g>
<!-- dao&#45;&gt;ipc -->
<g id="edge8" class="edge">
<title>dao&#45;&gt;ipc</title>
<path fill="none" stroke="#059669" stroke-width="1.1" d="M2375.88,-85.17C2287.91,-85.17 2144,-85.17 2144,-85.17 2144,-85.17 2144,-136.95 2144,-136.95"/>
<polygon fill="#059669" stroke="#059669" stroke-width="1.1" points="2141.2,-136.95 2144,-144.95 2146.8,-136.95 2141.2,-136.95"/>
<text text-anchor="middle" x="2262" y="-112.8" font-family="Helvetica,sans-Serif" font-size="9.00" fill="#059669">8. valida bcrypt y rol</text>
</g>
<!-- data -->
<g id="node8" class="node">
<title>data</title>
<path fill="#f3f4f6" stroke="#cbd5e1" stroke-width="1.1" d="M2122.5,-68C2122.5,-68 2023.5,-68 2023.5,-68 2017.5,-68 2011.5,-62 2011.5,-56 2011.5,-56 2011.5,-44 2011.5,-44 2011.5,-38 2017.5,-32 2023.5,-32 2023.5,-32 2122.5,-32 2122.5,-32 2128.5,-32 2134.5,-38 2134.5,-44 2134.5,-44 2134.5,-56 2134.5,-56 2134.5,-62 2128.5,-68 2122.5,-68"/>
<text text-anchor="middle" x="2073" y="-53" font-family="Helvetica,sans-Serif" font-size="10.00">Tabla users</text>
<text text-anchor="middle" x="2073" y="-42" font-family="Helvetica,sans-Serif" font-size="10.00">password_hash + role</text>
</g>
<!-- dao&#45;&gt;data -->
<g id="edge6" class="edge">
<title>dao&#45;&gt;data</title>
<path fill="none" stroke="#d97706" stroke-width="1.1" d="M2375.99,-77.33C2264.74,-77.33 2053,-77.33 2053,-77.33 2053,-77.33 2053,-76.08 2053,-76.08"/>
<polygon fill="#d97706" stroke="#d97706" stroke-width="1.1" points="2055.8,-76.08 2053,-68.08 2050.2,-76.08 2055.8,-76.08"/>
<text text-anchor="middle" x="2262" y="-57.8" font-family="Helvetica,sans-Serif" font-size="9.00" fill="#d97706">6. consulta users + password_hash</text>
</g>
<!-- data&#45;&gt;dao -->
<g id="edge7" class="edge">
<title>data&#45;&gt;dao</title>
<path fill="none" stroke="#334155" stroke-width="1.1" d="M2094,-68.45C2094,-71.35 2094,-73.42 2094,-73.42 2094,-73.42 2367.72,-73.42 2367.72,-73.42"/>
<polygon fill="#334155" stroke="#334155" stroke-width="1.1" points="2367.72,-76.22 2375.72,-73.42 2367.72,-70.62 2367.72,-76.22"/>
<text text-anchor="middle" x="2262" y="-2.8" font-family="Helvetica,sans-Serif" font-size="9.00" fill="#334155">7. devuelve registro</text>
</g>
<!-- note1 -->
<g id="node9" class="node">
<title>note1</title>
<polygon fill="#f8fafc" stroke="#cbd5e1" stroke-width="1.1" points="863,-57 0,-57 0,-21 869,-21 869,-51 863,-57"/>
<polyline fill="none" stroke="#cbd5e1" stroke-width="1.1" points="863,-57 863,-51 "/>
<polyline fill="none" stroke="#cbd5e1" stroke-width="1.1" points="869,-51 863,-51 "/>
<text text-anchor="middle" x="434.5" y="-36.5" font-family="Helvetica,sans-Serif" font-size="10.00">En este proyecto el login no tiene un service de negocio separado: el IPC auth llama directamente a authUser/authUserMySql y App.tsx decide si obliga cambio de contraseña.</text>
</g>
<!-- note1&#45;&gt;view_main -->
<g id="edge13" class="edge">
<title>note1&#45;&gt;view_main</title>
<path fill="none" stroke="#94a3b8" stroke-width="1.1" stroke-dasharray="5,2" d="M869.2,-42.75C994.47,-42.75 1098,-42.75 1098,-42.75 1098,-42.75 1098,-49.6 1098,-56.99"/>
</g>
</g>
</svg>
