<?xml version="1.0" encoding="UTF-8" standalone="no"?>
<!DOCTYPE svg PUBLIC "-//W3C//DTD SVG 1.1//EN"
 "http://www.w3.org/Graphics/SVG/1.1/DTD/svg11.dtd">
<!-- Generated by graphviz version 2.42.4 (0)
 -->
<!-- Title: G Pages: 1 -->
<svg width="2172pt" height="365pt"
 viewBox="0.00 0.00 2172.00 365.00" xmlns="http://www.w3.org/2000/svg" xmlns:xlink="http://www.w3.org/1999/xlink">
<g id="graph0" class="graph" transform="scale(1 1) rotate(0) translate(4 361)">
<title>G</title>
<polygon fill="white" stroke="transparent" points="-4,4 -4,-361 2168,-361 2168,4 -4,4"/>
<text text-anchor="middle" x="1082" y="-341.8" font-family="Helvetica,sans-Serif" font-size="14.00">Consultar inventario / listar productos</text>
<g id="clust1" class="cluster">
<title>cluster_actor</title>
<path fill="white" stroke="#fdba74" d="M260.23,-218C260.23,-218 421.77,-218 421.77,-218 427.77,-218 433.77,-224 433.77,-230 433.77,-230 433.77,-281 433.77,-281 433.77,-287 427.77,-293 421.77,-293 421.77,-293 260.23,-293 260.23,-293 254.23,-293 248.23,-287 248.23,-281 248.23,-281 248.23,-230 248.23,-230 248.23,-224 254.23,-218 260.23,-218"/>
<text text-anchor="middle" x="341" y="-277.8" font-family="Helvetica,sans-Serif" font-size="14.00">Actor</text>
</g>
<g id="clust2" class="cluster">
<title>cluster_view</title>
<path fill="white" stroke="#60a5fa" d="M871,-192C871,-192 1015,-192 1015,-192 1021,-192 1027,-198 1027,-204 1027,-204 1027,-255 1027,-255 1027,-261 1021,-267 1015,-267 1015,-267 871,-267 871,-267 865,-267 859,-261 859,-255 859,-255 859,-204 859,-204 859,-198 865,-192 871,-192"/>
<text text-anchor="middle" x="943" y="-251.8" font-family="Helvetica,sans-Serif" font-size="14.00">Vista</text>
</g>
<g id="clust3" class="cluster">
<title>cluster_controller</title>
<path fill="white" stroke="#a78bfa" d="M1168,-182C1168,-182 1839.5,-182 1839.5,-182 1845.5,-182 1851.5,-188 1851.5,-194 1851.5,-194 1851.5,-314 1851.5,-314 1851.5,-320 1845.5,-326 1839.5,-326 1839.5,-326 1168,-326 1168,-326 1162,-326 1156,-320 1156,-314 1156,-314 1156,-194 1156,-194 1156,-188 1162,-182 1168,-182"/>
<text text-anchor="middle" x="1503.75" y="-310.8" font-family="Helvetica,sans-Serif" font-size="14.00">Controller</text>
</g>
<g id="clust4" class="cluster">
<title>cluster_model</title>
<path fill="white" stroke="#34d399" d="M2048,-172C2048,-172 2144,-172 2144,-172 2150,-172 2156,-178 2156,-184 2156,-184 2156,-235 2156,-235 2156,-241 2150,-247 2144,-247 2144,-247 2048,-247 2048,-247 2042,-247 2036,-241 2036,-235 2036,-235 2036,-184 2036,-184 2036,-178 2042,-172 2048,-172"/>
<text text-anchor="middle" x="2096" y="-231.8" font-family="Helvetica,sans-Serif" font-size="14.00">Model</text>
</g>
<g id="clust5" class="cluster">
<title>cluster_dao</title>
<path fill="white" stroke="#f59e0b" d="M1644,-62C1644,-62 1841,-62 1841,-62 1847,-62 1853,-68 1853,-74 1853,-74 1853,-125 1853,-125 1853,-131 1847,-137 1841,-137 1841,-137 1644,-137 1644,-137 1638,-137 1632,-131 1632,-125 1632,-125 1632,-74 1632,-74 1632,-68 1638,-62 1644,-62"/>
<text text-anchor="middle" x="1742.5" y="-121.8" font-family="Helvetica,sans-Serif" font-size="14.00">DAO</text>
</g>
<g id="clust6" class="cluster">
<title>cluster_data</title>
<path fill="white" stroke="#94a3b8" d="M2053,-8C2053,-8 2139,-8 2139,-8 2145,-8 2151,-14 2151,-20 2151,-20 2151,-71 2151,-71 2151,-77 2145,-83 2139,-83 2139,-83 2053,-83 2053,-83 2047,-83 2041,-77 2041,-71 2041,-71 2041,-20 2041,-20 2041,-14 2047,-8 2053,-8"/>
<text text-anchor="middle" x="2096" y="-67.8" font-family="Helvetica,sans-Serif" font-size="14.00">Datos / salida</text>
</g>
<!-- actor -->
<g id="node1" class="node">
<title>actor</title>
<ellipse fill="#fff7ed" stroke="#cbd5e1" stroke-width="1.1" cx="341" cy="-244" rx="84.54" ry="18"/>
<text text-anchor="middle" x="341" y="-241.5" font-family="Helvetica,sans-Serif" font-size="10.00">Administrador / Supervisor</text>
</g>
<!-- view_main -->
<g id="node2" class="node">
<title>view_main</title>
<path fill="#eff6ff" stroke="#cbd5e1" stroke-width="1.1" d="M1007,-236C1007,-236 879,-236 879,-236 873,-236 867,-230 867,-224 867,-224 867,-212 867,-212 867,-206 873,-200 879,-200 879,-200 1007,-200 1007,-200 1013,-200 1019,-206 1019,-212 1019,-212 1019,-224 1019,-224 1019,-230 1013,-236 1007,-236"/>
<text text-anchor="middle" x="943" y="-221" font-family="Helvetica,sans-Serif" font-size="10.00">Inventory.tsx</text>
<text text-anchor="middle" x="943" y="-210" font-family="Helvetica,sans-Serif" font-size="10.00">load() + búsqueda por texto</text>
</g>
<!-- actor&#45;&gt;view_main -->
<g id="edge1" class="edge">
<title>actor&#45;&gt;view_main</title>
<path fill="none" stroke="#64748b" stroke-width="1.1" d="M399.82,-231C399.82,-231 858.59,-231 858.59,-231"/>
<polygon fill="#64748b" stroke="#64748b" stroke-width="1.1" points="858.59,-233.8 866.59,-231 858.59,-228.2 858.59,-233.8"/>
<text text-anchor="middle" x="774.5" y="-241.8" font-family="Helvetica,sans-Serif" font-size="9.00" fill="#64748b">1. abre inventario o busca</text>
</g>
<!-- service -->
<g id="node3" class="node">
<title>service</title>
<path fill="#f5f3ff" stroke="#cbd5e1" stroke-width="1.1" d="M1264,-258C1264,-258 1176,-258 1176,-258 1170,-258 1164,-252 1164,-246 1164,-246 1164,-234 1164,-234 1164,-228 1170,-222 1176,-222 1176,-222 1264,-222 1264,-222 1270,-222 1276,-228 1276,-234 1276,-234 1276,-246 1276,-246 1276,-252 1270,-258 1264,-258"/>
<text text-anchor="middle" x="1220" y="-243" font-family="Helvetica,sans-Serif" font-size="10.00">services/products.ts</text>
<text text-anchor="middle" x="1220" y="-232" font-family="Helvetica,sans-Serif" font-size="10.00">listProducts(search)</text>
</g>
<!-- view_main&#45;&gt;service -->
<g id="edge2" class="edge">
<title>view_main&#45;&gt;service</title>
<path fill="none" stroke="#4f46e5" stroke-width="1.1" d="M1019.06,-226.67C1019.06,-226.67 1155.88,-226.67 1155.88,-226.67"/>
<polygon fill="#4f46e5" stroke="#4f46e5" stroke-width="1.1" points="1155.88,-229.47 1163.88,-226.67 1155.88,-223.87 1155.88,-229.47"/>
<text text-anchor="middle" x="1091.5" y="-247.8" font-family="Helvetica,sans-Serif" font-size="9.00" fill="#4f46e5">2. listProducts(q)</text>
</g>
<!-- service&#45;&gt;view_main -->
<g id="edge13" class="edge">
<title>service&#45;&gt;view_main</title>
<path fill="none" stroke="#4f46e5" stroke-width="1.1" d="M1163.94,-231.33C1163.94,-231.33 1027.18,-231.33 1027.18,-231.33"/>
<polygon fill="#4f46e5" stroke="#4f46e5" stroke-width="1.1" points="1027.18,-228.53 1019.18,-231.33 1027.18,-234.13 1027.18,-228.53"/>
<text text-anchor="middle" x="1091.5" y="-192.8" font-family="Helvetica,sans-Serif" font-size="9.00" fill="#4f46e5">13. render tabla</text>
</g>
<!-- preload -->
<g id="node4" class="node">
<title>preload</title>
<path fill="#f5f3ff" stroke="#cbd5e1" stroke-width="1.1" d="M1493,-271C1493,-271 1448,-271 1448,-271 1442,-271 1436,-265 1436,-259 1436,-259 1436,-247 1436,-247 1436,-241 1442,-235 1448,-235 1448,-235 1493,-235 1493,-235 1499,-235 1505,-241 1505,-247 1505,-247 1505,-259 1505,-259 1505,-265 1499,-271 1493,-271"/>
<text text-anchor="middle" x="1470.5" y="-256" font-family="Helvetica,sans-Serif" font-size="10.00">preload.ts</text>
<text text-anchor="middle" x="1470.5" y="-245" font-family="Helvetica,sans-Serif" font-size="10.00">window.api</text>
</g>
<!-- service&#45;&gt;preload -->
<g id="edge3" class="edge">
<title>service&#45;&gt;preload</title>
<path fill="none" stroke="#4f46e5" stroke-width="1.1" d="M1276.22,-242.67C1276.22,-242.67 1427.69,-242.67 1427.69,-242.67"/>
<polygon fill="#4f46e5" stroke="#4f46e5" stroke-width="1.1" points="1427.69,-245.47 1435.69,-242.67 1427.69,-239.87 1427.69,-245.47"/>
<text text-anchor="middle" x="1356" y="-232.8" font-family="Helvetica,sans-Serif" font-size="9.00" fill="#4f46e5">3. api.products.list</text>
</g>
<!-- preload&#45;&gt;service -->
<g id="edge12" class="edge">
<title>preload&#45;&gt;service</title>
<path fill="none" stroke="#4f46e5" stroke-width="1.1" d="M1435.93,-250.33C1435.93,-250.33 1284.31,-250.33 1284.31,-250.33"/>
<polygon fill="#4f46e5" stroke="#4f46e5" stroke-width="1.1" points="1284.31,-247.53 1276.31,-250.33 1284.31,-253.13 1284.31,-247.53"/>
<text text-anchor="middle" x="1356" y="-287.8" font-family="Helvetica,sans-Serif" font-size="9.00" fill="#4f46e5">12. promise resuelta</text>
</g>
<!-- ipc -->
<g id="node5" class="node">
<title>ipc</title>
<path fill="#f5f3ff" stroke="#cbd5e1" stroke-width="1.1" d="M1831.5,-271C1831.5,-271 1653.5,-271 1653.5,-271 1647.5,-271 1641.5,-265 1641.5,-259 1641.5,-259 1641.5,-247 1641.5,-247 1641.5,-241 1647.5,-235 1653.5,-235 1653.5,-235 1831.5,-235 1831.5,-235 1837.5,-235 1843.5,-241 1843.5,-247 1843.5,-247 1843.5,-259 1843.5,-259 1843.5,-265 1837.5,-271 1831.5,-271"/>
<text text-anchor="middle" x="1742.5" y="-256" font-family="Helvetica,sans-Serif" font-size="10.00">products.ipc.ts</text>
<text text-anchor="middle" x="1742.5" y="-245" font-family="Helvetica,sans-Serif" font-size="10.00">products:list + permiso inventory:read</text>
</g>
<!-- preload&#45;&gt;ipc -->
<g id="edge4" class="edge">
<title>preload&#45;&gt;ipc</title>
<path fill="none" stroke="#4f46e5" stroke-width="1.1" d="M1505.23,-247C1505.23,-247 1633.26,-247 1633.26,-247"/>
<polygon fill="#4f46e5" stroke="#4f46e5" stroke-width="1.1" points="1633.26,-249.8 1641.26,-247 1633.26,-244.2 1633.26,-249.8"/>
<text text-anchor="middle" x="1572.5" y="-232.8" font-family="Helvetica,sans-Serif" font-size="9.00" fill="#4f46e5">4. products:list</text>
</g>
<!-- ipc&#45;&gt;preload -->
<g id="edge11" class="edge">
<title>ipc&#45;&gt;preload</title>
<path fill="none" stroke="#4f46e5" stroke-width="1.1" d="M1641.22,-259C1641.22,-259 1513.09,-259 1513.09,-259"/>
<polygon fill="#4f46e5" stroke="#4f46e5" stroke-width="1.1" points="1513.09,-256.2 1505.09,-259 1513.09,-261.8 1513.09,-256.2"/>
<text text-anchor="middle" x="1572.5" y="-287.8" font-family="Helvetica,sans-Serif" font-size="9.00" fill="#4f46e5">11. respuesta</text>
</g>
<!-- model -->
<g id="node6" class="node">
<title>model</title>
<path fill="#ecfdf5" stroke="#cbd5e1" stroke-width="1.1" d="M2136,-216C2136,-216 2056,-216 2056,-216 2050,-216 2044,-210 2044,-204 2044,-204 2044,-192 2044,-192 2044,-186 2050,-180 2056,-180 2056,-180 2136,-180 2136,-180 2142,-180 2148,-186 2148,-192 2148,-192 2148,-204 2148,-204 2148,-210 2142,-216 2136,-216"/>
<text text-anchor="middle" x="2096" y="-201" font-family="Helvetica,sans-Serif" font-size="10.00">products.repo.ts</text>
<text text-anchor="middle" x="2096" y="-190" font-family="Helvetica,sans-Serif" font-size="10.00">listProductsRepo()</text>
</g>
<!-- ipc&#45;&gt;model -->
<g id="edge5" class="edge">
<title>ipc&#45;&gt;model</title>
<path fill="none" stroke="#7c3aed" stroke-width="1.1" d="M1843.92,-247C1943,-247 2079,-247 2079,-247 2079,-247 2079,-224.25 2079,-224.25"/>
<polygon fill="#7c3aed" stroke="#7c3aed" stroke-width="1.1" points="2081.8,-224.25 2079,-216.25 2076.2,-224.25 2081.8,-224.25"/>
<text text-anchor="middle" x="1944.5" y="-283.8" font-family="Helvetica,sans-Serif" font-size="9.00" fill="#7c3aed">5. valida inventory:read</text>
</g>
<!-- model&#45;&gt;ipc -->
<g id="edge10" class="edge">
<title>model&#45;&gt;ipc</title>
<path fill="none" stroke="#059669" stroke-width="1.1" d="M2114,-216.3C2114,-234.27 2114,-259 2114,-259 2114,-259 1851.52,-259 1851.52,-259"/>
<polygon fill="#059669" stroke="#059669" stroke-width="1.1" points="1851.52,-256.2 1843.52,-259 1851.52,-261.8 1851.52,-256.2"/>
<text text-anchor="middle" x="1944.5" y="-228.8" font-family="Helvetica,sans-Serif" font-size="9.00" fill="#059669">10. lista de productos</text>
</g>
<!-- dao -->
<g id="node7" class="node">
<title>dao</title>
<path fill="#fef3c7" stroke="#cbd5e1" stroke-width="1.1" d="M1833,-106C1833,-106 1652,-106 1652,-106 1646,-106 1640,-100 1640,-94 1640,-94 1640,-82 1640,-82 1640,-76 1646,-70 1652,-70 1652,-70 1833,-70 1833,-70 1839,-70 1845,-76 1845,-82 1845,-82 1845,-94 1845,-94 1845,-100 1839,-106 1833,-106"/>
<text text-anchor="middle" x="1742.5" y="-85.5" font-family="Helvetica,sans-Serif" font-size="10.00">sqlite_listProducts / mysql_listProducts</text>
</g>
<!-- model&#45;&gt;dao -->
<g id="edge6" class="edge">
<title>model&#45;&gt;dao</title>
<path fill="none" stroke="#059669" stroke-width="1.1" d="M2048,-179.81C2048,-151.17 2048,-98.8 2048,-98.8 2048,-98.8 1853.08,-98.8 1853.08,-98.8"/>
<polygon fill="#059669" stroke="#059669" stroke-width="1.1" points="1853.08,-96 1845.08,-98.8 1853.08,-101.6 1853.08,-96"/>
<text text-anchor="middle" x="1944.5" y="-173.8" font-family="Helvetica,sans-Serif" font-size="9.00" fill="#059669">6. selecciona SQLite o MySQL</text>
</g>
<!-- dao&#45;&gt;model -->
<g id="edge9" class="edge">
<title>dao&#45;&gt;model</title>
<path fill="none" stroke="#059669" stroke-width="1.1" d="M1845.12,-91.6C1942.48,-91.6 2074,-91.6 2074,-91.6 2074,-91.6 2074,-171.95 2074,-171.95"/>
<polygon fill="#059669" stroke="#059669" stroke-width="1.1" points="2071.2,-171.95 2074,-179.95 2076.8,-171.95 2071.2,-171.95"/>
<text text-anchor="middle" x="1944.5" y="-118.8" font-family="Helvetica,sans-Serif" font-size="9.00" fill="#059669">9. retorno repo</text>
</g>
<!-- data -->
<g id="node8" class="node">
<title>data</title>
<path fill="#f3f4f6" stroke="#cbd5e1" stroke-width="1.1" d="M2128,-52C2128,-52 2064,-52 2064,-52 2058,-52 2052,-46 2052,-40 2052,-40 2052,-28 2052,-28 2052,-22 2058,-16 2064,-16 2064,-16 2128,-16 2128,-16 2134,-16 2140,-22 2140,-28 2140,-28 2140,-40 2140,-40 2140,-46 2134,-52 2128,-52"/>
<text text-anchor="middle" x="2096" y="-37" font-family="Helvetica,sans-Serif" font-size="10.00">Tabla products</text>
<text text-anchor="middle" x="2096" y="-26" font-family="Helvetica,sans-Serif" font-size="10.00">solo active = 1</text>
</g>
<!-- dao&#45;&gt;data -->
<g id="edge7" class="edge">
<title>dao&#45;&gt;data</title>
<path fill="none" stroke="#d97706" stroke-width="1.1" d="M1845.22,-77.2C1949.59,-77.2 2096,-77.2 2096,-77.2 2096,-77.2 2096,-60.07 2096,-60.07"/>
<polygon fill="#d97706" stroke="#d97706" stroke-width="1.1" points="2098.8,-60.07 2096,-52.07 2093.2,-60.07 2098.8,-60.07"/>
<text text-anchor="middle" x="1944.5" y="-63.8" font-family="Helvetica,sans-Serif" font-size="9.00" fill="#d97706">7. SELECT en products</text>
</g>
<!-- data&#45;&gt;dao -->
<g id="edge8" class="edge">
<title>data&#45;&gt;dao</title>
<path fill="none" stroke="#334155" stroke-width="1.1" d="M2118,-52.2C2118,-66.63 2118,-84.4 2118,-84.4 2118,-84.4 1853.11,-84.4 1853.11,-84.4"/>
<polygon fill="#334155" stroke="#334155" stroke-width="1.1" points="1853.11,-81.6 1845.11,-84.4 1853.11,-87.2 1853.11,-81.6"/>
<text text-anchor="middle" x="1944.5" y="-8.8" font-family="Helvetica,sans-Serif" font-size="9.00" fill="#334155">8. filas activas</text>
</g>
<!-- note1 -->
<g id="node9" class="node">
<title>note1</title>
<polygon fill="#f8fafc" stroke="#cbd5e1" stroke-width="1.1" points="676,-186 0,-186 0,-150 682,-150 682,-180 676,-186"/>
<polyline fill="none" stroke="#cbd5e1" stroke-width="1.1" points="676,-186 676,-180 "/>
<polyline fill="none" stroke="#cbd5e1" stroke-width="1.1" points="682,-180 676,-180 "/>
<text text-anchor="middle" x="341" y="-165.5" font-family="Helvetica,sans-Serif" font-size="10.00">La consulta de inventario usa un DAO dual. products.repo.ts decide en tiempo de ejecución si leer desde SQLite local o MySQL multicaja.</text>
</g>
<!-- note1&#45;&gt;view_main -->
<g id="edge14" class="edge">
<title>note1&#45;&gt;view_main</title>
<path fill="none" stroke="#94a3b8" stroke-width="1.1" stroke-dasharray="5,2" d="M682.02,-165C818.06,-165 943,-165 943,-165 943,-165 943,-184.43 943,-199.76"/>
</g>
</g>
</svg>
