<?xml version="1.0" encoding="UTF-8" standalone="no"?>
<!DOCTYPE svg PUBLIC "-//W3C//DTD SVG 1.1//EN"
 "http://www.w3.org/Graphics/SVG/1.1/DTD/svg11.dtd">
<!-- Generated by graphviz version 2.42.4 (0)
 -->
<!-- Title: G Pages: 1 -->
<svg width="2870pt" height="281pt"
 viewBox="0.00 0.00 2870.00 281.00" xmlns="http://www.w3.org/2000/svg" xmlns:xlink="http://www.w3.org/1999/xlink">
<g id="graph0" class="graph" transform="scale(1 1) rotate(0) translate(4 277)">
<title>G</title>
<polygon fill="white" stroke="transparent" points="-4,4 -4,-277 2866,-277 2866,4 -4,4"/>
<text text-anchor="middle" x="1431" y="-257.8" font-family="Helvetica,sans-Serif" font-size="14.00">Crear / editar / archivar producto</text>
<g id="clust1" class="cluster">
<title>cluster_actor</title>
<path fill="white" stroke="#fdba74" d="M153.41,-155C153.41,-155 381.59,-155 381.59,-155 387.59,-155 393.59,-161 393.59,-167 393.59,-167 393.59,-224 393.59,-224 393.59,-230 387.59,-236 381.59,-236 381.59,-236 153.41,-236 153.41,-236 147.41,-236 141.41,-230 141.41,-224 141.41,-224 141.41,-167 141.41,-167 141.41,-161 147.41,-155 153.41,-155"/>
<text text-anchor="middle" x="267.5" y="-220.8" font-family="Helvetica,sans-Serif" font-size="14.00">Actor</text>
</g>
<g id="clust2" class="cluster">
<title>cluster_view</title>
<path fill="white" stroke="#60a5fa" d="M741,-116C741,-116 868,-116 868,-116 874,-116 880,-122 880,-128 880,-128 880,-179 880,-179 880,-185 874,-191 868,-191 868,-191 741,-191 741,-191 735,-191 729,-185 729,-179 729,-179 729,-128 729,-128 729,-122 735,-116 741,-116"/>
<text text-anchor="middle" x="804.5" y="-175.8" font-family="Helvetica,sans-Serif" font-size="14.00">Vista</text>
</g>
<g id="clust3" class="cluster">
<title>cluster_controller</title>
<path fill="white" stroke="#a78bfa" d="M1046,-90C1046,-90 1902,-90 1902,-90 1908,-90 1914,-96 1914,-102 1914,-102 1914,-222 1914,-222 1914,-228 1908,-234 1902,-234 1902,-234 1046,-234 1046,-234 1040,-234 1034,-228 1034,-222 1034,-222 1034,-102 1034,-102 1034,-96 1040,-90 1046,-90"/>
<text text-anchor="middle" x="1474" y="-218.8" font-family="Helvetica,sans-Serif" font-size="14.00">Controller</text>
</g>
<g id="clust4" class="cluster">
<title>cluster_model</title>
<path fill="white" stroke="#34d399" d="M2145,-91C2145,-91 2455,-91 2455,-91 2461,-91 2467,-97 2467,-103 2467,-103 2467,-230 2467,-230 2467,-236 2461,-242 2455,-242 2455,-242 2145,-242 2145,-242 2139,-242 2133,-236 2133,-230 2133,-230 2133,-103 2133,-103 2133,-97 2139,-91 2145,-91"/>
<text text-anchor="middle" x="2300" y="-226.8" font-family="Helvetica,sans-Serif" font-size="14.00">Model</text>
</g>
<g id="clust5" class="cluster">
<title>cluster_dao</title>
<path fill="white" stroke="#f59e0b" d="M2191,-8C2191,-8 2409,-8 2409,-8 2415,-8 2421,-14 2421,-20 2421,-20 2421,-71 2421,-71 2421,-77 2415,-83 2409,-83 2409,-83 2191,-83 2191,-83 2185,-83 2179,-77 2179,-71 2179,-71 2179,-20 2179,-20 2179,-14 2185,-8 2191,-8"/>
<text text-anchor="middle" x="2300" y="-67.8" font-family="Helvetica,sans-Serif" font-size="14.00">DAO</text>
</g>
<g id="clust6" class="cluster">
<title>cluster_data</title>
<path fill="white" stroke="#94a3b8" d="M2656,-33C2656,-33 2842,-33 2842,-33 2848,-33 2854,-39 2854,-45 2854,-45 2854,-102 2854,-102 2854,-108 2848,-114 2842,-114 2842,-114 2656,-114 2656,-114 2650,-114 2644,-108 2644,-102 2644,-102 2644,-45 2644,-45 2644,-39 2650,-33 2656,-33"/>
<text text-anchor="middle" x="2749" y="-98.8" font-family="Helvetica,sans-Serif" font-size="14.00">Datos</text>
</g>
<!-- actor -->
<g id="node1" class="node">
<title>actor</title>
<ellipse fill="#fff7ed" stroke="#cbd5e1" stroke-width="1.1" cx="267.5" cy="-184" rx="118.17" ry="21.43"/>
<text text-anchor="middle" x="267.5" y="-187" font-family="Helvetica,sans-Serif" font-size="10.00">Administrador</text>
<text text-anchor="middle" x="267.5" y="-176" font-family="Helvetica,sans-Serif" font-size="10.00">(o Supervisor para crear/editar)</text>
</g>
<!-- view_main -->
<g id="node2" class="node">
<title>view_main</title>
<path fill="#eff6ff" stroke="#cbd5e1" stroke-width="1.1" d="M860,-160C860,-160 749,-160 749,-160 743,-160 737,-154 737,-148 737,-148 737,-136 737,-136 737,-130 743,-124 749,-124 749,-124 860,-124 860,-124 866,-124 872,-130 872,-136 872,-136 872,-148 872,-148 872,-154 866,-160 860,-160"/>
<text text-anchor="middle" x="804.5" y="-145" font-family="Helvetica,sans-Serif" font-size="10.00">Inventory.tsx</text>
<text text-anchor="middle" x="804.5" y="-134" font-family="Helvetica,sans-Serif" font-size="10.00">Guardar, Editar, Archivar</text>
</g>
<!-- actor&#45;&gt;view_main -->
<g id="edge1" class="edge">
<title>actor&#45;&gt;view_main</title>
<path fill="none" stroke="#64748b" stroke-width="1.1" d="M360.51,-170.89C514.35,-170.89 805,-170.89 805,-170.89 805,-170.89 805,-168.13 805,-168.13"/>
<polygon fill="#64748b" stroke="#64748b" stroke-width="1.1" points="807.8,-168.13 805,-160.13 802.2,-168.13 807.8,-168.13"/>
<text text-anchor="middle" x="636" y="-180.8" font-family="Helvetica,sans-Serif" font-size="9.00" fill="#64748b">1. captura datos del producto</text>
</g>
<!-- service -->
<g id="node3" class="node">
<title>service</title>
<path fill="#f5f3ff" stroke="#cbd5e1" stroke-width="1.1" d="M1266,-161C1266,-161 1054,-161 1054,-161 1048,-161 1042,-155 1042,-149 1042,-149 1042,-137 1042,-137 1042,-131 1048,-125 1054,-125 1054,-125 1266,-125 1266,-125 1272,-125 1278,-131 1278,-137 1278,-137 1278,-149 1278,-149 1278,-155 1272,-161 1266,-161"/>
<text text-anchor="middle" x="1160" y="-146" font-family="Helvetica,sans-Serif" font-size="10.00">services/products.ts</text>
<text text-anchor="middle" x="1160" y="-135" font-family="Helvetica,sans-Serif" font-size="10.00">saveProduct / updateProduct / archiveProduct</text>
</g>
<!-- view_main&#45;&gt;service -->
<g id="edge2" class="edge">
<title>view_main&#45;&gt;service</title>
<path fill="none" stroke="#4f46e5" stroke-width="1.1" d="M872.2,-136.67C872.2,-136.67 1033.79,-136.67 1033.79,-136.67"/>
<polygon fill="#4f46e5" stroke="#4f46e5" stroke-width="1.1" points="1033.79,-139.47 1041.79,-136.67 1033.79,-133.87 1033.79,-139.47"/>
<text text-anchor="middle" x="957" y="-172.8" font-family="Helvetica,sans-Serif" font-size="9.00" fill="#4f46e5">2. save/update/archive</text>
</g>
<!-- service&#45;&gt;view_main -->
<g id="edge14" class="edge">
<title>service&#45;&gt;view_main</title>
<path fill="none" stroke="#4f46e5" stroke-width="1.1" d="M1041.62,-148.33C1041.62,-148.33 880.12,-148.33 880.12,-148.33"/>
<polygon fill="#4f46e5" stroke="#4f46e5" stroke-width="1.1" points="880.12,-145.53 872.12,-148.33 880.12,-151.13 880.12,-145.53"/>
<text text-anchor="middle" x="957" y="-117.8" font-family="Helvetica,sans-Serif" font-size="9.00" fill="#4f46e5">14. refresca listado</text>
</g>
<!-- preload -->
<g id="node4" class="node">
<title>preload</title>
<path fill="#f5f3ff" stroke="#cbd5e1" stroke-width="1.1" d="M1509,-179C1509,-179 1450,-179 1450,-179 1444,-179 1438,-173 1438,-167 1438,-167 1438,-155 1438,-155 1438,-149 1444,-143 1450,-143 1450,-143 1509,-143 1509,-143 1515,-143 1521,-149 1521,-155 1521,-155 1521,-167 1521,-167 1521,-173 1515,-179 1509,-179"/>
<text text-anchor="middle" x="1479.5" y="-164" font-family="Helvetica,sans-Serif" font-size="10.00">preload.ts</text>
<text text-anchor="middle" x="1479.5" y="-153" font-family="Helvetica,sans-Serif" font-size="10.00">api.products.*</text>
</g>
<!-- service&#45;&gt;preload -->
<g id="edge3" class="edge">
<title>service&#45;&gt;preload</title>
<path fill="none" stroke="#4f46e5" stroke-width="1.1" d="M1278.06,-149C1278.06,-149 1429.85,-149 1429.85,-149"/>
<polygon fill="#4f46e5" stroke="#4f46e5" stroke-width="1.1" points="1429.85,-151.8 1437.85,-149 1429.85,-146.2 1429.85,-151.8"/>
<text text-anchor="middle" x="1358" y="-140.8" font-family="Helvetica,sans-Serif" font-size="9.00" fill="#4f46e5">3. api.products.*</text>
</g>
<!-- preload&#45;&gt;service -->
<g id="edge13" class="edge">
<title>preload&#45;&gt;service</title>
<path fill="none" stroke="#4f46e5" stroke-width="1.1" d="M1437.73,-155C1437.73,-155 1286.2,-155 1286.2,-155"/>
<polygon fill="#4f46e5" stroke="#4f46e5" stroke-width="1.1" points="1286.2,-152.2 1278.2,-155 1286.2,-157.8 1286.2,-152.2"/>
<text text-anchor="middle" x="1358" y="-195.8" font-family="Helvetica,sans-Serif" font-size="9.00" fill="#4f46e5">13. promise resuelta</text>
</g>
<!-- ipc -->
<g id="node5" class="node">
<title>ipc</title>
<path fill="#f5f3ff" stroke="#cbd5e1" stroke-width="1.1" d="M1894,-195C1894,-195 1747,-195 1747,-195 1741,-195 1735,-189 1735,-183 1735,-183 1735,-171 1735,-171 1735,-165 1741,-159 1747,-159 1747,-159 1894,-159 1894,-159 1900,-159 1906,-165 1906,-171 1906,-171 1906,-183 1906,-183 1906,-189 1900,-195 1894,-195"/>
<text text-anchor="middle" x="1820.5" y="-180" font-family="Helvetica,sans-Serif" font-size="10.00">products.ipc.ts</text>
<text text-anchor="middle" x="1820.5" y="-169" font-family="Helvetica,sans-Serif" font-size="10.00">products:save / update / archive</text>
</g>
<!-- preload&#45;&gt;ipc -->
<g id="edge4" class="edge">
<title>preload&#45;&gt;ipc</title>
<path fill="none" stroke="#4f46e5" stroke-width="1.1" d="M1521.31,-165.67C1521.31,-165.67 1726.82,-165.67 1726.82,-165.67"/>
<polygon fill="#4f46e5" stroke="#4f46e5" stroke-width="1.1" points="1726.82,-168.47 1734.82,-165.67 1726.82,-162.87 1726.82,-168.47"/>
<text text-anchor="middle" x="1628" y="-140.8" font-family="Helvetica,sans-Serif" font-size="9.00" fill="#4f46e5">4. products:save|update|archive</text>
</g>
<!-- ipc&#45;&gt;preload -->
<g id="edge12" class="edge">
<title>ipc&#45;&gt;preload</title>
<path fill="none" stroke="#4f46e5" stroke-width="1.1" d="M1734.89,-172.33C1734.89,-172.33 1529.1,-172.33 1529.1,-172.33"/>
<polygon fill="#4f46e5" stroke="#4f46e5" stroke-width="1.1" points="1529.1,-169.53 1521.1,-172.33 1529.1,-175.13 1529.1,-169.53"/>
<text text-anchor="middle" x="1628" y="-195.8" font-family="Helvetica,sans-Serif" font-size="9.00" fill="#4f46e5">12. respuesta IPC</text>
</g>
<!-- model -->
<g id="node6" class="node">
<title>model</title>
<path fill="#ecfdf5" stroke="#cbd5e1" stroke-width="1.1" d="M2447,-211C2447,-211 2153,-211 2153,-211 2147,-211 2141,-205 2141,-199 2141,-199 2141,-187 2141,-187 2141,-181 2147,-175 2153,-175 2153,-175 2447,-175 2447,-175 2453,-175 2459,-181 2459,-187 2459,-187 2459,-199 2459,-199 2459,-205 2453,-211 2447,-211"/>
<text text-anchor="middle" x="2300" y="-196" font-family="Helvetica,sans-Serif" font-size="10.00">products.repo.ts</text>
<text text-anchor="middle" x="2300" y="-185" font-family="Helvetica,sans-Serif" font-size="10.00">upsertProductRepo / updateProductRepo / archiveProductRepo</text>
</g>
<!-- ipc&#45;&gt;model -->
<g id="edge5" class="edge">
<title>ipc&#45;&gt;model</title>
<path fill="none" stroke="#7c3aed" stroke-width="1.1" d="M1906.22,-185C1906.22,-185 2132.88,-185 2132.88,-185"/>
<polygon fill="#7c3aed" stroke="#7c3aed" stroke-width="1.1" points="2132.88,-187.8 2140.88,-185 2132.88,-182.2 2132.88,-187.8"/>
<text text-anchor="middle" x="2023.5" y="-219.8" font-family="Helvetica,sans-Serif" font-size="9.00" fill="#7c3aed">5. valida inventory:write</text>
</g>
<!-- audit -->
<g id="node7" class="node">
<title>audit</title>
<path fill="#ecfdf5" stroke="#cbd5e1" stroke-width="1.1" d="M2381.5,-135C2381.5,-135 2218.5,-135 2218.5,-135 2212.5,-135 2206.5,-129 2206.5,-123 2206.5,-123 2206.5,-111 2206.5,-111 2206.5,-105 2212.5,-99 2218.5,-99 2218.5,-99 2381.5,-99 2381.5,-99 2387.5,-99 2393.5,-105 2393.5,-111 2393.5,-111 2393.5,-123 2393.5,-123 2393.5,-129 2387.5,-135 2381.5,-135"/>
<text text-anchor="middle" x="2300" y="-120" font-family="Helvetica,sans-Serif" font-size="10.00">audit repo / logAudit</text>
<text text-anchor="middle" x="2300" y="-109" font-family="Helvetica,sans-Serif" font-size="10.00">PRODUCT_SAVE / UPDATE / DELETE</text>
</g>
<!-- ipc&#45;&gt;audit -->
<g id="edge10" class="edge">
<title>ipc&#45;&gt;audit</title>
<path fill="none" stroke="#059669" stroke-width="1.1" d="M1821,-158.96C1821,-145.71 1821,-130 1821,-130 1821,-130 2198.22,-130 2198.22,-130"/>
<polygon fill="#059669" stroke="#059669" stroke-width="1.1" points="2198.22,-132.8 2206.22,-130 2198.22,-127.2 2198.22,-132.8"/>
<text text-anchor="middle" x="2023.5" y="-164.8" font-family="Helvetica,sans-Serif" font-size="9.00" fill="#059669">10. registra auditoría</text>
</g>
<!-- dao -->
<g id="node8" class="node">
<title>dao</title>
<path fill="#fef3c7" stroke="#cbd5e1" stroke-width="1.1" d="M2401,-52C2401,-52 2199,-52 2199,-52 2193,-52 2187,-46 2187,-40 2187,-40 2187,-28 2187,-28 2187,-22 2193,-16 2199,-16 2199,-16 2401,-16 2401,-16 2407,-16 2413,-22 2413,-28 2413,-28 2413,-40 2413,-40 2413,-46 2407,-52 2401,-52"/>
<text text-anchor="middle" x="2300" y="-37" font-family="Helvetica,sans-Serif" font-size="10.00">sqlite_upsertProduct / mysql_upsertProduct</text>
<text text-anchor="middle" x="2300" y="-26" font-family="Helvetica,sans-Serif" font-size="10.00">+ validación de barcode</text>
</g>
<!-- model&#45;&gt;dao -->
<g id="edge6" class="edge">
<title>model&#45;&gt;dao</title>
<path fill="none" stroke="#059669" stroke-width="1.1" d="M2404,-174.76C2404,-174.76 2404,-60.03 2404,-60.03"/>
<polygon fill="#059669" stroke="#059669" stroke-width="1.1" points="2406.8,-60.03 2404,-52.03 2401.2,-60.03 2406.8,-60.03"/>
<text text-anchor="middle" x="2023.5" y="-94.8" font-family="Helvetica,sans-Serif" font-size="9.00" fill="#059669">6. normaliza payload y elige backend</text>
</g>
<!-- data -->
<g id="node9" class="node">
<title>data</title>
<path fill="#f3f4f6" stroke="#cbd5e1" stroke-width="1.1" d="M2834,-82.5C2834,-82.5 2664,-82.5 2664,-82.5 2658,-82.5 2652,-76.5 2652,-70.5 2652,-70.5 2652,-53.5 2652,-53.5 2652,-47.5 2658,-41.5 2664,-41.5 2664,-41.5 2834,-41.5 2834,-41.5 2840,-41.5 2846,-47.5 2846,-53.5 2846,-53.5 2846,-70.5 2846,-70.5 2846,-76.5 2840,-82.5 2834,-82.5"/>
<text text-anchor="middle" x="2749" y="-70.5" font-family="Helvetica,sans-Serif" font-size="10.00">Tabla products</text>
<text text-anchor="middle" x="2749" y="-59.5" font-family="Helvetica,sans-Serif" font-size="10.00">INSERT / UPDATE / archive(active=0)</text>
<text text-anchor="middle" x="2749" y="-48.5" font-family="Helvetica,sans-Serif" font-size="10.00">+ audit_logs</text>
</g>
<!-- audit&#45;&gt;data -->
<g id="edge11" class="edge">
<title>audit&#45;&gt;data</title>
<path fill="none" stroke="#334155" stroke-width="1.1" d="M2300,-98.76C2300,-84.56 2300,-67.25 2300,-67.25 2300,-67.25 2643.85,-67.25 2643.85,-67.25"/>
<polygon fill="#334155" stroke="#334155" stroke-width="1.1" points="2643.85,-70.05 2651.85,-67.25 2643.85,-64.45 2643.85,-70.05"/>
<text text-anchor="middle" x="2555.5" y="-119.8" font-family="Helvetica,sans-Serif" font-size="9.00" fill="#334155">11. inserta en audit_logs</text>
</g>
<!-- dao&#45;&gt;model -->
<g id="edge9" class="edge">
<title>dao&#45;&gt;model</title>
<path fill="none" stroke="#059669" stroke-width="1.1" d="M2197,-52.24C2197,-52.24 2197,-166.97 2197,-166.97"/>
<polygon fill="#059669" stroke="#059669" stroke-width="1.1" points="2194.2,-166.97 2197,-174.97 2199.8,-166.97 2194.2,-166.97"/>
<text text-anchor="middle" x="2023.5" y="-109.8" font-family="Helvetica,sans-Serif" font-size="9.00" fill="#059669">9. devuelve id / producto</text>
</g>
<!-- dao&#45;&gt;data -->
<g id="edge7" class="edge">
<title>dao&#45;&gt;data</title>
<path fill="none" stroke="#d97706" stroke-width="1.1" d="M2413.01,-45C2413.01,-45 2643.98,-45 2643.98,-45"/>
<polygon fill="#d97706" stroke="#d97706" stroke-width="1.1" points="2643.98,-47.8 2651.98,-45 2643.98,-42.2 2643.98,-47.8"/>
<text text-anchor="middle" x="2555.5" y="-64.8" font-family="Helvetica,sans-Serif" font-size="9.00" fill="#d97706">7. INSERT/UPDATE o archive</text>
</g>
<!-- data&#45;&gt;dao -->
<g id="edge8" class="edge">
<title>data&#45;&gt;dao</title>
<path fill="none" stroke="#334155" stroke-width="1.1" d="M2651.85,-48.5C2651.85,-48.5 2421.22,-48.5 2421.22,-48.5"/>
<polygon fill="#334155" stroke="#334155" stroke-width="1.1" points="2421.22,-45.7 2413.22,-48.5 2421.22,-51.3 2421.22,-45.7"/>
<text text-anchor="middle" x="2555.5" y="-9.8" font-family="Helvetica,sans-Serif" font-size="9.00" fill="#334155">8. confirmación DB</text>
</g>
<!-- note1 -->
<g id="node10" class="node">
<title>note1</title>
<polygon fill="#f8fafc" stroke="#cbd5e1" stroke-width="1.1" points="529,-123 0,-123 0,-87 535,-87 535,-117 529,-123"/>
<polyline fill="none" stroke="#cbd5e1" stroke-width="1.1" points="529,-123 529,-117 "/>
<polyline fill="none" stroke="#cbd5e1" stroke-width="1.1" points="535,-117 529,-117 "/>
<text text-anchor="middle" x="267.5" y="-102.5" font-family="Helvetica,sans-Serif" font-size="10.00">Archivar no borra físicamente el producto: cambia active = 0. Solo ADMIN ve el botón de archivar en la UI.</text>
</g>
<!-- note1&#45;&gt;view_main -->
<g id="edge15" class="edge">
<title>note1&#45;&gt;view_main</title>
<path fill="none" stroke="#94a3b8" stroke-width="1.1" stroke-dasharray="5,2" d="M535.07,-111C669.84,-111 805,-111 805,-111 805,-111 805,-117.15 805,-123.97"/>
</g>
</g>
</svg>
