<?xml version="1.0" encoding="UTF-8" standalone="no"?>
<!DOCTYPE svg PUBLIC "-//W3C//DTD SVG 1.1//EN"
 "http://www.w3.org/Graphics/SVG/1.1/DTD/svg11.dtd">
<!-- Generated by graphviz version 2.42.4 (0)
 -->
<!-- Title: G Pages: 1 -->
<svg width="2640pt" height="365pt"
 viewBox="0.00 0.00 2640.00 365.00" xmlns="http://www.w3.org/2000/svg" xmlns:xlink="http://www.w3.org/1999/xlink">
<g id="graph0" class="graph" transform="scale(1 1) rotate(0) translate(4 361)">
<title>G</title>
<polygon fill="white" stroke="transparent" points="-4,4 -4,-361 2636,-361 2636,4 -4,4"/>
<text text-anchor="middle" x="1316" y="-341.8" font-family="Helvetica,sans-Serif" font-size="14.00">Buscar producto en POS (texto o código de barras)</text>
<g id="clust1" class="cluster">
<title>cluster_actor</title>
<path fill="white" stroke="#fdba74" d="M282.92,-218C282.92,-218 329.08,-218 329.08,-218 335.08,-218 341.08,-224 341.08,-230 341.08,-230 341.08,-281 341.08,-281 341.08,-287 335.08,-293 329.08,-293 329.08,-293 282.92,-293 282.92,-293 276.92,-293 270.92,-287 270.92,-281 270.92,-281 270.92,-230 270.92,-230 270.92,-224 276.92,-218 282.92,-218"/>
<text text-anchor="middle" x="306" y="-277.8" font-family="Helvetica,sans-Serif" font-size="14.00">Actor</text>
</g>
<g id="clust2" class="cluster">
<title>cluster_view</title>
<path fill="white" stroke="#60a5fa" d="M770,-192C770,-192 952,-192 952,-192 958,-192 964,-198 964,-204 964,-204 964,-255 964,-255 964,-261 958,-267 952,-267 952,-267 770,-267 770,-267 764,-267 758,-261 758,-255 758,-255 758,-204 758,-204 758,-198 764,-192 770,-192"/>
<text text-anchor="middle" x="861" y="-251.8" font-family="Helvetica,sans-Serif" font-size="14.00">Vista</text>
</g>
<g id="clust3" class="cluster">
<title>cluster_controller</title>
<path fill="white" stroke="#a78bfa" d="M1189,-182C1189,-182 2115.5,-182 2115.5,-182 2121.5,-182 2127.5,-188 2127.5,-194 2127.5,-194 2127.5,-314 2127.5,-314 2127.5,-320 2121.5,-326 2115.5,-326 2115.5,-326 1189,-326 1189,-326 1183,-326 1177,-320 1177,-314 1177,-314 1177,-194 1177,-194 1177,-188 1183,-182 1189,-182"/>
<text text-anchor="middle" x="1652.25" y="-310.8" font-family="Helvetica,sans-Serif" font-size="14.00">Controller</text>
</g>
<g id="clust4" class="cluster">
<title>cluster_model</title>
<path fill="white" stroke="#34d399" d="M2368,-172C2368,-172 2612,-172 2612,-172 2618,-172 2624,-178 2624,-184 2624,-184 2624,-235 2624,-235 2624,-241 2618,-247 2612,-247 2612,-247 2368,-247 2368,-247 2362,-247 2356,-241 2356,-235 2356,-235 2356,-184 2356,-184 2356,-178 2362,-172 2368,-172"/>
<text text-anchor="middle" x="2490" y="-231.8" font-family="Helvetica,sans-Serif" font-size="14.00">Model</text>
</g>
<g id="clust5" class="cluster">
<title>cluster_dao</title>
<path fill="white" stroke="#f59e0b" d="M1871,-62C1871,-62 2164,-62 2164,-62 2170,-62 2176,-68 2176,-74 2176,-74 2176,-125 2176,-125 2176,-131 2170,-137 2164,-137 2164,-137 1871,-137 1871,-137 1865,-137 1859,-131 1859,-125 1859,-125 1859,-74 1859,-74 1859,-68 1865,-62 1871,-62"/>
<text text-anchor="middle" x="2017.5" y="-121.8" font-family="Helvetica,sans-Serif" font-size="14.00">DAO</text>
</g>
<g id="clust6" class="cluster">
<title>cluster_data</title>
<path fill="white" stroke="#94a3b8" d="M2432.5,-8C2432.5,-8 2547.5,-8 2547.5,-8 2553.5,-8 2559.5,-14 2559.5,-20 2559.5,-20 2559.5,-71 2559.5,-71 2559.5,-77 2553.5,-83 2547.5,-83 2547.5,-83 2432.5,-83 2432.5,-83 2426.5,-83 2420.5,-77 2420.5,-71 2420.5,-71 2420.5,-20 2420.5,-20 2420.5,-14 2426.5,-8 2432.5,-8"/>
<text text-anchor="middle" x="2490" y="-67.8" font-family="Helvetica,sans-Serif" font-size="14.00">Datos</text>
</g>
<!-- actor -->
<g id="node1" class="node">
<title>actor</title>
<ellipse fill="#fff7ed" stroke="#cbd5e1" stroke-width="1.1" cx="306" cy="-244" rx="27.16" ry="18"/>
<text text-anchor="middle" x="306" y="-241.5" font-family="Helvetica,sans-Serif" font-size="10.00">Cajero</text>
</g>
<!-- view_main -->
<g id="node2" class="node">
<title>view_main</title>
<path fill="#eff6ff" stroke="#cbd5e1" stroke-width="1.1" d="M944,-236C944,-236 778,-236 778,-236 772,-236 766,-230 766,-224 766,-224 766,-212 766,-212 766,-206 772,-200 778,-200 778,-200 944,-200 944,-200 950,-200 956,-206 956,-212 956,-212 956,-224 956,-224 956,-230 950,-236 944,-236"/>
<text text-anchor="middle" x="861" y="-221" font-family="Helvetica,sans-Serif" font-size="10.00">POS.tsx</text>
<text text-anchor="middle" x="861" y="-210" font-family="Helvetica,sans-Serif" font-size="10.00">input oculto de escáner + búsqueda</text>
</g>
<!-- actor&#45;&gt;view_main -->
<g id="edge1" class="edge">
<title>actor&#45;&gt;view_main</title>
<path fill="none" stroke="#64748b" stroke-width="1.1" d="M324.78,-231C324.78,-231 757.87,-231 757.87,-231"/>
<polygon fill="#64748b" stroke="#64748b" stroke-width="1.1" points="757.87,-233.8 765.87,-231 757.87,-228.2 757.87,-233.8"/>
<text text-anchor="middle" x="689" y="-241.8" font-family="Helvetica,sans-Serif" font-size="9.00" fill="#64748b">1. escanea o busca</text>
</g>
<!-- service -->
<g id="node3" class="node">
<title>service</title>
<path fill="#f5f3ff" stroke="#cbd5e1" stroke-width="1.1" d="M1376,-258C1376,-258 1197,-258 1197,-258 1191,-258 1185,-252 1185,-246 1185,-246 1185,-234 1185,-234 1185,-228 1191,-222 1197,-222 1197,-222 1376,-222 1376,-222 1382,-222 1388,-228 1388,-234 1388,-234 1388,-246 1388,-246 1388,-252 1382,-258 1376,-258"/>
<text text-anchor="middle" x="1286.5" y="-243" font-family="Helvetica,sans-Serif" font-size="10.00">services/products.ts</text>
<text text-anchor="middle" x="1286.5" y="-232" font-family="Helvetica,sans-Serif" font-size="10.00">listPosProducts / getProductByBarcode</text>
</g>
<!-- view_main&#45;&gt;service -->
<g id="edge2" class="edge">
<title>view_main&#45;&gt;service</title>
<path fill="none" stroke="#4f46e5" stroke-width="1.1" d="M956.23,-226.67C956.23,-226.67 1176.9,-226.67 1176.9,-226.67"/>
<polygon fill="#4f46e5" stroke="#4f46e5" stroke-width="1.1" points="1176.9,-229.47 1184.9,-226.67 1176.9,-223.87 1176.9,-229.47"/>
<text text-anchor="middle" x="1070.5" y="-257.8" font-family="Helvetica,sans-Serif" font-size="9.00" fill="#4f46e5">2a. listPosProducts(q)</text>
<text text-anchor="middle" x="1070.5" y="-247.8" font-family="Helvetica,sans-Serif" font-size="9.00" fill="#4f46e5">2b. getProductByBarcode(code)</text>
</g>
<!-- service&#45;&gt;view_main -->
<g id="edge13" class="edge">
<title>service&#45;&gt;view_main</title>
<path fill="none" stroke="#4f46e5" stroke-width="1.1" d="M1184.85,-231.33C1184.85,-231.33 964.01,-231.33 964.01,-231.33"/>
<polygon fill="#4f46e5" stroke="#4f46e5" stroke-width="1.1" points="964.01,-228.53 956.01,-231.33 964.01,-234.13 964.01,-228.53"/>
<text text-anchor="middle" x="1070.5" y="-192.8" font-family="Helvetica,sans-Serif" font-size="9.00" fill="#4f46e5">13. agrega al carrito o muestra lista</text>
</g>
<!-- preload -->
<g id="node4" class="node">
<title>preload</title>
<path fill="#f5f3ff" stroke="#cbd5e1" stroke-width="1.1" d="M1722,-271C1722,-271 1560,-271 1560,-271 1554,-271 1548,-265 1548,-259 1548,-259 1548,-247 1548,-247 1548,-241 1554,-235 1560,-235 1560,-235 1722,-235 1722,-235 1728,-235 1734,-241 1734,-247 1734,-247 1734,-259 1734,-259 1734,-265 1728,-271 1722,-271"/>
<text text-anchor="middle" x="1641" y="-256" font-family="Helvetica,sans-Serif" font-size="10.00">preload.ts</text>
<text text-anchor="middle" x="1641" y="-245" font-family="Helvetica,sans-Serif" font-size="10.00">api.products.listForPos / byBarcode</text>
</g>
<!-- service&#45;&gt;preload -->
<g id="edge3" class="edge">
<title>service&#45;&gt;preload</title>
<path fill="none" stroke="#4f46e5" stroke-width="1.1" d="M1388.09,-242.67C1388.09,-242.67 1539.89,-242.67 1539.89,-242.67"/>
<polygon fill="#4f46e5" stroke="#4f46e5" stroke-width="1.1" points="1539.89,-245.47 1547.89,-242.67 1539.89,-239.87 1539.89,-245.47"/>
<text text-anchor="middle" x="1468" y="-232.8" font-family="Helvetica,sans-Serif" font-size="9.00" fill="#4f46e5">3. api.products.*</text>
</g>
<!-- preload&#45;&gt;service -->
<g id="edge12" class="edge">
<title>preload&#45;&gt;service</title>
<path fill="none" stroke="#4f46e5" stroke-width="1.1" d="M1547.86,-250.33C1547.86,-250.33 1396.04,-250.33 1396.04,-250.33"/>
<polygon fill="#4f46e5" stroke="#4f46e5" stroke-width="1.1" points="1396.04,-247.53 1388.04,-250.33 1396.04,-253.13 1396.04,-247.53"/>
<text text-anchor="middle" x="1468" y="-287.8" font-family="Helvetica,sans-Serif" font-size="9.00" fill="#4f46e5">12. promise resuelta</text>
</g>
<!-- ipc -->
<g id="node5" class="node">
<title>ipc</title>
<path fill="#f5f3ff" stroke="#cbd5e1" stroke-width="1.1" d="M2107.5,-271C2107.5,-271 1927.5,-271 1927.5,-271 1921.5,-271 1915.5,-265 1915.5,-259 1915.5,-259 1915.5,-247 1915.5,-247 1915.5,-241 1921.5,-235 1927.5,-235 1927.5,-235 2107.5,-235 2107.5,-235 2113.5,-235 2119.5,-241 2119.5,-247 2119.5,-247 2119.5,-259 2119.5,-259 2119.5,-265 2113.5,-271 2107.5,-271"/>
<text text-anchor="middle" x="2017.5" y="-256" font-family="Helvetica,sans-Serif" font-size="10.00">products.ipc.ts</text>
<text text-anchor="middle" x="2017.5" y="-245" font-family="Helvetica,sans-Serif" font-size="10.00">pos:products:list / products:by&#45;barcode</text>
</g>
<!-- preload&#45;&gt;ipc -->
<g id="edge4" class="edge">
<title>preload&#45;&gt;ipc</title>
<path fill="none" stroke="#4f46e5" stroke-width="1.1" d="M1734.07,-247C1734.07,-247 1907.25,-247 1907.25,-247"/>
<polygon fill="#4f46e5" stroke="#4f46e5" stroke-width="1.1" points="1907.25,-249.8 1915.25,-247 1907.25,-244.2 1907.25,-249.8"/>
<text text-anchor="middle" x="1800.5" y="-232.8" font-family="Helvetica,sans-Serif" font-size="9.00" fill="#4f46e5">4. canales POS</text>
</g>
<!-- ipc&#45;&gt;preload -->
<g id="edge11" class="edge">
<title>ipc&#45;&gt;preload</title>
<path fill="none" stroke="#4f46e5" stroke-width="1.1" d="M1915.12,-259C1915.12,-259 1742.02,-259 1742.02,-259"/>
<polygon fill="#4f46e5" stroke="#4f46e5" stroke-width="1.1" points="1742.02,-256.2 1734.02,-259 1742.02,-261.8 1742.02,-256.2"/>
<text text-anchor="middle" x="1800.5" y="-287.8" font-family="Helvetica,sans-Serif" font-size="9.00" fill="#4f46e5">11. IPC resolve</text>
</g>
<!-- model -->
<g id="node6" class="node">
<title>model</title>
<path fill="#ecfdf5" stroke="#cbd5e1" stroke-width="1.1" d="M2604,-216C2604,-216 2376,-216 2376,-216 2370,-216 2364,-210 2364,-204 2364,-204 2364,-192 2364,-192 2364,-186 2370,-180 2376,-180 2376,-180 2604,-180 2604,-180 2610,-180 2616,-186 2616,-192 2616,-192 2616,-204 2616,-204 2616,-210 2610,-216 2604,-216"/>
<text text-anchor="middle" x="2490" y="-201" font-family="Helvetica,sans-Serif" font-size="10.00">products.repo.ts</text>
<text text-anchor="middle" x="2490" y="-190" font-family="Helvetica,sans-Serif" font-size="10.00">listPosProductsRepo / getProductByBarcodeRepo</text>
</g>
<!-- ipc&#45;&gt;model -->
<g id="edge5" class="edge">
<title>ipc&#45;&gt;model</title>
<path fill="none" stroke="#7c3aed" stroke-width="1.1" d="M1984,-234.98C1984,-221.48 1984,-205.33 1984,-205.33 1984,-205.33 2355.95,-205.33 2355.95,-205.33"/>
<polygon fill="#7c3aed" stroke="#7c3aed" stroke-width="1.1" points="2355.95,-208.13 2363.95,-205.33 2355.95,-202.53 2355.95,-208.13"/>
<text text-anchor="middle" x="2266" y="-283.8" font-family="Helvetica,sans-Serif" font-size="9.00" fill="#7c3aed">5. valida permiso pos:sell</text>
</g>
<!-- model&#45;&gt;ipc -->
<g id="edge10" class="edge">
<title>model&#45;&gt;ipc</title>
<path fill="none" stroke="#059669" stroke-width="1.1" d="M2363.9,-210.67C2234.51,-210.67 2052,-210.67 2052,-210.67 2052,-210.67 2052,-226.8 2052,-226.8"/>
<polygon fill="#059669" stroke="#059669" stroke-width="1.1" points="2049.2,-226.8 2052,-234.8 2054.8,-226.8 2049.2,-226.8"/>
<text text-anchor="middle" x="2266" y="-228.8" font-family="Helvetica,sans-Serif" font-size="9.00" fill="#059669">10. respuesta</text>
</g>
<!-- dao -->
<g id="node7" class="node">
<title>dao</title>
<path fill="#fef3c7" stroke="#cbd5e1" stroke-width="1.1" d="M2156,-106C2156,-106 1879,-106 1879,-106 1873,-106 1867,-100 1867,-94 1867,-94 1867,-82 1867,-82 1867,-76 1873,-70 1879,-70 1879,-70 2156,-70 2156,-70 2162,-70 2168,-76 2168,-82 2168,-82 2168,-94 2168,-94 2168,-100 2162,-106 2156,-106"/>
<text text-anchor="middle" x="2017.5" y="-91" font-family="Helvetica,sans-Serif" font-size="10.00">sqlite_listPosProducts / mysql_listPosProducts</text>
<text text-anchor="middle" x="2017.5" y="-80" font-family="Helvetica,sans-Serif" font-size="10.00">sqlite_getProductByBarcode / mysql_getProductByBarcode</text>
</g>
<!-- model&#45;&gt;dao -->
<g id="edge6" class="edge">
<title>model&#45;&gt;dao</title>
<path fill="none" stroke="#059669" stroke-width="1.1" d="M2363.7,-195.33C2262.03,-195.33 2136,-195.33 2136,-195.33 2136,-195.33 2136,-114.21 2136,-114.21"/>
<polygon fill="#059669" stroke="#059669" stroke-width="1.1" points="2138.8,-114.21 2136,-106.21 2133.2,-114.21 2138.8,-114.21"/>
<text text-anchor="middle" x="2266" y="-173.8" font-family="Helvetica,sans-Serif" font-size="9.00" fill="#059669">6. repo selecciona backend</text>
</g>
<!-- dao&#45;&gt;model -->
<g id="edge9" class="edge">
<title>dao&#45;&gt;model</title>
<path fill="none" stroke="#059669" stroke-width="1.1" d="M2152,-106.35C2152,-135.89 2152,-190.67 2152,-190.67 2152,-190.67 2355.66,-190.67 2355.66,-190.67"/>
<polygon fill="#059669" stroke="#059669" stroke-width="1.1" points="2355.66,-193.47 2363.66,-190.67 2355.66,-187.87 2355.66,-193.47"/>
<text text-anchor="middle" x="2266" y="-118.8" font-family="Helvetica,sans-Serif" font-size="9.00" fill="#059669">9. retorno repo</text>
</g>
<!-- data -->
<g id="node8" class="node">
<title>data</title>
<path fill="#f3f4f6" stroke="#cbd5e1" stroke-width="1.1" d="M2539.5,-52C2539.5,-52 2440.5,-52 2440.5,-52 2434.5,-52 2428.5,-46 2428.5,-40 2428.5,-40 2428.5,-28 2428.5,-28 2428.5,-22 2434.5,-16 2440.5,-16 2440.5,-16 2539.5,-16 2539.5,-16 2545.5,-16 2551.5,-22 2551.5,-28 2551.5,-28 2551.5,-40 2551.5,-40 2551.5,-46 2545.5,-52 2539.5,-52"/>
<text text-anchor="middle" x="2490" y="-37" font-family="Helvetica,sans-Serif" font-size="10.00">Tabla products</text>
<text text-anchor="middle" x="2490" y="-26" font-family="Helvetica,sans-Serif" font-size="10.00">status ACTIVE + stock</text>
</g>
<!-- dao&#45;&gt;data -->
<g id="edge7" class="edge">
<title>dao&#45;&gt;data</title>
<path fill="none" stroke="#d97706" stroke-width="1.1" d="M2168.18,-82C2299.81,-82 2470,-82 2470,-82 2470,-82 2470,-60.15 2470,-60.15"/>
<polygon fill="#d97706" stroke="#d97706" stroke-width="1.1" points="2472.8,-60.15 2470,-52.15 2467.2,-60.15 2472.8,-60.15"/>
<text text-anchor="middle" x="2266" y="-63.8" font-family="Helvetica,sans-Serif" font-size="9.00" fill="#d97706">7. SELECT productos activos</text>
</g>
<!-- data&#45;&gt;dao -->
<g id="edge8" class="edge">
<title>data&#45;&gt;dao</title>
<path fill="none" stroke="#334155" stroke-width="1.1" d="M2511,-52C2511,-69.68 2511,-94 2511,-94 2511,-94 2176.25,-94 2176.25,-94"/>
<polygon fill="#334155" stroke="#334155" stroke-width="1.1" points="2176.25,-91.2 2168.25,-94 2176.25,-96.8 2176.25,-91.2"/>
<text text-anchor="middle" x="2266" y="-8.8" font-family="Helvetica,sans-Serif" font-size="9.00" fill="#334155">8. producto(s) encontrados</text>
</g>
<!-- note1 -->
<g id="node9" class="node">
<title>note1</title>
<polygon fill="#f8fafc" stroke="#cbd5e1" stroke-width="1.1" points="606,-186 0,-186 0,-150 612,-150 612,-180 606,-186"/>
<polyline fill="none" stroke="#cbd5e1" stroke-width="1.1" points="606,-186 606,-180 "/>
<polyline fill="none" stroke="#cbd5e1" stroke-width="1.1" points="612,-180 606,-180 "/>
<text text-anchor="middle" x="306" y="-165.5" font-family="Helvetica,sans-Serif" font-size="10.00">El POS usa dos caminos: búsqueda rápida por texto para renderizar catálogo y búsqueda exacta por barcode para escáner.</text>
</g>
<!-- note1&#45;&gt;view_main -->
<g id="edge14" class="edge">
<title>note1&#45;&gt;view_main</title>
<path fill="none" stroke="#94a3b8" stroke-width="1.1" stroke-dasharray="5,2" d="M612.31,-165C740.82,-165 861,-165 861,-165 861,-165 861,-184.43 861,-199.76"/>
</g>
</g>
</svg>
