<?xml version="1.0" encoding="UTF-8" standalone="no"?>
<!DOCTYPE svg PUBLIC "-//W3C//DTD SVG 1.1//EN"
 "http://www.w3.org/Graphics/SVG/1.1/DTD/svg11.dtd">
<!-- Generated by graphviz version 2.42.4 (0)
 -->
<!-- Title: G Pages: 1 -->
<svg width="2935pt" height="357pt"
 viewBox="0.00 0.00 2935.00 357.00" xmlns="http://www.w3.org/2000/svg" xmlns:xlink="http://www.w3.org/1999/xlink">
<g id="graph0" class="graph" transform="scale(1 1) rotate(0) translate(4 353)">
<title>G</title>
<polygon fill="white" stroke="transparent" points="-4,4 -4,-353 2931,-353 2931,4 -4,4"/>
<text text-anchor="middle" x="1463.5" y="-333.8" font-family="Helvetica,sans-Serif" font-size="14.00">Realizar venta + descontar stock + generar factura PDF</text>
<g id="clust1" class="cluster">
<title>cluster_actor</title>
<path fill="white" stroke="#fdba74" d="M416.05,-238C416.05,-238 526.95,-238 526.95,-238 532.95,-238 538.95,-244 538.95,-250 538.95,-250 538.95,-301 538.95,-301 538.95,-307 532.95,-313 526.95,-313 526.95,-313 416.05,-313 416.05,-313 410.05,-313 404.05,-307 404.05,-301 404.05,-301 404.05,-250 404.05,-250 404.05,-244 410.05,-238 416.05,-238"/>
<text text-anchor="middle" x="471.5" y="-297.8" font-family="Helvetica,sans-Serif" font-size="14.00">Actor</text>
</g>
<g id="clust2" class="cluster">
<title>cluster_view</title>
<path fill="white" stroke="#60a5fa" d="M1095,-228C1095,-228 1610,-228 1610,-228 1616,-228 1622,-234 1622,-240 1622,-240 1622,-305 1622,-305 1622,-311 1616,-317 1610,-317 1610,-317 1095,-317 1095,-317 1089,-317 1083,-311 1083,-305 1083,-305 1083,-240 1083,-240 1083,-234 1089,-228 1095,-228"/>
<text text-anchor="middle" x="1352.5" y="-301.8" font-family="Helvetica,sans-Serif" font-size="14.00">Vista</text>
</g>
<g id="clust3" class="cluster">
<title>cluster_controller</title>
<path fill="white" stroke="#a78bfa" d="M1488.5,-74C1488.5,-74 2082,-74 2082,-74 2088,-74 2094,-80 2094,-86 2094,-86 2094,-206 2094,-206 2094,-212 2088,-218 2082,-218 2082,-218 1488.5,-218 1488.5,-218 1482.5,-218 1476.5,-212 1476.5,-206 1476.5,-206 1476.5,-86 1476.5,-86 1476.5,-80 1482.5,-74 1488.5,-74"/>
<text text-anchor="middle" x="1785.25" y="-202.8" font-family="Helvetica,sans-Serif" font-size="14.00">Controller</text>
</g>
<g id="clust4" class="cluster">
<title>cluster_model</title>
<path fill="white" stroke="#34d399" d="M2359.5,-91C2359.5,-91 2468.5,-91 2468.5,-91 2474.5,-91 2480.5,-97 2480.5,-103 2480.5,-103 2480.5,-306 2480.5,-306 2480.5,-312 2474.5,-318 2468.5,-318 2468.5,-318 2359.5,-318 2359.5,-318 2353.5,-318 2347.5,-312 2347.5,-306 2347.5,-306 2347.5,-103 2347.5,-103 2347.5,-97 2353.5,-91 2359.5,-91"/>
<text text-anchor="middle" x="2414" y="-302.8" font-family="Helvetica,sans-Serif" font-size="14.00">Model</text>
</g>
<g id="clust5" class="cluster">
<title>cluster_dao</title>
<path fill="white" stroke="#f59e0b" d="M2313,-8C2313,-8 2515,-8 2515,-8 2521,-8 2527,-14 2527,-20 2527,-20 2527,-71 2527,-71 2527,-77 2521,-83 2515,-83 2515,-83 2313,-83 2313,-83 2307,-83 2301,-77 2301,-71 2301,-71 2301,-20 2301,-20 2301,-14 2307,-8 2313,-8"/>
<text text-anchor="middle" x="2414" y="-67.8" font-family="Helvetica,sans-Serif" font-size="14.00">DAO</text>
</g>
<g id="clust6" class="cluster">
<title>cluster_data</title>
<path fill="white" stroke="#94a3b8" d="M2734,-63C2734,-63 2907,-63 2907,-63 2913,-63 2919,-69 2919,-75 2919,-75 2919,-202 2919,-202 2919,-208 2913,-214 2907,-214 2907,-214 2734,-214 2734,-214 2728,-214 2722,-208 2722,-202 2722,-202 2722,-75 2722,-75 2722,-69 2728,-63 2734,-63"/>
<text text-anchor="middle" x="2820.5" y="-198.8" font-family="Helvetica,sans-Serif" font-size="14.00">Datos / salida</text>
</g>
<!-- actor -->
<g id="node1" class="node">
<title>actor</title>
<ellipse fill="#fff7ed" stroke="#cbd5e1" stroke-width="1.1" cx="471.5" cy="-264" rx="59.41" ry="18"/>
<text text-anchor="middle" x="471.5" y="-261.5" font-family="Helvetica,sans-Serif" font-size="10.00">Cajero / Vendedor</text>
</g>
<!-- view_main -->
<g id="node2" class="node">
<title>view_main</title>
<path fill="#eff6ff" stroke="#cbd5e1" stroke-width="1.1" d="M1234,-272C1234,-272 1103,-272 1103,-272 1097,-272 1091,-266 1091,-260 1091,-260 1091,-248 1091,-248 1091,-242 1097,-236 1103,-236 1103,-236 1234,-236 1234,-236 1240,-236 1246,-242 1246,-248 1246,-248 1246,-260 1246,-260 1246,-266 1240,-272 1234,-272"/>
<text text-anchor="middle" x="1168.5" y="-257" font-family="Helvetica,sans-Serif" font-size="10.00">POS.tsx</text>
<text text-anchor="middle" x="1168.5" y="-246" font-family="Helvetica,sans-Serif" font-size="10.00">carrito, totales, cliente, pago</text>
</g>
<!-- actor&#45;&gt;view_main -->
<g id="edge1" class="edge">
<title>actor&#45;&gt;view_main</title>
<path fill="none" stroke="#64748b" stroke-width="1.1" d="M528.83,-259C528.83,-259 1082.9,-259 1082.9,-259"/>
<polygon fill="#64748b" stroke="#64748b" stroke-width="1.1" points="1082.9,-261.8 1090.9,-259 1082.9,-256.2 1082.9,-261.8"/>
<text text-anchor="middle" x="1017" y="-261.8" font-family="Helvetica,sans-Serif" font-size="9.00" fill="#64748b">1. confirma venta</text>
</g>
<!-- invoice_html -->
<g id="node3" class="node">
<title>invoice_html</title>
<path fill="#eff6ff" stroke="#cbd5e1" stroke-width="1.1" d="M1602,-286C1602,-286 1463,-286 1463,-286 1457,-286 1451,-280 1451,-274 1451,-274 1451,-262 1451,-262 1451,-256 1457,-250 1463,-250 1463,-250 1602,-250 1602,-250 1608,-250 1614,-256 1614,-262 1614,-262 1614,-274 1614,-274 1614,-280 1608,-286 1602,-286"/>
<text text-anchor="middle" x="1532.5" y="-271" font-family="Helvetica,sans-Serif" font-size="10.00">buildInvoiceHtml()</text>
<text text-anchor="middle" x="1532.5" y="-260" font-family="Helvetica,sans-Serif" font-size="10.00">HTML para impresión opcional</text>
</g>
<!-- view_main&#45;&gt;invoice_html -->
<g id="edge18" class="edge">
<title>view_main&#45;&gt;invoice_html</title>
<path fill="none" stroke="#64748b" stroke-width="1.1" d="M1246.14,-261C1246.14,-261 1442.87,-261 1442.87,-261"/>
<polygon fill="#64748b" stroke="#64748b" stroke-width="1.1" points="1442.87,-263.8 1450.87,-261 1442.87,-258.2 1442.87,-263.8"/>
<text text-anchor="middle" x="1348.5" y="-278.8" font-family="Helvetica,sans-Serif" font-size="9.00" fill="#64748b">18. arma HTML imprimible</text>
</g>
<!-- service -->
<g id="node4" class="node">
<title>service</title>
<path fill="#f5f3ff" stroke="#cbd5e1" stroke-width="1.1" d="M1568.5,-186C1568.5,-186 1496.5,-186 1496.5,-186 1490.5,-186 1484.5,-180 1484.5,-174 1484.5,-174 1484.5,-162 1484.5,-162 1484.5,-156 1490.5,-150 1496.5,-150 1496.5,-150 1568.5,-150 1568.5,-150 1574.5,-150 1580.5,-156 1580.5,-162 1580.5,-162 1580.5,-174 1580.5,-174 1580.5,-180 1574.5,-186 1568.5,-186"/>
<text text-anchor="middle" x="1532.5" y="-171" font-family="Helvetica,sans-Serif" font-size="10.00">services/sales.ts</text>
<text text-anchor="middle" x="1532.5" y="-160" font-family="Helvetica,sans-Serif" font-size="10.00">createSale()</text>
</g>
<!-- view_main&#45;&gt;service -->
<g id="edge2" class="edge">
<title>view_main&#45;&gt;service</title>
<path fill="none" stroke="#4f46e5" stroke-width="1.1" d="M1246.28,-240.67C1348.99,-240.67 1517,-240.67 1517,-240.67 1517,-240.67 1517,-194.34 1517,-194.34"/>
<polygon fill="#4f46e5" stroke="#4f46e5" stroke-width="1.1" points="1519.8,-194.34 1517,-186.34 1514.2,-194.34 1519.8,-194.34"/>
<text text-anchor="middle" x="1348.5" y="-223.8" font-family="Helvetica,sans-Serif" font-size="9.00" fill="#4f46e5">2. createSale(sale)</text>
</g>
<!-- service&#45;&gt;view_main -->
<g id="edge17" class="edge">
<title>service&#45;&gt;view_main</title>
<path fill="none" stroke="#4f46e5" stroke-width="1.1" d="M1549,-186.33C1549,-209.2 1549,-245.33 1549,-245.33 1549,-245.33 1254.42,-245.33 1254.42,-245.33"/>
<polygon fill="#4f46e5" stroke="#4f46e5" stroke-width="1.1" points="1254.42,-242.53 1246.42,-245.33 1254.42,-248.13 1254.42,-242.53"/>
<text text-anchor="middle" x="1348.5" y="-168.8" font-family="Helvetica,sans-Serif" font-size="9.00" fill="#4f46e5">17. POS recibe invoiceNumber</text>
</g>
<!-- preload -->
<g id="node5" class="node">
<title>preload</title>
<path fill="#f5f3ff" stroke="#cbd5e1" stroke-width="1.1" d="M1854,-163C1854,-163 1786,-163 1786,-163 1780,-163 1774,-157 1774,-151 1774,-151 1774,-139 1774,-139 1774,-133 1780,-127 1786,-127 1786,-127 1854,-127 1854,-127 1860,-127 1866,-133 1866,-139 1866,-139 1866,-151 1866,-151 1866,-157 1860,-163 1854,-163"/>
<text text-anchor="middle" x="1820" y="-148" font-family="Helvetica,sans-Serif" font-size="10.00">preload.ts</text>
<text text-anchor="middle" x="1820" y="-137" font-family="Helvetica,sans-Serif" font-size="10.00">api.sales.create</text>
</g>
<!-- service&#45;&gt;preload -->
<g id="edge3" class="edge">
<title>service&#45;&gt;preload</title>
<path fill="none" stroke="#4f46e5" stroke-width="1.1" d="M1580.62,-154.33C1580.62,-154.33 1765.63,-154.33 1765.63,-154.33"/>
<polygon fill="#4f46e5" stroke="#4f46e5" stroke-width="1.1" points="1765.63,-157.13 1773.63,-154.33 1765.63,-151.53 1765.63,-157.13"/>
<text text-anchor="middle" x="1694" y="-124.8" font-family="Helvetica,sans-Serif" font-size="9.00" fill="#4f46e5">3. api.sales.create</text>
</g>
<!-- preload&#45;&gt;service -->
<g id="edge16" class="edge">
<title>preload&#45;&gt;service</title>
<path fill="none" stroke="#4f46e5" stroke-width="1.1" d="M1773.81,-158.67C1773.81,-158.67 1588.98,-158.67 1588.98,-158.67"/>
<polygon fill="#4f46e5" stroke="#4f46e5" stroke-width="1.1" points="1588.98,-155.87 1580.98,-158.67 1588.98,-161.47 1588.98,-155.87"/>
<text text-anchor="middle" x="1694" y="-179.8" font-family="Helvetica,sans-Serif" font-size="9.00" fill="#4f46e5">16. promise resuelta</text>
</g>
<!-- ipc -->
<g id="node6" class="node">
<title>ipc</title>
<path fill="#f5f3ff" stroke="#cbd5e1" stroke-width="1.1" d="M2074,-186C2074,-186 2024,-186 2024,-186 2018,-186 2012,-180 2012,-174 2012,-174 2012,-162 2012,-162 2012,-156 2018,-150 2024,-150 2024,-150 2074,-150 2074,-150 2080,-150 2086,-156 2086,-162 2086,-162 2086,-174 2086,-174 2086,-180 2080,-186 2074,-186"/>
<text text-anchor="middle" x="2049" y="-171" font-family="Helvetica,sans-Serif" font-size="10.00">sales.ipc.ts</text>
<text text-anchor="middle" x="2049" y="-160" font-family="Helvetica,sans-Serif" font-size="10.00">sales:create</text>
</g>
<!-- preload&#45;&gt;ipc -->
<g id="edge4" class="edge">
<title>preload&#45;&gt;ipc</title>
<path fill="none" stroke="#4f46e5" stroke-width="1.1" d="M1866.07,-154.33C1866.07,-154.33 2003.7,-154.33 2003.7,-154.33"/>
<polygon fill="#4f46e5" stroke="#4f46e5" stroke-width="1.1" points="2003.7,-157.13 2011.7,-154.33 2003.7,-151.53 2003.7,-157.13"/>
<text text-anchor="middle" x="1939" y="-124.8" font-family="Helvetica,sans-Serif" font-size="9.00" fill="#4f46e5">4. sales:create</text>
</g>
<!-- ipc&#45;&gt;preload -->
<g id="edge15" class="edge">
<title>ipc&#45;&gt;preload</title>
<path fill="none" stroke="#4f46e5" stroke-width="1.1" d="M2011.95,-158.67C2011.95,-158.67 1874.08,-158.67 1874.08,-158.67"/>
<polygon fill="#4f46e5" stroke="#4f46e5" stroke-width="1.1" points="1874.08,-155.87 1866.08,-158.67 1874.08,-161.47 1874.08,-155.87"/>
<text text-anchor="middle" x="1939" y="-179.8" font-family="Helvetica,sans-Serif" font-size="9.00" fill="#4f46e5">15. respuesta IPC</text>
</g>
<!-- repo -->
<g id="node7" class="node">
<title>repo</title>
<path fill="#ecfdf5" stroke="#cbd5e1" stroke-width="1.1" d="M2451.5,-287C2451.5,-287 2376.5,-287 2376.5,-287 2370.5,-287 2364.5,-281 2364.5,-275 2364.5,-275 2364.5,-263 2364.5,-263 2364.5,-257 2370.5,-251 2376.5,-251 2376.5,-251 2451.5,-251 2451.5,-251 2457.5,-251 2463.5,-257 2463.5,-263 2463.5,-263 2463.5,-275 2463.5,-275 2463.5,-281 2457.5,-287 2451.5,-287"/>
<text text-anchor="middle" x="2414" y="-272" font-family="Helvetica,sans-Serif" font-size="10.00">sales.repo.ts</text>
<text text-anchor="middle" x="2414" y="-261" font-family="Helvetica,sans-Serif" font-size="10.00">createSaleRepo()</text>
</g>
<!-- ipc&#45;&gt;repo -->
<g id="edge5" class="edge">
<title>ipc&#45;&gt;repo</title>
<path fill="none" stroke="#059669" stroke-width="1.1" d="M2049,-186.04C2049,-217.07 2049,-277.25 2049,-277.25 2049,-277.25 2356.39,-277.25 2356.39,-277.25"/>
<polygon fill="#059669" stroke="#059669" stroke-width="1.1" points="2356.39,-280.05 2364.39,-277.25 2356.39,-274.45 2356.39,-280.05"/>
<text text-anchor="middle" x="2197.5" y="-278.8" font-family="Helvetica,sans-Serif" font-size="9.00" fill="#059669">5. createSaleRepo</text>
</g>
<!-- audit -->
<g id="node8" class="node">
<title>audit</title>
<path fill="#ecfdf5" stroke="#cbd5e1" stroke-width="1.1" d="M2443,-135C2443,-135 2385,-135 2385,-135 2379,-135 2373,-129 2373,-123 2373,-123 2373,-111 2373,-111 2373,-105 2379,-99 2385,-99 2385,-99 2443,-99 2443,-99 2449,-99 2455,-105 2455,-111 2455,-111 2455,-123 2455,-123 2455,-129 2449,-135 2443,-135"/>
<text text-anchor="middle" x="2414" y="-120" font-family="Helvetica,sans-Serif" font-size="10.00">audit.repo.ts</text>
<text text-anchor="middle" x="2414" y="-109" font-family="Helvetica,sans-Serif" font-size="10.00">SALE_CREATE</text>
</g>
<!-- ipc&#45;&gt;audit -->
<g id="edge10" class="edge">
<title>ipc&#45;&gt;audit</title>
<path fill="none" stroke="#059669" stroke-width="1.1" d="M2049,-149.93C2049,-140.54 2049,-131 2049,-131 2049,-131 2364.84,-131 2364.84,-131"/>
<polygon fill="#059669" stroke="#059669" stroke-width="1.1" points="2364.84,-133.8 2372.84,-131 2364.84,-128.2 2364.84,-133.8"/>
<text text-anchor="middle" x="2197.5" y="-83.8" font-family="Helvetica,sans-Serif" font-size="9.00" fill="#059669">10. registra SALE_CREATE</text>
</g>
<!-- pdf -->
<g id="node9" class="node">
<title>pdf</title>
<path fill="#ecfdf5" stroke="#cbd5e1" stroke-width="1.1" d="M2460.5,-211C2460.5,-211 2367.5,-211 2367.5,-211 2361.5,-211 2355.5,-205 2355.5,-199 2355.5,-199 2355.5,-187 2355.5,-187 2355.5,-181 2361.5,-175 2367.5,-175 2367.5,-175 2460.5,-175 2460.5,-175 2466.5,-175 2472.5,-181 2472.5,-187 2472.5,-187 2472.5,-199 2472.5,-199 2472.5,-205 2466.5,-211 2460.5,-211"/>
<text text-anchor="middle" x="2414" y="-196" font-family="Helvetica,sans-Serif" font-size="10.00">invoicePdf.ts</text>
<text text-anchor="middle" x="2414" y="-185" font-family="Helvetica,sans-Serif" font-size="10.00">generateInvoicePdf()</text>
</g>
<!-- ipc&#45;&gt;pdf -->
<g id="edge12" class="edge">
<title>ipc&#45;&gt;pdf</title>
<path fill="none" stroke="#059669" stroke-width="1.1" d="M2086.01,-178.67C2086.01,-178.67 2347.32,-178.67 2347.32,-178.67"/>
<polygon fill="#059669" stroke="#059669" stroke-width="1.1" points="2347.32,-181.47 2355.32,-178.67 2347.32,-175.87 2347.32,-181.47"/>
<text text-anchor="middle" x="2197.5" y="-223.8" font-family="Helvetica,sans-Serif" font-size="9.00" fill="#059669">12. genera PDF real de factura</text>
</g>
<!-- dao -->
<g id="node10" class="node">
<title>dao</title>
<path fill="#fef3c7" stroke="#cbd5e1" stroke-width="1.1" d="M2507,-52C2507,-52 2321,-52 2321,-52 2315,-52 2309,-46 2309,-40 2309,-40 2309,-28 2309,-28 2309,-22 2315,-16 2321,-16 2321,-16 2507,-16 2507,-16 2513,-16 2519,-22 2519,-28 2519,-28 2519,-40 2519,-40 2519,-46 2513,-52 2507,-52"/>
<text text-anchor="middle" x="2414" y="-37" font-family="Helvetica,sans-Serif" font-size="10.00">createSale (SQLite) / createSaleMySql</text>
<text text-anchor="middle" x="2414" y="-26" font-family="Helvetica,sans-Serif" font-size="10.00">transacción: sales + sale_items + stock</text>
</g>
<!-- repo&#45;&gt;dao -->
<g id="edge6" class="edge">
<title>repo&#45;&gt;dao</title>
<path fill="none" stroke="#059669" stroke-width="1.1" d="M2364.3,-268.5C2343.91,-268.5 2325,-268.5 2325,-268.5 2325,-268.5 2325,-60.01 2325,-60.01"/>
<polygon fill="#059669" stroke="#059669" stroke-width="1.1" points="2327.8,-60.01 2325,-52.01 2322.2,-60.01 2327.8,-60.01"/>
<text text-anchor="middle" x="2197.5" y="-98.8" font-family="Helvetica,sans-Serif" font-size="9.00" fill="#059669">6. transacción venta</text>
</g>
<!-- data -->
<g id="node11" class="node">
<title>data</title>
<path fill="#f3f4f6" stroke="#cbd5e1" stroke-width="1.1" d="M2899,-107C2899,-107 2742,-107 2742,-107 2736,-107 2730,-101 2730,-95 2730,-95 2730,-83 2730,-83 2730,-77 2736,-71 2742,-71 2742,-71 2899,-71 2899,-71 2905,-71 2911,-77 2911,-83 2911,-83 2911,-95 2911,-95 2911,-101 2905,-107 2899,-107"/>
<text text-anchor="middle" x="2820.5" y="-92" font-family="Helvetica,sans-Serif" font-size="10.00">Tablas sales, sale_items, products</text>
<text text-anchor="middle" x="2820.5" y="-81" font-family="Helvetica,sans-Serif" font-size="10.00">+ audit_logs</text>
</g>
<!-- audit&#45;&gt;data -->
<g id="edge11" class="edge">
<title>audit&#45;&gt;data</title>
<path fill="none" stroke="#334155" stroke-width="1.1" d="M2455.21,-103C2455.21,-103 2721.75,-103 2721.75,-103"/>
<polygon fill="#334155" stroke="#334155" stroke-width="1.1" points="2721.75,-105.8 2729.75,-103 2721.75,-100.2 2721.75,-105.8"/>
<text text-anchor="middle" x="2624.5" y="-124.8" font-family="Helvetica,sans-Serif" font-size="9.00" fill="#334155">11. inserta audit_logs</text>
</g>
<!-- pdf&#45;&gt;ipc -->
<g id="edge14" class="edge">
<title>pdf&#45;&gt;ipc</title>
<path fill="none" stroke="#059669" stroke-width="1.1" d="M2355.36,-182.33C2355.36,-182.33 2094.07,-182.33 2094.07,-182.33"/>
<polygon fill="#059669" stroke="#059669" stroke-width="1.1" points="2094.07,-179.53 2086.07,-182.33 2094.07,-185.13 2094.07,-179.53"/>
<text text-anchor="middle" x="2197.5" y="-168.8" font-family="Helvetica,sans-Serif" font-size="9.00" fill="#059669">14. devuelve ruta del PDF</text>
</g>
<!-- file -->
<g id="node12" class="node">
<title>file</title>
<path fill="#f3f4f6" stroke="#cbd5e1" stroke-width="1.1" d="M2876,-183C2876,-183 2765,-183 2765,-183 2759,-183 2753,-177 2753,-171 2753,-171 2753,-159 2753,-159 2753,-153 2759,-147 2765,-147 2765,-147 2876,-147 2876,-147 2882,-147 2888,-153 2888,-159 2888,-159 2888,-171 2888,-171 2888,-177 2882,-183 2876,-183"/>
<text text-anchor="middle" x="2820.5" y="-162.5" font-family="Helvetica,sans-Serif" font-size="10.00">Archivo PDF en invoices/</text>
</g>
<!-- pdf&#45;&gt;file -->
<g id="edge13" class="edge">
<title>pdf&#45;&gt;file</title>
<path fill="none" stroke="#334155" stroke-width="1.1" d="M2472.67,-179C2472.67,-179 2744.69,-179 2744.69,-179"/>
<polygon fill="#334155" stroke="#334155" stroke-width="1.1" points="2744.69,-181.8 2752.69,-179 2744.69,-176.2 2744.69,-181.8"/>
<text text-anchor="middle" x="2624.5" y="-189.8" font-family="Helvetica,sans-Serif" font-size="9.00" fill="#334155">13. guarda ST&#45;YYYY&#45;XXXXXX.pdf</text>
</g>
<!-- dao&#45;&gt;repo -->
<g id="edge9" class="edge">
<title>dao&#45;&gt;repo</title>
<path fill="none" stroke="#059669" stroke-width="1.1" d="M2340,-52.09C2340,-105.66 2340,-259.75 2340,-259.75 2340,-259.75 2356.23,-259.75 2356.23,-259.75"/>
<polygon fill="#059669" stroke="#059669" stroke-width="1.1" points="2356.23,-262.55 2364.23,-259.75 2356.23,-256.95 2356.23,-262.55"/>
<text text-anchor="middle" x="2197.5" y="-113.8" font-family="Helvetica,sans-Serif" font-size="9.00" fill="#059669">9. retorna saleId + invoiceNumber</text>
</g>
<!-- dao&#45;&gt;data -->
<g id="edge7" class="edge">
<title>dao&#45;&gt;data</title>
<path fill="none" stroke="#d97706" stroke-width="1.1" d="M2488,-52.23C2488,-68.46 2488,-89.67 2488,-89.67 2488,-89.67 2721.64,-89.67 2721.64,-89.67"/>
<polygon fill="#d97706" stroke="#d97706" stroke-width="1.1" points="2721.64,-92.47 2729.64,-89.67 2721.64,-86.87 2721.64,-92.47"/>
<text text-anchor="middle" x="2624.5" y="-14.8" font-family="Helvetica,sans-Serif" font-size="9.00" fill="#d97706">7. INSERT sales / sale_items</text>
<text text-anchor="middle" x="2624.5" y="-4.8" font-family="Helvetica,sans-Serif" font-size="9.00" fill="#d97706">UPDATE products.stock</text>
</g>
<!-- data&#45;&gt;dao -->
<g id="edge8" class="edge">
<title>data&#45;&gt;dao</title>
<path fill="none" stroke="#334155" stroke-width="1.1" d="M2729.8,-80.33C2636.28,-80.33 2504,-80.33 2504,-80.33 2504,-80.33 2504,-60.05 2504,-60.05"/>
<polygon fill="#334155" stroke="#334155" stroke-width="1.1" points="2506.8,-60.05 2504,-52.05 2501.2,-60.05 2506.8,-60.05"/>
<text text-anchor="middle" x="2624.5" y="-69.8" font-family="Helvetica,sans-Serif" font-size="9.00" fill="#334155">8. commit OK + invoiceNumber</text>
</g>
<!-- note1 -->
<g id="node13" class="node">
<title>note1</title>
<polygon fill="#f8fafc" stroke="#cbd5e1" stroke-width="1.1" points="937,-206 0,-206 0,-170 943,-170 943,-200 937,-206"/>
<polyline fill="none" stroke="#cbd5e1" stroke-width="1.1" points="937,-206 937,-200 "/>
<polyline fill="none" stroke="#cbd5e1" stroke-width="1.1" points="943,-200 937,-200 "/>
<text text-anchor="middle" x="471.5" y="-185.5" font-family="Helvetica,sans-Serif" font-size="10.00">Aquí hay dos representaciones de la factura: 1) un PDF que el proceso main genera con PDFKit y guarda en disco; 2) un HTML que el renderer arma para imprimir si el usuario decide hacerlo.</text>
</g>
<!-- note1&#45;&gt;view_main -->
<g id="edge19" class="edge">
<title>note1&#45;&gt;view_main</title>
<path fill="none" stroke="#94a3b8" stroke-width="1.1" stroke-dasharray="5,2" d="M943.02,-196C1068.08,-196 1169,-196 1169,-196 1169,-196 1169,-218.94 1169,-235.97"/>
</g>
</g>
</svg>
