<?xml version="1.0" encoding="UTF-8" standalone="no"?>
<!DOCTYPE svg PUBLIC "-//W3C//DTD SVG 1.1//EN"
 "http://www.w3.org/Graphics/SVG/1.1/DTD/svg11.dtd">
<!-- Generated by graphviz version 2.42.4 (0)
 -->
<!-- Title: G Pages: 1 -->
<svg width="3139pt" height="234pt"
 viewBox="0.00 0.00 3139.00 234.00" xmlns="http://www.w3.org/2000/svg" xmlns:xlink="http://www.w3.org/1999/xlink">
<g id="graph0" class="graph" transform="scale(1 1) rotate(0) translate(4 230)">
<title>G</title>
<polygon fill="white" stroke="transparent" points="-4,4 -4,-230 3135,-230 3135,4 -4,4"/>
<text text-anchor="middle" x="1565.5" y="-210.8" font-family="Helvetica,sans-Serif" font-size="14.00">Imprimir factura y abrir cajón monetario</text>
<g id="clust1" class="cluster">
<title>cluster_actor</title>
<path fill="white" stroke="#fdba74" d="M311.92,-68C311.92,-68 358.08,-68 358.08,-68 364.08,-68 370.08,-74 370.08,-80 370.08,-80 370.08,-131 370.08,-131 370.08,-137 364.08,-143 358.08,-143 358.08,-143 311.92,-143 311.92,-143 305.92,-143 299.92,-137 299.92,-131 299.92,-131 299.92,-80 299.92,-80 299.92,-74 305.92,-68 311.92,-68"/>
<text text-anchor="middle" x="335" y="-127.8" font-family="Helvetica,sans-Serif" font-size="14.00">Actor</text>
</g>
<g id="clust2" class="cluster">
<title>cluster_view</title>
<path fill="white" stroke="#60a5fa" d="M880,-28C880,-28 1013,-28 1013,-28 1019,-28 1025,-34 1025,-40 1025,-40 1025,-91 1025,-91 1025,-97 1019,-103 1013,-103 1013,-103 880,-103 880,-103 874,-103 868,-97 868,-91 868,-91 868,-40 868,-40 868,-34 874,-28 880,-28"/>
<text text-anchor="middle" x="946.5" y="-87.8" font-family="Helvetica,sans-Serif" font-size="14.00">Vista</text>
</g>
<g id="clust3" class="cluster">
<title>cluster_controller</title>
<path fill="white" stroke="#a78bfa" d="M1287.5,-44C1287.5,-44 1989,-44 1989,-44 1995,-44 2001,-50 2001,-56 2001,-56 2001,-183 2001,-183 2001,-189 1995,-195 1989,-195 1989,-195 1287.5,-195 1287.5,-195 1281.5,-195 1275.5,-189 1275.5,-183 1275.5,-183 1275.5,-56 1275.5,-56 1275.5,-50 1281.5,-44 1287.5,-44"/>
<text text-anchor="middle" x="1638.25" y="-179.8" font-family="Helvetica,sans-Serif" font-size="14.00">Controller</text>
</g>
<g id="clust4" class="cluster">
<title>cluster_model</title>
<path fill="white" stroke="#34d399" d="M2222,-44C2222,-44 2427,-44 2427,-44 2433,-44 2439,-50 2439,-56 2439,-56 2439,-183 2439,-183 2439,-189 2433,-195 2427,-195 2427,-195 2222,-195 2222,-195 2216,-195 2210,-189 2210,-183 2210,-183 2210,-56 2210,-56 2210,-50 2216,-44 2222,-44"/>
<text text-anchor="middle" x="2324.5" y="-179.8" font-family="Helvetica,sans-Serif" font-size="14.00">Model</text>
</g>
<g id="clust5" class="cluster">
<title>cluster_dao</title>
<path fill="white" stroke="#f59e0b" d="M2628,-44C2628,-44 2716,-44 2716,-44 2722,-44 2728,-50 2728,-56 2728,-56 2728,-183 2728,-183 2728,-189 2722,-195 2716,-195 2716,-195 2628,-195 2628,-195 2622,-195 2616,-189 2616,-183 2616,-183 2616,-56 2616,-56 2616,-50 2622,-44 2628,-44"/>
<text text-anchor="middle" x="2672" y="-179.8" font-family="Helvetica,sans-Serif" font-size="14.00">Salida física</text>
</g>
<g id="clust6" class="cluster">
<title>cluster_data</title>
<path fill="white" stroke="#94a3b8" d="M2980,-84C2980,-84 3111,-84 3111,-84 3117,-84 3123,-90 3123,-96 3123,-96 3123,-147 3123,-147 3123,-153 3117,-159 3111,-159 3111,-159 2980,-159 2980,-159 2974,-159 2968,-153 2968,-147 2968,-147 2968,-96 2968,-96 2968,-90 2974,-84 2980,-84"/>
<text text-anchor="middle" x="3045.5" y="-143.8" font-family="Helvetica,sans-Serif" font-size="14.00">Resultado UI</text>
</g>
<!-- actor -->
<g id="node1" class="node">
<title>actor</title>
<ellipse fill="#fff7ed" stroke="#cbd5e1" stroke-width="1.1" cx="335" cy="-94" rx="27.16" ry="18"/>
<text text-anchor="middle" x="335" y="-91.5" font-family="Helvetica,sans-Serif" font-size="10.00">Cajero</text>
</g>
<!-- view_main -->
<g id="node2" class="node">
<title>view_main</title>
<path fill="#eff6ff" stroke="#cbd5e1" stroke-width="1.1" d="M1005,-72C1005,-72 888,-72 888,-72 882,-72 876,-66 876,-60 876,-60 876,-48 876,-48 876,-42 882,-36 888,-36 888,-36 1005,-36 1005,-36 1011,-36 1017,-42 1017,-48 1017,-48 1017,-60 1017,-60 1017,-66 1011,-72 1005,-72"/>
<text text-anchor="middle" x="946.5" y="-57" font-family="Helvetica,sans-Serif" font-size="10.00">POS.tsx</text>
<text text-anchor="middle" x="946.5" y="-46" font-family="Helvetica,sans-Serif" font-size="10.00">Modal: ¿Imprimir factura?</text>
</g>
<!-- actor&#45;&gt;view_main -->
<g id="edge1" class="edge">
<title>actor&#45;&gt;view_main</title>
<path fill="none" stroke="#64748b" stroke-width="1.1" d="M335,-75.87C335,-65.29 335,-54 335,-54 335,-54 867.76,-54 867.76,-54"/>
<polygon fill="#64748b" stroke="#64748b" stroke-width="1.1" points="867.76,-56.8 875.76,-54 867.76,-51.2 867.76,-56.8"/>
<text text-anchor="middle" x="773" y="-91.8" font-family="Helvetica,sans-Serif" font-size="9.00" fill="#64748b">1. elige Imprimir o No imprimir</text>
</g>
<!-- service -->
<g id="node3" class="node">
<title>service</title>
<path fill="#f5f3ff" stroke="#cbd5e1" stroke-width="1.1" d="M1367.5,-125C1367.5,-125 1295.5,-125 1295.5,-125 1289.5,-125 1283.5,-119 1283.5,-113 1283.5,-113 1283.5,-101 1283.5,-101 1283.5,-95 1289.5,-89 1295.5,-89 1295.5,-89 1367.5,-89 1367.5,-89 1373.5,-89 1379.5,-95 1379.5,-101 1379.5,-101 1379.5,-113 1379.5,-113 1379.5,-119 1373.5,-125 1367.5,-125"/>
<text text-anchor="middle" x="1331.5" y="-110" font-family="Helvetica,sans-Serif" font-size="10.00">services/sales.ts</text>
<text text-anchor="middle" x="1331.5" y="-99" font-family="Helvetica,sans-Serif" font-size="10.00">printInvoice()</text>
</g>
<!-- view_main&#45;&gt;service -->
<g id="edge2" class="edge">
<title>view_main&#45;&gt;service</title>
<path fill="none" stroke="#4f46e5" stroke-width="1.1" d="M1017.21,-65C1128.5,-65 1332,-65 1332,-65 1332,-65 1332,-80.94 1332,-80.94"/>
<polygon fill="#4f46e5" stroke="#4f46e5" stroke-width="1.1" points="1329.2,-80.94 1332,-88.94 1334.8,-80.94 1329.2,-80.94"/>
<text text-anchor="middle" x="1122.5" y="-108.8" font-family="Helvetica,sans-Serif" font-size="9.00" fill="#4f46e5">2. printInvoice(html) si imprime</text>
</g>
<!-- preload -->
<g id="node4" class="node">
<title>preload</title>
<path fill="#f5f3ff" stroke="#cbd5e1" stroke-width="1.1" d="M1716,-112.5C1716,-112.5 1621,-112.5 1621,-112.5 1615,-112.5 1609,-106.5 1609,-100.5 1609,-100.5 1609,-83.5 1609,-83.5 1609,-77.5 1615,-71.5 1621,-71.5 1621,-71.5 1716,-71.5 1716,-71.5 1722,-71.5 1728,-77.5 1728,-83.5 1728,-83.5 1728,-100.5 1728,-100.5 1728,-106.5 1722,-112.5 1716,-112.5"/>
<text text-anchor="middle" x="1668.5" y="-100.5" font-family="Helvetica,sans-Serif" font-size="10.00">preload.ts</text>
<text text-anchor="middle" x="1668.5" y="-89.5" font-family="Helvetica,sans-Serif" font-size="10.00">api.sales.printInvoice</text>
<text text-anchor="middle" x="1668.5" y="-78.5" font-family="Helvetica,sans-Serif" font-size="10.00">api.cashdrawer.open</text>
</g>
<!-- view_main&#45;&gt;preload -->
<g id="edge8" class="edge">
<title>view_main&#45;&gt;preload</title>
<path fill="none" stroke="#4f46e5" stroke-width="1.1" d="M1017.09,-58.5C1198.89,-58.5 1669,-58.5 1669,-58.5 1669,-58.5 1669,-63.36 1669,-63.36"/>
<polygon fill="#4f46e5" stroke="#4f46e5" stroke-width="1.1" points="1666.2,-63.36 1669,-71.36 1671.8,-63.36 1666.2,-63.36"/>
<text text-anchor="middle" x="1331.5" y="-41.8" font-family="Helvetica,sans-Serif" font-size="9.00" fill="#4f46e5">8. si pago EFECTIVO =&gt; api.cashdrawer.open</text>
</g>
<!-- service&#45;&gt;preload -->
<g id="edge3" class="edge">
<title>service&#45;&gt;preload</title>
<path fill="none" stroke="#4f46e5" stroke-width="1.1" d="M1379.78,-100.75C1379.78,-100.75 1600.94,-100.75 1600.94,-100.75"/>
<polygon fill="#4f46e5" stroke="#4f46e5" stroke-width="1.1" points="1600.94,-103.55 1608.94,-100.75 1600.94,-97.95 1600.94,-103.55"/>
<text text-anchor="middle" x="1522" y="-108.8" font-family="Helvetica,sans-Serif" font-size="9.00" fill="#4f46e5">3. api.sales.printInvoice</text>
</g>
<!-- ipc_sales -->
<g id="node5" class="node">
<title>ipc_sales</title>
<path fill="#f5f3ff" stroke="#cbd5e1" stroke-width="1.1" d="M1981,-164C1981,-164 1900,-164 1900,-164 1894,-164 1888,-158 1888,-152 1888,-152 1888,-140 1888,-140 1888,-134 1894,-128 1900,-128 1900,-128 1981,-128 1981,-128 1987,-128 1993,-134 1993,-140 1993,-140 1993,-152 1993,-152 1993,-158 1987,-164 1981,-164"/>
<text text-anchor="middle" x="1940.5" y="-149" font-family="Helvetica,sans-Serif" font-size="10.00">sales.ipc.ts</text>
<text text-anchor="middle" x="1940.5" y="-138" font-family="Helvetica,sans-Serif" font-size="10.00">sales:print&#45;invoice</text>
</g>
<!-- preload&#45;&gt;ipc_sales -->
<g id="edge4" class="edge">
<title>preload&#45;&gt;ipc_sales</title>
<path fill="none" stroke="#4f46e5" stroke-width="1.1" d="M1728.3,-105.67C1808.52,-105.67 1941,-105.67 1941,-105.67 1941,-105.67 1941,-119.72 1941,-119.72"/>
<polygon fill="#4f46e5" stroke="#4f46e5" stroke-width="1.1" points="1938.2,-119.72 1941,-127.72 1943.8,-119.72 1938.2,-119.72"/>
<text text-anchor="middle" x="1808" y="-149.8" font-family="Helvetica,sans-Serif" font-size="9.00" fill="#4f46e5">4. sales:print&#45;invoice</text>
</g>
<!-- ipc_drawer -->
<g id="node6" class="node">
<title>ipc_drawer</title>
<path fill="#f5f3ff" stroke="#cbd5e1" stroke-width="1.1" d="M1978,-88C1978,-88 1903,-88 1903,-88 1897,-88 1891,-82 1891,-76 1891,-76 1891,-64 1891,-64 1891,-58 1897,-52 1903,-52 1903,-52 1978,-52 1978,-52 1984,-52 1990,-58 1990,-64 1990,-64 1990,-76 1990,-76 1990,-82 1984,-88 1978,-88"/>
<text text-anchor="middle" x="1940.5" y="-73" font-family="Helvetica,sans-Serif" font-size="10.00">cashdrawer.ipc.ts</text>
<text text-anchor="middle" x="1940.5" y="-62" font-family="Helvetica,sans-Serif" font-size="10.00">cashdrawer:open</text>
</g>
<!-- preload&#45;&gt;ipc_drawer -->
<g id="edge9" class="edge">
<title>preload&#45;&gt;ipc_drawer</title>
<path fill="none" stroke="#4f46e5" stroke-width="1.1" d="M1728.19,-79.75C1728.19,-79.75 1882.96,-79.75 1882.96,-79.75"/>
<polygon fill="#4f46e5" stroke="#4f46e5" stroke-width="1.1" points="1882.96,-82.55 1890.96,-79.75 1882.96,-76.95 1882.96,-82.55"/>
<text text-anchor="middle" x="1808" y="-94.8" font-family="Helvetica,sans-Serif" font-size="9.00" fill="#4f46e5">9. cashdrawer:open</text>
</g>
<!-- print -->
<g id="node7" class="node">
<title>print</title>
<path fill="#ecfdf5" stroke="#cbd5e1" stroke-width="1.1" d="M2419,-164C2419,-164 2230,-164 2230,-164 2224,-164 2218,-158 2218,-152 2218,-152 2218,-140 2218,-140 2218,-134 2224,-128 2230,-128 2230,-128 2419,-128 2419,-128 2425,-128 2431,-134 2431,-140 2431,-140 2431,-152 2431,-152 2431,-158 2425,-164 2419,-164"/>
<text text-anchor="middle" x="2324.5" y="-149" font-family="Helvetica,sans-Serif" font-size="10.00">BrowserWindow.loadURL(data:text/html)</text>
<text text-anchor="middle" x="2324.5" y="-138" font-family="Helvetica,sans-Serif" font-size="10.00">webContents.print()</text>
</g>
<!-- ipc_sales&#45;&gt;print -->
<g id="edge5" class="edge">
<title>ipc_sales&#45;&gt;print</title>
<path fill="none" stroke="#059669" stroke-width="1.1" d="M1993.09,-146C1993.09,-146 2209.85,-146 2209.85,-146"/>
<polygon fill="#059669" stroke="#059669" stroke-width="1.1" points="2209.85,-148.8 2217.85,-146 2209.85,-143.2 2209.85,-148.8"/>
<text text-anchor="middle" x="2105.5" y="-148.8" font-family="Helvetica,sans-Serif" font-size="9.00" fill="#059669">5. BrowserWindow.print</text>
</g>
<!-- drawer -->
<g id="node8" class="node">
<title>drawer</title>
<path fill="#ecfdf5" stroke="#cbd5e1" stroke-width="1.1" d="M2377.5,-88C2377.5,-88 2271.5,-88 2271.5,-88 2265.5,-88 2259.5,-82 2259.5,-76 2259.5,-76 2259.5,-64 2259.5,-64 2259.5,-58 2265.5,-52 2271.5,-52 2271.5,-52 2377.5,-52 2377.5,-52 2383.5,-52 2389.5,-58 2389.5,-64 2389.5,-64 2389.5,-76 2389.5,-76 2389.5,-82 2383.5,-88 2377.5,-88"/>
<text text-anchor="middle" x="2324.5" y="-73" font-family="Helvetica,sans-Serif" font-size="10.00">Cash drawer command</text>
<text text-anchor="middle" x="2324.5" y="-62" font-family="Helvetica,sans-Serif" font-size="10.00">serial o printer ESC/POS</text>
</g>
<!-- ipc_drawer&#45;&gt;drawer -->
<g id="edge10" class="edge">
<title>ipc_drawer&#45;&gt;drawer</title>
<path fill="none" stroke="#059669" stroke-width="1.1" d="M1990.31,-70C1990.31,-70 2251.38,-70 2251.38,-70"/>
<polygon fill="#059669" stroke="#059669" stroke-width="1.1" points="2251.38,-72.8 2259.38,-70 2251.38,-67.2 2251.38,-72.8"/>
<text text-anchor="middle" x="2105.5" y="-72.8" font-family="Helvetica,sans-Serif" font-size="9.00" fill="#059669">10. prepara comando serial/printer</text>
</g>
<!-- printer -->
<g id="node9" class="node">
<title>printer</title>
<path fill="#fef3c7" stroke="#cbd5e1" stroke-width="1.1" d="M2692,-164C2692,-164 2652,-164 2652,-164 2646,-164 2640,-158 2640,-152 2640,-152 2640,-140 2640,-140 2640,-134 2646,-128 2652,-128 2652,-128 2692,-128 2692,-128 2698,-128 2704,-134 2704,-140 2704,-140 2704,-152 2704,-152 2704,-158 2698,-164 2692,-164"/>
<text text-anchor="middle" x="2672" y="-143.5" font-family="Helvetica,sans-Serif" font-size="10.00">Impresora</text>
</g>
<!-- print&#45;&gt;printer -->
<g id="edge6" class="edge">
<title>print&#45;&gt;printer</title>
<path fill="none" stroke="#d97706" stroke-width="1.1" d="M2431.12,-146C2431.12,-146 2631.91,-146 2631.91,-146"/>
<polygon fill="#d97706" stroke="#d97706" stroke-width="1.1" points="2631.91,-148.8 2639.91,-146 2631.91,-143.2 2631.91,-148.8"/>
<text text-anchor="middle" x="2527.5" y="-148.8" font-family="Helvetica,sans-Serif" font-size="9.00" fill="#d97706">6. envía trabajo a impresora</text>
</g>
<!-- cashbox -->
<g id="node10" class="node">
<title>cashbox</title>
<path fill="#fef3c7" stroke="#cbd5e1" stroke-width="1.1" d="M2708,-88C2708,-88 2636,-88 2636,-88 2630,-88 2624,-82 2624,-76 2624,-76 2624,-64 2624,-64 2624,-58 2630,-52 2636,-52 2636,-52 2708,-52 2708,-52 2714,-52 2720,-58 2720,-64 2720,-64 2720,-76 2720,-76 2720,-82 2714,-88 2708,-88"/>
<text text-anchor="middle" x="2672" y="-67.5" font-family="Helvetica,sans-Serif" font-size="10.00">Cajón monetario</text>
</g>
<!-- drawer&#45;&gt;cashbox -->
<g id="edge11" class="edge">
<title>drawer&#45;&gt;cashbox</title>
<path fill="none" stroke="#d97706" stroke-width="1.1" d="M2389.86,-70C2389.86,-70 2615.97,-70 2615.97,-70"/>
<polygon fill="#d97706" stroke="#d97706" stroke-width="1.1" points="2615.97,-72.8 2623.97,-70 2615.97,-67.2 2615.97,-72.8"/>
<text text-anchor="middle" x="2527.5" y="-72.8" font-family="Helvetica,sans-Serif" font-size="9.00" fill="#d97706">11. abre cajón físico</text>
</g>
<!-- msg -->
<g id="node11" class="node">
<title>msg</title>
<path fill="#f3f4f6" stroke="#cbd5e1" stroke-width="1.1" d="M3103,-128C3103,-128 2988,-128 2988,-128 2982,-128 2976,-122 2976,-116 2976,-116 2976,-104 2976,-104 2976,-98 2982,-92 2988,-92 2988,-92 3103,-92 3103,-92 3109,-92 3115,-98 3115,-104 3115,-104 3115,-116 3115,-116 3115,-122 3109,-128 3103,-128"/>
<text text-anchor="middle" x="3045.5" y="-113" font-family="Helvetica,sans-Serif" font-size="10.00">Mensaje final</text>
<text text-anchor="middle" x="3045.5" y="-102" font-family="Helvetica,sans-Serif" font-size="10.00">Venta realizada / impresa</text>
</g>
<!-- printer&#45;&gt;msg -->
<g id="edge7" class="edge">
<title>printer&#45;&gt;msg</title>
<path fill="none" stroke="#334155" stroke-width="1.1" d="M2672,-127.98C2672,-122.91 2672,-118.75 2672,-118.75 2672,-118.75 2967.69,-118.75 2967.69,-118.75"/>
<polygon fill="#334155" stroke="#334155" stroke-width="1.1" points="2967.69,-121.55 2975.69,-118.75 2967.69,-115.95 2967.69,-121.55"/>
<text text-anchor="middle" x="2848" y="-142.8" font-family="Helvetica,sans-Serif" font-size="9.00" fill="#334155">7. impresión OK</text>
</g>
<!-- cashbox&#45;&gt;msg -->
<g id="edge12" class="edge">
<title>cashbox&#45;&gt;msg</title>
<path fill="none" stroke="#334155" stroke-width="1.1" d="M2712,-88.1C2712,-93.89 2712,-98.83 2712,-98.83 2712,-98.83 2967.99,-98.83 2967.99,-98.83"/>
<polygon fill="#334155" stroke="#334155" stroke-width="1.1" points="2967.99,-101.63 2975.99,-98.83 2967.99,-96.03 2967.99,-101.63"/>
<text text-anchor="middle" x="2848" y="-82.8" font-family="Helvetica,sans-Serif" font-size="9.00" fill="#334155">12. POS actualiza mensaje y limpia carrito</text>
</g>
<!-- note1 -->
<g id="node12" class="node">
<title>note1</title>
<polygon fill="#f8fafc" stroke="#cbd5e1" stroke-width="1.1" points="664,-36 0,-36 0,0 670,0 670,-30 664,-36"/>
<polyline fill="none" stroke="#cbd5e1" stroke-width="1.1" points="664,-36 664,-30 "/>
<polyline fill="none" stroke="#cbd5e1" stroke-width="1.1" points="670,-30 664,-30 "/>
<text text-anchor="middle" x="335" y="-15.5" font-family="Helvetica,sans-Serif" font-size="10.00">La impresión es opcional. Si el pago es en efectivo, el POS además intenta abrir el cajón usando puerto serial o comando a impresora.</text>
</g>
<!-- note1&#45;&gt;view_main -->
<g id="edge13" class="edge">
<title>note1&#45;&gt;view_main</title>
<path fill="none" stroke="#94a3b8" stroke-width="1.1" stroke-dasharray="5,2" d="M670.1,-18C812.81,-18 947,-18 947,-18 947,-18 947,-26.72 947,-35.58"/>
</g>
</g>
</svg>
