<?xml version="1.0" encoding="UTF-8" standalone="no"?>
<!DOCTYPE svg PUBLIC "-//W3C//DTD SVG 1.1//EN"
 "http://www.w3.org/Graphics/SVG/1.1/DTD/svg11.dtd">
<!-- Generated by graphviz version 2.42.4 (0)
 -->
<!-- Title: G Pages: 1 -->
<svg width="2504pt" height="362pt"
 viewBox="0.00 0.00 2504.00 362.00" xmlns="http://www.w3.org/2000/svg" xmlns:xlink="http://www.w3.org/1999/xlink">
<g id="graph0" class="graph" transform="scale(1 1) rotate(0) translate(4 358)">
<title>G</title>
<polygon fill="white" stroke="transparent" points="-4,4 -4,-358 2500,-358 2500,4 -4,4"/>
<text text-anchor="middle" x="1248" y="-338.8" font-family="Helvetica,sans-Serif" font-size="14.00">Suspender venta, reanudar venta y devolver venta</text>
<g id="clust1" class="cluster">
<title>cluster_actor</title>
<path fill="white" stroke="#fdba74" d="M238.42,-165C238.42,-165 284.58,-165 284.58,-165 290.58,-165 296.58,-171 296.58,-177 296.58,-177 296.58,-228 296.58,-228 296.58,-234 290.58,-240 284.58,-240 284.58,-240 238.42,-240 238.42,-240 232.42,-240 226.42,-234 226.42,-228 226.42,-228 226.42,-177 226.42,-177 226.42,-171 232.42,-165 238.42,-165"/>
<text text-anchor="middle" x="261.5" y="-224.8" font-family="Helvetica,sans-Serif" font-size="14.00">Actor</text>
</g>
<g id="clust2" class="cluster">
<title>cluster_view</title>
<path fill="white" stroke="#60a5fa" d="M726,-125C726,-125 892,-125 892,-125 898,-125 904,-131 904,-137 904,-137 904,-188 904,-188 904,-194 898,-200 892,-200 892,-200 726,-200 726,-200 720,-200 714,-194 714,-188 714,-188 714,-137 714,-137 714,-131 720,-125 726,-125"/>
<text text-anchor="middle" x="809" y="-184.8" font-family="Helvetica,sans-Serif" font-size="14.00">Vista</text>
</g>
<g id="clust3" class="cluster">
<title>cluster_controller</title>
<path fill="white" stroke="#a78bfa" d="M1098,-124C1098,-124 1996.5,-124 1996.5,-124 2002.5,-124 2008.5,-130 2008.5,-136 2008.5,-136 2008.5,-311 2008.5,-311 2008.5,-317 2002.5,-323 1996.5,-323 1996.5,-323 1098,-323 1098,-323 1092,-323 1086,-317 1086,-311 1086,-311 1086,-136 1086,-136 1086,-130 1092,-124 1098,-124"/>
<text text-anchor="middle" x="1547.25" y="-307.8" font-family="Helvetica,sans-Serif" font-size="14.00">Controller</text>
</g>
<g id="clust4" class="cluster">
<title>cluster_model</title>
<path fill="white" stroke="#34d399" d="M2314.5,-238C2314.5,-238 2422.5,-238 2422.5,-238 2428.5,-238 2434.5,-244 2434.5,-250 2434.5,-250 2434.5,-301 2434.5,-301 2434.5,-307 2428.5,-313 2422.5,-313 2422.5,-313 2314.5,-313 2314.5,-313 2308.5,-313 2302.5,-307 2302.5,-301 2302.5,-301 2302.5,-250 2302.5,-250 2302.5,-244 2308.5,-238 2314.5,-238"/>
<text text-anchor="middle" x="2368.5" y="-297.8" font-family="Helvetica,sans-Serif" font-size="14.00">Model</text>
</g>
<g id="clust5" class="cluster">
<title>cluster_dao</title>
<path fill="white" stroke="#f59e0b" d="M2261,-90C2261,-90 2476,-90 2476,-90 2482,-90 2488,-96 2488,-102 2488,-102 2488,-159 2488,-159 2488,-165 2482,-171 2476,-171 2476,-171 2261,-171 2261,-171 2255,-171 2249,-165 2249,-159 2249,-159 2249,-102 2249,-102 2249,-96 2255,-90 2261,-90"/>
<text text-anchor="middle" x="2368.5" y="-155.8" font-family="Helvetica,sans-Serif" font-size="14.00">DAO</text>
</g>
<g id="clust6" class="cluster">
<title>cluster_data</title>
<path fill="white" stroke="#94a3b8" d="M1764,-29C1764,-29 2008,-29 2008,-29 2014,-29 2020,-35 2020,-41 2020,-41 2020,-92 2020,-92 2020,-98 2014,-104 2008,-104 2008,-104 1764,-104 1764,-104 1758,-104 1752,-98 1752,-92 1752,-92 1752,-41 1752,-41 1752,-35 1758,-29 1764,-29"/>
<text text-anchor="middle" x="1886" y="-88.8" font-family="Helvetica,sans-Serif" font-size="14.00">Datos</text>
</g>
<!-- actor -->
<g id="node1" class="node">
<title>actor</title>
<ellipse fill="#fff7ed" stroke="#cbd5e1" stroke-width="1.1" cx="261.5" cy="-191" rx="27.16" ry="18"/>
<text text-anchor="middle" x="261.5" y="-188.5" font-family="Helvetica,sans-Serif" font-size="10.00">Cajero</text>
</g>
<!-- view_main -->
<g id="node2" class="node">
<title>view_main</title>
<path fill="#eff6ff" stroke="#cbd5e1" stroke-width="1.1" d="M884,-169C884,-169 734,-169 734,-169 728,-169 722,-163 722,-157 722,-157 722,-145 722,-145 722,-139 728,-133 734,-133 734,-133 884,-133 884,-133 890,-133 896,-139 896,-145 896,-145 896,-157 896,-157 896,-163 890,-169 884,-169"/>
<text text-anchor="middle" x="809" y="-154" font-family="Helvetica,sans-Serif" font-size="10.00">POS.tsx</text>
<text text-anchor="middle" x="809" y="-143" font-family="Helvetica,sans-Serif" font-size="10.00">Suspender / Reanudar / Devolver</text>
</g>
<!-- actor&#45;&gt;view_main -->
<g id="edge1" class="edge">
<title>actor&#45;&gt;view_main</title>
<path fill="none" stroke="#64748b" stroke-width="1.1" d="M262,-172.87C262,-162.29 262,-151 262,-151 262,-151 713.72,-151 713.72,-151"/>
<polygon fill="#64748b" stroke="#64748b" stroke-width="1.1" points="713.72,-153.8 721.72,-151 713.72,-148.2 713.72,-153.8"/>
<text text-anchor="middle" x="622.5" y="-188.8" font-family="Helvetica,sans-Serif" font-size="9.00" fill="#64748b">1. suspende o reanuda venta</text>
</g>
<!-- service -->
<g id="node3" class="node">
<title>service</title>
<path fill="#f5f3ff" stroke="#cbd5e1" stroke-width="1.1" d="M1288,-203.5C1288,-203.5 1106,-203.5 1106,-203.5 1100,-203.5 1094,-197.5 1094,-191.5 1094,-191.5 1094,-174.5 1094,-174.5 1094,-168.5 1100,-162.5 1106,-162.5 1106,-162.5 1288,-162.5 1288,-162.5 1294,-162.5 1300,-168.5 1300,-174.5 1300,-174.5 1300,-191.5 1300,-191.5 1300,-197.5 1294,-203.5 1288,-203.5"/>
<text text-anchor="middle" x="1197" y="-191.5" font-family="Helvetica,sans-Serif" font-size="10.00">services/sales.ts</text>
<text text-anchor="middle" x="1197" y="-180.5" font-family="Helvetica,sans-Serif" font-size="10.00">suspendSale, list/get/deleteSuspended,</text>
<text text-anchor="middle" x="1197" y="-169.5" font-family="Helvetica,sans-Serif" font-size="10.00">getSaleDetail, returnSale</text>
</g>
<!-- view_main&#45;&gt;service -->
<g id="edge2" class="edge">
<title>view_main&#45;&gt;service</title>
<path fill="none" stroke="#4f46e5" stroke-width="1.1" d="M766,-169.25C766,-181.68 766,-195.88 766,-195.88 766,-195.88 1085.76,-195.88 1085.76,-195.88"/>
<polygon fill="#4f46e5" stroke="#4f46e5" stroke-width="1.1" points="1085.76,-198.68 1093.76,-195.88 1085.76,-193.08 1085.76,-198.68"/>
<text text-anchor="middle" x="995" y="-236.8" font-family="Helvetica,sans-Serif" font-size="9.00" fill="#4f46e5">2. llama servicio sales.*</text>
</g>
<!-- view_main&#45;&gt;service -->
<g id="edge13" class="edge">
<title>view_main&#45;&gt;service</title>
<path fill="none" stroke="#4f46e5" stroke-width="1.1" d="M809,-169.19C809,-178.64 809,-188.25 809,-188.25 809,-188.25 1085.79,-188.25 1085.79,-188.25"/>
<polygon fill="#4f46e5" stroke="#4f46e5" stroke-width="1.1" points="1085.79,-191.05 1093.79,-188.25 1085.79,-185.45 1085.79,-191.05"/>
<text text-anchor="middle" x="995" y="-181.8" font-family="Helvetica,sans-Serif" font-size="9.00" fill="#4f46e5">13. devolución desde detalle</text>
</g>
<!-- service&#45;&gt;view_main -->
<g id="edge12" class="edge">
<title>service&#45;&gt;view_main</title>
<path fill="none" stroke="#4f46e5" stroke-width="1.1" d="M1093.79,-180.62C992.46,-180.62 853,-180.62 853,-180.62 853,-180.62 853,-177.26 853,-177.26"/>
<polygon fill="#4f46e5" stroke="#4f46e5" stroke-width="1.1" points="855.8,-177.26 853,-169.26 850.2,-177.26 855.8,-177.26"/>
<text text-anchor="middle" x="995" y="-126.8" font-family="Helvetica,sans-Serif" font-size="9.00" fill="#4f46e5">12. recarga carrito o historial</text>
</g>
<!-- preload -->
<g id="node4" class="node">
<title>preload</title>
<path fill="#f5f3ff" stroke="#cbd5e1" stroke-width="1.1" d="M1544,-245C1544,-245 1502,-245 1502,-245 1496,-245 1490,-239 1490,-233 1490,-233 1490,-221 1490,-221 1490,-215 1496,-209 1502,-209 1502,-209 1544,-209 1544,-209 1550,-209 1556,-215 1556,-221 1556,-221 1556,-233 1556,-233 1556,-239 1550,-245 1544,-245"/>
<text text-anchor="middle" x="1523" y="-230" font-family="Helvetica,sans-Serif" font-size="10.00">preload.ts</text>
<text text-anchor="middle" x="1523" y="-219" font-family="Helvetica,sans-Serif" font-size="10.00">api.sales.*</text>
</g>
<!-- service&#45;&gt;preload -->
<g id="edge3" class="edge">
<title>service&#45;&gt;preload</title>
<path fill="none" stroke="#4f46e5" stroke-width="1.1" d="M1300.23,-193.25C1390.4,-193.25 1507,-193.25 1507,-193.25 1507,-193.25 1507,-200.94 1507,-200.94"/>
<polygon fill="#4f46e5" stroke="#4f46e5" stroke-width="1.1" points="1504.2,-200.94 1507,-208.94 1509.8,-200.94 1504.2,-200.94"/>
<text text-anchor="middle" x="1395" y="-174.8" font-family="Helvetica,sans-Serif" font-size="9.00" fill="#4f46e5">3. api.sales.*</text>
</g>
<!-- service&#45;&gt;preload -->
<g id="edge14" class="edge">
<title>service&#45;&gt;preload</title>
<path fill="none" stroke="#4f46e5" stroke-width="1.1" d="M1300.15,-183C1395.66,-183 1523,-183 1523,-183 1523,-183 1523,-200.85 1523,-200.85"/>
<polygon fill="#4f46e5" stroke="#4f46e5" stroke-width="1.1" points="1520.2,-200.85 1523,-208.85 1525.8,-200.85 1520.2,-200.85"/>
<text text-anchor="middle" x="1395" y="-229.8" font-family="Helvetica,sans-Serif" font-size="9.00" fill="#4f46e5">14. api.sales.return</text>
</g>
<!-- preload&#45;&gt;service -->
<g id="edge11" class="edge">
<title>preload&#45;&gt;service</title>
<path fill="none" stroke="#4f46e5" stroke-width="1.1" d="M1540,-208.94C1540,-193.15 1540,-172.75 1540,-172.75 1540,-172.75 1308.38,-172.75 1308.38,-172.75"/>
<polygon fill="#4f46e5" stroke="#4f46e5" stroke-width="1.1" points="1308.38,-169.95 1300.38,-172.75 1308.38,-175.55 1308.38,-169.95"/>
<text text-anchor="middle" x="1395" y="-284.8" font-family="Helvetica,sans-Serif" font-size="9.00" fill="#4f46e5">11. datos disponibles en UI</text>
</g>
<!-- ipc -->
<g id="node5" class="node">
<title>ipc</title>
<path fill="#f5f3ff" stroke="#cbd5e1" stroke-width="1.1" d="M1988.5,-246C1988.5,-246 1783.5,-246 1783.5,-246 1777.5,-246 1771.5,-240 1771.5,-234 1771.5,-234 1771.5,-222 1771.5,-222 1771.5,-216 1777.5,-210 1783.5,-210 1783.5,-210 1988.5,-210 1988.5,-210 1994.5,-210 2000.5,-216 2000.5,-222 2000.5,-222 2000.5,-234 2000.5,-234 2000.5,-240 1994.5,-246 1988.5,-246"/>
<text text-anchor="middle" x="1886" y="-231" font-family="Helvetica,sans-Serif" font-size="10.00">sales.ipc.ts</text>
<text text-anchor="middle" x="1886" y="-220" font-family="Helvetica,sans-Serif" font-size="10.00">sales:suspend / suspended&#45;* / detail / return</text>
</g>
<!-- preload&#45;&gt;ipc -->
<g id="edge4" class="edge">
<title>preload&#45;&gt;ipc</title>
<path fill="none" stroke="#4f46e5" stroke-width="1.1" d="M1556.18,-218.75C1556.18,-218.75 1763.16,-218.75 1763.16,-218.75"/>
<polygon fill="#4f46e5" stroke="#4f46e5" stroke-width="1.1" points="1763.16,-221.55 1771.16,-218.75 1763.16,-215.95 1763.16,-221.55"/>
<text text-anchor="middle" x="1658" y="-174.8" font-family="Helvetica,sans-Serif" font-size="9.00" fill="#4f46e5">4. canal sales correspondiente</text>
</g>
<!-- preload&#45;&gt;ipc -->
<g id="edge15" class="edge">
<title>preload&#45;&gt;ipc</title>
<path fill="none" stroke="#4f46e5" stroke-width="1.1" d="M1556.18,-227.5C1556.18,-227.5 1763.16,-227.5 1763.16,-227.5"/>
<polygon fill="#4f46e5" stroke="#4f46e5" stroke-width="1.1" points="1763.16,-230.3 1771.16,-227.5 1763.16,-224.7 1763.16,-230.3"/>
<text text-anchor="middle" x="1658" y="-229.8" font-family="Helvetica,sans-Serif" font-size="9.00" fill="#4f46e5">15. sales:return</text>
</g>
<!-- ipc&#45;&gt;preload -->
<g id="edge10" class="edge">
<title>ipc&#45;&gt;preload</title>
<path fill="none" stroke="#4f46e5" stroke-width="1.1" d="M1771.14,-236.25C1771.14,-236.25 1564.26,-236.25 1564.26,-236.25"/>
<polygon fill="#4f46e5" stroke="#4f46e5" stroke-width="1.1" points="1564.26,-233.45 1556.26,-236.25 1564.26,-239.05 1564.26,-233.45"/>
<text text-anchor="middle" x="1658" y="-284.8" font-family="Helvetica,sans-Serif" font-size="9.00" fill="#4f46e5">10. promise resuelta</text>
</g>
<!-- mode -->
<g id="node6" class="node">
<title>mode</title>
<path fill="#ecfdf5" stroke="#cbd5e1" stroke-width="1.1" d="M2414.5,-282C2414.5,-282 2322.5,-282 2322.5,-282 2316.5,-282 2310.5,-276 2310.5,-270 2310.5,-270 2310.5,-258 2310.5,-258 2310.5,-252 2316.5,-246 2322.5,-246 2322.5,-246 2414.5,-246 2414.5,-246 2420.5,-246 2426.5,-252 2426.5,-258 2426.5,-258 2426.5,-270 2426.5,-270 2426.5,-276 2420.5,-282 2414.5,-282"/>
<text text-anchor="middle" x="2368.5" y="-267" font-family="Helvetica,sans-Serif" font-size="10.00">getDbMode()</text>
<text text-anchor="middle" x="2368.5" y="-256" font-family="Helvetica,sans-Serif" font-size="10.00">flujo SQLite o MySQL</text>
</g>
<!-- ipc&#45;&gt;mode -->
<g id="edge5" class="edge">
<title>ipc&#45;&gt;mode</title>
<path fill="none" stroke="#059669" stroke-width="1.1" d="M2000.7,-237C2138.1,-237 2350,-237 2350,-237 2350,-237 2350,-237.88 2350,-237.88"/>
<polygon fill="#059669" stroke="#059669" stroke-width="1.1" points="2347.2,-237.84 2350,-245.84 2352.8,-237.84 2347.2,-237.84"/>
<text text-anchor="middle" x="2134.5" y="-297.8" font-family="Helvetica,sans-Serif" font-size="9.00" fill="#059669">5. consulta modo de BD</text>
</g>
<!-- dao -->
<g id="node7" class="node">
<title>dao</title>
<path fill="#fef3c7" stroke="#cbd5e1" stroke-width="1.1" d="M2468,-139.5C2468,-139.5 2269,-139.5 2269,-139.5 2263,-139.5 2257,-133.5 2257,-127.5 2257,-127.5 2257,-110.5 2257,-110.5 2257,-104.5 2263,-98.5 2269,-98.5 2269,-98.5 2468,-98.5 2468,-98.5 2474,-98.5 2480,-104.5 2480,-110.5 2480,-110.5 2480,-127.5 2480,-127.5 2480,-133.5 2474,-139.5 2468,-139.5"/>
<text text-anchor="middle" x="2368.5" y="-127.5" font-family="Helvetica,sans-Serif" font-size="10.00">suspended_sales + suspended_sale_items</text>
<text text-anchor="middle" x="2368.5" y="-116.5" font-family="Helvetica,sans-Serif" font-size="10.00">getSaleDetail</text>
<text text-anchor="middle" x="2368.5" y="-105.5" font-family="Helvetica,sans-Serif" font-size="10.00">returnSaleMySql</text>
</g>
<!-- ipc&#45;&gt;dao -->
<g id="edge16" class="edge">
<title>ipc&#45;&gt;dao</title>
<path fill="none" stroke="#059669" stroke-width="1.1" d="M2000.61,-219C2115.35,-219 2275,-219 2275,-219 2275,-219 2275,-147.72 2275,-147.72"/>
<polygon fill="#059669" stroke="#059669" stroke-width="1.1" points="2277.8,-147.72 2275,-139.72 2272.2,-147.72 2277.8,-147.72"/>
<text text-anchor="middle" x="2134.5" y="-242.8" font-family="Helvetica,sans-Serif" font-size="9.00" fill="#059669">16. returnSaleMySql</text>
</g>
<!-- mode&#45;&gt;dao -->
<g id="edge6" class="edge">
<title>mode&#45;&gt;dao</title>
<path fill="none" stroke="#059669" stroke-width="1.1" d="M2388,-245.93C2388,-245.93 2388,-147.64 2388,-147.64"/>
<polygon fill="#059669" stroke="#059669" stroke-width="1.1" points="2390.8,-147.64 2388,-139.64 2385.2,-147.64 2390.8,-147.64"/>
</g>
<!-- dao&#45;&gt;ipc -->
<g id="edge9" class="edge">
<title>dao&#45;&gt;ipc</title>
<path fill="none" stroke="#059669" stroke-width="1.1" d="M2293,-139.5C2293,-171.08 2293,-228 2293,-228 2293,-228 2008.73,-228 2008.73,-228"/>
<polygon fill="#059669" stroke="#059669" stroke-width="1.1" points="2008.73,-225.2 2000.73,-228 2008.73,-230.8 2008.73,-225.2"/>
<text text-anchor="middle" x="2134.5" y="-187.8" font-family="Helvetica,sans-Serif" font-size="9.00" fill="#059669">9. respuesta a POS</text>
</g>
<!-- data -->
<g id="node8" class="node">
<title>data</title>
<path fill="#f3f4f6" stroke="#cbd5e1" stroke-width="1.1" d="M2000,-73C2000,-73 1772,-73 1772,-73 1766,-73 1760,-67 1760,-61 1760,-61 1760,-49 1760,-49 1760,-43 1766,-37 1772,-37 1772,-37 2000,-37 2000,-37 2006,-37 2012,-43 2012,-49 2012,-49 2012,-61 2012,-61 2012,-67 2006,-73 2000,-73"/>
<text text-anchor="middle" x="1886" y="-58" font-family="Helvetica,sans-Serif" font-size="10.00">Tablas suspended_sales, suspended_sale_items,</text>
<text text-anchor="middle" x="1886" y="-47" font-family="Helvetica,sans-Serif" font-size="10.00">sales, sale_items, sale_returns, products</text>
</g>
<!-- dao&#45;&gt;data -->
<g id="edge7" class="edge">
<title>dao&#45;&gt;data</title>
<path fill="none" stroke="#d97706" stroke-width="1.1" d="M2256.66,-126.1C2149.51,-126.1 2004,-126.1 2004,-126.1 2004,-126.1 2004,-81.31 2004,-81.31"/>
<polygon fill="#d97706" stroke="#d97706" stroke-width="1.1" points="2006.8,-81.31 2004,-73.31 2001.2,-81.31 2006.8,-81.31"/>
<text text-anchor="middle" x="2134.5" y="-132.8" font-family="Helvetica,sans-Serif" font-size="9.00" fill="#d97706">7a. guarda temporales en suspended_*</text>
<text text-anchor="middle" x="2134.5" y="-122.8" font-family="Helvetica,sans-Serif" font-size="9.00" fill="#d97706">7b. recupera y elimina suspendida</text>
<text text-anchor="middle" x="2134.5" y="-112.8" font-family="Helvetica,sans-Serif" font-size="9.00" fill="#d97706">7c. lee detalle de venta</text>
</g>
<!-- dao&#45;&gt;data -->
<g id="edge17" class="edge">
<title>dao&#45;&gt;data</title>
<path fill="none" stroke="#d97706" stroke-width="1.1" d="M2256.59,-119.2C2150.43,-119.2 2007,-119.2 2007,-119.2 2007,-119.2 2007,-81.23 2007,-81.23"/>
<polygon fill="#d97706" stroke="#d97706" stroke-width="1.1" points="2009.8,-81.23 2007,-73.23 2004.2,-81.23 2009.8,-81.23"/>
<text text-anchor="middle" x="2134.5" y="-57.8" font-family="Helvetica,sans-Serif" font-size="9.00" fill="#d97706">17. inserta sale_returns y repone stock</text>
</g>
<!-- data&#45;&gt;view_main -->
<g id="edge18" class="edge">
<title>data&#45;&gt;view_main</title>
<path fill="none" stroke="#334155" stroke-width="1.1" d="M1766,-73.06C1766,-100.87 1766,-151 1766,-151 1766,-151 904.04,-151 904.04,-151"/>
<polygon fill="#334155" stroke="#334155" stroke-width="1.1" points="904.04,-148.2 896.04,-151 904.04,-153.8 904.04,-148.2"/>
<text text-anchor="middle" x="1395" y="-58.8" font-family="Helvetica,sans-Serif" font-size="9.00" fill="#334155">18. muestra total devuelto</text>
</g>
<!-- data&#45;&gt;dao -->
<g id="edge8" class="edge">
<title>data&#45;&gt;dao</title>
<path fill="none" stroke="#334155" stroke-width="1.1" d="M2010,-73.13C2010,-89.92 2010,-112.3 2010,-112.3 2010,-112.3 2248.54,-112.3 2248.54,-112.3"/>
<polygon fill="#334155" stroke="#334155" stroke-width="1.1" points="2248.54,-115.1 2256.54,-112.3 2248.54,-109.5 2248.54,-115.1"/>
<text text-anchor="middle" x="2134.5" y="-2.8" font-family="Helvetica,sans-Serif" font-size="9.00" fill="#334155">8. retorna detalle / confirmación</text>
</g>
<!-- note1 -->
<g id="node9" class="node">
<title>note1</title>
<polygon fill="#f8fafc" stroke="#cbd5e1" stroke-width="1.1" points="517,-133 0,-133 0,-97 523,-97 523,-127 517,-133"/>
<polyline fill="none" stroke="#cbd5e1" stroke-width="1.1" points="517,-133 517,-127 "/>
<polyline fill="none" stroke="#cbd5e1" stroke-width="1.1" points="523,-127 517,-127 "/>
<text text-anchor="middle" x="261.5" y="-112.5" font-family="Helvetica,sans-Serif" font-size="10.00">La devolución está implementada solo en MySQL: sales.ipc.ts lanza error si el backend activo es SQLite.</text>
</g>
<!-- note1&#45;&gt;view_main -->
<g id="edge19" class="edge">
<title>note1&#45;&gt;view_main</title>
<path fill="none" stroke="#94a3b8" stroke-width="1.1" stroke-dasharray="5,2" d="M523.22,-105.4C663.99,-105.4 809,-105.4 809,-105.4 809,-105.4 809,-120.23 809,-132.98"/>
</g>
</g>
</svg>
