<?xml version="1.0" encoding="UTF-8" standalone="no"?>
<!DOCTYPE svg PUBLIC "-//W3C//DTD SVG 1.1//EN"
 "http://www.w3.org/Graphics/SVG/1.1/DTD/svg11.dtd">
<!-- Generated by graphviz version 2.42.4 (0)
 -->
<!-- Title: G Pages: 1 -->
<svg width="2765pt" height="526pt"
 viewBox="0.00 0.00 2765.00 526.00" xmlns="http://www.w3.org/2000/svg" xmlns:xlink="http://www.w3.org/1999/xlink">
<g id="graph0" class="graph" transform="scale(1 1) rotate(0) translate(4 522)">
<title>G</title>
<polygon fill="white" stroke="transparent" points="-4,4 -4,-522 2761,-522 2761,4 -4,4"/>
<text text-anchor="middle" x="1378.5" y="-502.8" font-family="Helvetica,sans-Serif" font-size="14.00">Apertura de caja y cierre de caja</text>
<g id="clust1" class="cluster">
<title>cluster_actor</title>
<path fill="white" stroke="#fdba74" d="M317.23,-367C317.23,-367 478.77,-367 478.77,-367 484.77,-367 490.77,-373 490.77,-379 490.77,-379 490.77,-430 490.77,-430 490.77,-436 484.77,-442 478.77,-442 478.77,-442 317.23,-442 317.23,-442 311.23,-442 305.23,-436 305.23,-430 305.23,-430 305.23,-379 305.23,-379 305.23,-373 311.23,-367 317.23,-367"/>
<text text-anchor="middle" x="398" y="-426.8" font-family="Helvetica,sans-Serif" font-size="14.00">Actor</text>
</g>
<g id="clust2" class="cluster">
<title>cluster_view</title>
<path fill="white" stroke="#60a5fa" d="M1100.5,-329C1100.5,-329 1261.5,-329 1261.5,-329 1267.5,-329 1273.5,-335 1273.5,-341 1273.5,-341 1273.5,-398 1273.5,-398 1273.5,-404 1267.5,-410 1261.5,-410 1261.5,-410 1100.5,-410 1100.5,-410 1094.5,-410 1088.5,-404 1088.5,-398 1088.5,-398 1088.5,-341 1088.5,-341 1088.5,-335 1094.5,-329 1100.5,-329"/>
<text text-anchor="middle" x="1181" y="-394.8" font-family="Helvetica,sans-Serif" font-size="14.00">Vista</text>
</g>
<g id="clust3" class="cluster">
<title>cluster_controller</title>
<path fill="white" stroke="#a78bfa" d="M370.5,-8C370.5,-8 1263,-8 1263,-8 1269,-8 1275,-14 1275,-20 1275,-20 1275,-195 1275,-195 1275,-201 1269,-207 1263,-207 1263,-207 370.5,-207 370.5,-207 364.5,-207 358.5,-201 358.5,-195 358.5,-195 358.5,-20 358.5,-20 358.5,-14 364.5,-8 370.5,-8"/>
<text text-anchor="middle" x="816.75" y="-191.8" font-family="Helvetica,sans-Serif" font-size="14.00">Controller</text>
</g>
<g id="clust4" class="cluster">
<title>cluster_model</title>
<path fill="white" stroke="#34d399" d="M1517,-31C1517,-31 1784,-31 1784,-31 1790,-31 1796,-37 1796,-43 1796,-43 1796,-246 1796,-246 1796,-252 1790,-258 1784,-258 1784,-258 1517,-258 1517,-258 1511,-258 1505,-252 1505,-246 1505,-246 1505,-43 1505,-43 1505,-37 1511,-31 1517,-31"/>
<text text-anchor="middle" x="1650.5" y="-242.8" font-family="Helvetica,sans-Serif" font-size="14.00">Model</text>
</g>
<g id="clust5" class="cluster">
<title>cluster_dao</title>
<path fill="white" stroke="#f59e0b" d="M2021,-86C2021,-86 2288,-86 2288,-86 2294,-86 2300,-92 2300,-98 2300,-98 2300,-149 2300,-149 2300,-155 2294,-161 2288,-161 2288,-161 2021,-161 2021,-161 2015,-161 2009,-155 2009,-149 2009,-149 2009,-98 2009,-98 2009,-92 2015,-86 2021,-86"/>
<text text-anchor="middle" x="2154.5" y="-145.8" font-family="Helvetica,sans-Serif" font-size="14.00">DAO</text>
</g>
<g id="clust6" class="cluster">
<title>cluster_data</title>
<path fill="white" stroke="#94a3b8" d="M2497,-219C2497,-219 2737,-219 2737,-219 2743,-219 2749,-225 2749,-231 2749,-231 2749,-358 2749,-358 2749,-364 2743,-370 2737,-370 2737,-370 2497,-370 2497,-370 2491,-370 2485,-364 2485,-358 2485,-358 2485,-231 2485,-231 2485,-225 2491,-219 2497,-219"/>
<text text-anchor="middle" x="2617" y="-354.8" font-family="Helvetica,sans-Serif" font-size="14.00">Datos / salida</text>
</g>
<!-- actor -->
<g id="node1" class="node">
<title>actor</title>
<ellipse fill="#fff7ed" stroke="#cbd5e1" stroke-width="1.1" cx="398" cy="-393" rx="84.54" ry="18"/>
<text text-anchor="middle" x="398" y="-390.5" font-family="Helvetica,sans-Serif" font-size="10.00">Administrador / Supervisor</text>
</g>
<!-- view_main -->
<g id="node2" class="node">
<title>view_main</title>
<path fill="#eff6ff" stroke="#cbd5e1" stroke-width="1.1" d="M1253.5,-378.5C1253.5,-378.5 1108.5,-378.5 1108.5,-378.5 1102.5,-378.5 1096.5,-372.5 1096.5,-366.5 1096.5,-366.5 1096.5,-349.5 1096.5,-349.5 1096.5,-343.5 1102.5,-337.5 1108.5,-337.5 1108.5,-337.5 1253.5,-337.5 1253.5,-337.5 1259.5,-337.5 1265.5,-343.5 1265.5,-349.5 1265.5,-349.5 1265.5,-366.5 1265.5,-366.5 1265.5,-372.5 1259.5,-378.5 1253.5,-378.5"/>
<text text-anchor="middle" x="1181" y="-366.5" font-family="Helvetica,sans-Serif" font-size="10.00">Cash.tsx</text>
<text text-anchor="middle" x="1181" y="-355.5" font-family="Helvetica,sans-Serif" font-size="10.00">refresh(), abrir caja, cerrar caja,</text>
<text text-anchor="middle" x="1181" y="-344.5" font-family="Helvetica,sans-Serif" font-size="10.00">comprobante HTML</text>
</g>
<!-- actor&#45;&gt;view_main -->
<g id="edge1" class="edge">
<title>actor&#45;&gt;view_main</title>
<path fill="none" stroke="#64748b" stroke-width="1.1" d="M448,-378.46C448,-370.61 448,-362.5 448,-362.5 448,-362.5 1088.2,-362.5 1088.2,-362.5"/>
<polygon fill="#64748b" stroke="#64748b" stroke-width="1.1" points="1088.2,-365.3 1096.2,-362.5 1088.2,-359.7 1088.2,-365.3"/>
<text text-anchor="middle" x="945.5" y="-443.8" font-family="Helvetica,sans-Serif" font-size="9.00" fill="#64748b">1. abre módulo caja</text>
</g>
<!-- actor&#45;&gt;view_main -->
<g id="edge8" class="edge">
<title>actor&#45;&gt;view_main</title>
<path fill="none" stroke="#64748b" stroke-width="1.1" d="M466,-382.01C466,-375.59 466,-368.75 466,-368.75 466,-368.75 1088.17,-368.75 1088.17,-368.75"/>
<polygon fill="#64748b" stroke="#64748b" stroke-width="1.1" points="1088.17,-371.55 1096.17,-368.75 1088.17,-365.95 1088.17,-371.55"/>
<text text-anchor="middle" x="945.5" y="-388.8" font-family="Helvetica,sans-Serif" font-size="9.00" fill="#64748b">8. confirma apertura o cierre</text>
</g>
<!-- preload -->
<g id="node3" class="node">
<title>preload</title>
<path fill="#f5f3ff" stroke="#cbd5e1" stroke-width="1.1" d="M417.5,-176C417.5,-176 378.5,-176 378.5,-176 372.5,-176 366.5,-170 366.5,-164 366.5,-164 366.5,-152 366.5,-152 366.5,-146 372.5,-140 378.5,-140 378.5,-140 417.5,-140 417.5,-140 423.5,-140 429.5,-146 429.5,-152 429.5,-152 429.5,-164 429.5,-164 429.5,-170 423.5,-176 417.5,-176"/>
<text text-anchor="middle" x="398" y="-161" font-family="Helvetica,sans-Serif" font-size="10.00">preload.ts</text>
<text text-anchor="middle" x="398" y="-150" font-family="Helvetica,sans-Serif" font-size="10.00">api.cash.*</text>
</g>
<!-- view_main&#45;&gt;preload -->
<g id="edge2" class="edge">
<title>view_main&#45;&gt;preload</title>
<path fill="none" stroke="#4f46e5" stroke-width="1.1" d="M1096.36,-356.25C890.98,-356.25 383,-356.25 383,-356.25 383,-356.25 383,-184.3 383,-184.3"/>
<polygon fill="#4f46e5" stroke="#4f46e5" stroke-width="1.1" points="385.8,-184.3 383,-176.3 380.2,-184.3 385.8,-184.3"/>
<text text-anchor="middle" x="945.5" y="-223.8" font-family="Helvetica,sans-Serif" font-size="9.00" fill="#4f46e5">2. consulta getOpen/getStatus/getOpenSuggestion</text>
</g>
<!-- view_main&#45;&gt;preload -->
<g id="edge9" class="edge">
<title>view_main&#45;&gt;preload</title>
<path fill="none" stroke="#4f46e5" stroke-width="1.1" d="M1096.46,-350C893.99,-350 398,-350 398,-350 398,-350 398,-184.06 398,-184.06"/>
<polygon fill="#4f46e5" stroke="#4f46e5" stroke-width="1.1" points="400.8,-184.06 398,-176.06 395.2,-184.06 400.8,-184.06"/>
<text text-anchor="middle" x="945.5" y="-333.8" font-family="Helvetica,sans-Serif" font-size="9.00" fill="#4f46e5">9. api.cash.open o api.cash.close</text>
</g>
<!-- file -->
<g id="node10" class="node">
<title>file</title>
<path fill="#f3f4f6" stroke="#cbd5e1" stroke-width="1.1" d="M2692,-339C2692,-339 2542,-339 2542,-339 2536,-339 2530,-333 2530,-327 2530,-327 2530,-315 2530,-315 2530,-309 2536,-303 2542,-303 2542,-303 2692,-303 2692,-303 2698,-303 2704,-309 2704,-315 2704,-315 2704,-327 2704,-327 2704,-333 2698,-339 2692,-339"/>
<text text-anchor="middle" x="2617" y="-318.5" font-family="Helvetica,sans-Serif" font-size="10.00">Backup + comprobante de cierre</text>
</g>
<!-- view_main&#45;&gt;file -->
<g id="edge20" class="edge">
<title>view_main&#45;&gt;file</title>
<path fill="none" stroke="#334155" stroke-width="1.1" d="M1153,-337.19C1153,-331.08 1153,-326 1153,-326 1153,-326 2521.8,-326 2521.8,-326"/>
<polygon fill="#334155" stroke="#334155" stroke-width="1.1" points="2521.8,-328.8 2529.8,-326 2521.8,-323.2 2521.8,-328.8"/>
<text text-anchor="middle" x="1902.5" y="-455.8" font-family="Helvetica,sans-Serif" font-size="9.00" fill="#334155">20. vista previa / imprimir cierre</text>
</g>
<!-- preload&#45;&gt;view_main -->
<g id="edge19" class="edge">
<title>preload&#45;&gt;view_main</title>
<path fill="none" stroke="#4f46e5" stroke-width="1.1" d="M414,-176.15C414,-222.89 414,-343.75 414,-343.75 414,-343.75 1088.36,-343.75 1088.36,-343.75"/>
<polygon fill="#4f46e5" stroke="#4f46e5" stroke-width="1.1" points="1088.36,-346.55 1096.36,-343.75 1088.36,-340.95 1088.36,-346.55"/>
<text text-anchor="middle" x="945.5" y="-278.8" font-family="Helvetica,sans-Serif" font-size="9.00" fill="#4f46e5">19. Cash.tsx arma comprobante HTML</text>
</g>
<!-- ipc -->
<g id="node4" class="node">
<title>ipc</title>
<path fill="#f5f3ff" stroke="#cbd5e1" stroke-width="1.1" d="M1255,-131.5C1255,-131.5 1107,-131.5 1107,-131.5 1101,-131.5 1095,-125.5 1095,-119.5 1095,-119.5 1095,-102.5 1095,-102.5 1095,-96.5 1101,-90.5 1107,-90.5 1107,-90.5 1255,-90.5 1255,-90.5 1261,-90.5 1267,-96.5 1267,-102.5 1267,-102.5 1267,-119.5 1267,-119.5 1267,-125.5 1261,-131.5 1255,-131.5"/>
<text text-anchor="middle" x="1181" y="-119.5" font-family="Helvetica,sans-Serif" font-size="10.00">cash.ipc.ts</text>
<text text-anchor="middle" x="1181" y="-108.5" font-family="Helvetica,sans-Serif" font-size="10.00">cash:open, get&#45;open, get&#45;status,</text>
<text text-anchor="middle" x="1181" y="-97.5" font-family="Helvetica,sans-Serif" font-size="10.00">get&#45;open&#45;suggestion, cash:close</text>
</g>
<!-- preload&#45;&gt;ipc -->
<g id="edge3" class="edge">
<title>preload&#45;&gt;ipc</title>
<path fill="none" stroke="#4f46e5" stroke-width="1.1" d="M383,-139.89C383,-123.11 383,-100.75 383,-100.75 383,-100.75 1086.84,-100.75 1086.84,-100.75"/>
<polygon fill="#4f46e5" stroke="#4f46e5" stroke-width="1.1" points="1086.84,-103.55 1094.84,-100.75 1086.84,-97.95 1086.84,-103.55"/>
<text text-anchor="middle" x="945.5" y="-58.8" font-family="Helvetica,sans-Serif" font-size="9.00" fill="#4f46e5">3. cash:get&#45;*</text>
</g>
<!-- preload&#45;&gt;ipc -->
<g id="edge10" class="edge">
<title>preload&#45;&gt;ipc</title>
<path fill="none" stroke="#4f46e5" stroke-width="1.1" d="M398,-139.96C398,-126.71 398,-111 398,-111 398,-111 1086.97,-111 1086.97,-111"/>
<polygon fill="#4f46e5" stroke="#4f46e5" stroke-width="1.1" points="1086.97,-113.8 1094.97,-111 1086.97,-108.2 1086.97,-113.8"/>
<text text-anchor="middle" x="945.5" y="-113.8" font-family="Helvetica,sans-Serif" font-size="9.00" fill="#4f46e5">10. cash:open / cash:close</text>
</g>
<!-- ipc&#45;&gt;preload -->
<g id="edge18" class="edge">
<title>ipc&#45;&gt;preload</title>
<path fill="none" stroke="#4f46e5" stroke-width="1.1" d="M1094.88,-121.25C894.51,-121.25 414,-121.25 414,-121.25 414,-121.25 414,-131.62 414,-131.62"/>
<polygon fill="#4f46e5" stroke="#4f46e5" stroke-width="1.1" points="411.2,-131.62 414,-139.62 416.8,-131.63 411.2,-131.62"/>
<text text-anchor="middle" x="945.5" y="-168.8" font-family="Helvetica,sans-Serif" font-size="9.00" fill="#4f46e5">18. devuelve resultado</text>
</g>
<!-- repo -->
<g id="node5" class="node">
<title>repo</title>
<path fill="#ecfdf5" stroke="#cbd5e1" stroke-width="1.1" d="M1776,-75C1776,-75 1525,-75 1525,-75 1519,-75 1513,-69 1513,-63 1513,-63 1513,-51 1513,-51 1513,-45 1519,-39 1525,-39 1525,-39 1776,-39 1776,-39 1782,-39 1788,-45 1788,-51 1788,-51 1788,-63 1788,-63 1788,-69 1782,-75 1776,-75"/>
<text text-anchor="middle" x="1650.5" y="-60" font-family="Helvetica,sans-Serif" font-size="10.00">cash.repo.ts</text>
<text text-anchor="middle" x="1650.5" y="-49" font-family="Helvetica,sans-Serif" font-size="10.00">openCashRepo / getCashStatusRepo / closeCashRepo</text>
</g>
<!-- ipc&#45;&gt;repo -->
<g id="edge4" class="edge">
<title>ipc&#45;&gt;repo</title>
<path fill="none" stroke="#059669" stroke-width="1.1" d="M1267.15,-106.6C1371.93,-106.6 1535,-106.6 1535,-106.6 1535,-106.6 1535,-83.19 1535,-83.19"/>
<polygon fill="#059669" stroke="#059669" stroke-width="1.1" points="1537.8,-83.19 1535,-75.19 1532.2,-83.19 1537.8,-83.19"/>
<text text-anchor="middle" x="1390" y="-90.8" font-family="Helvetica,sans-Serif" font-size="9.00" fill="#059669">4. obtiene estado actual</text>
</g>
<!-- ipc&#45;&gt;repo -->
<g id="edge11" class="edge">
<title>ipc&#45;&gt;repo</title>
<path fill="none" stroke="#7c3aed" stroke-width="1.1" d="M1267.03,-110.8C1377.75,-110.8 1556,-110.8 1556,-110.8 1556,-110.8 1556,-83.21 1556,-83.21"/>
<polygon fill="#7c3aed" stroke="#7c3aed" stroke-width="1.1" points="1558.8,-83.21 1556,-75.21 1553.2,-83.21 1558.8,-83.21"/>
<text text-anchor="middle" x="1390" y="-35.8" font-family="Helvetica,sans-Serif" font-size="9.00" fill="#7c3aed">11. ejecuta operación y valida permisos</text>
</g>
<!-- audit -->
<g id="node6" class="node">
<title>audit</title>
<path fill="#ecfdf5" stroke="#cbd5e1" stroke-width="1.1" d="M1712,-151C1712,-151 1589,-151 1589,-151 1583,-151 1577,-145 1577,-139 1577,-139 1577,-127 1577,-127 1577,-121 1583,-115 1589,-115 1589,-115 1712,-115 1712,-115 1718,-115 1724,-121 1724,-127 1724,-127 1724,-139 1724,-139 1724,-145 1718,-151 1712,-151"/>
<text text-anchor="middle" x="1650.5" y="-136" font-family="Helvetica,sans-Serif" font-size="10.00">audit repo</text>
<text text-anchor="middle" x="1650.5" y="-125" font-family="Helvetica,sans-Serif" font-size="10.00">CASH_OPEN / CASH_CLOSE</text>
</g>
<!-- ipc&#45;&gt;audit -->
<g id="edge14" class="edge">
<title>ipc&#45;&gt;audit</title>
<path fill="none" stroke="#059669" stroke-width="1.1" d="M1267.11,-123.25C1267.11,-123.25 1568.89,-123.25 1568.89,-123.25"/>
<polygon fill="#059669" stroke="#059669" stroke-width="1.1" points="1568.89,-126.05 1576.89,-123.25 1568.89,-120.45 1568.89,-126.05"/>
<text text-anchor="middle" x="1390" y="-145.8" font-family="Helvetica,sans-Serif" font-size="9.00" fill="#059669">14. registra auditoría</text>
</g>
<!-- backup -->
<g id="node7" class="node">
<title>backup</title>
<path fill="#ecfdf5" stroke="#cbd5e1" stroke-width="1.1" d="M1709,-227C1709,-227 1592,-227 1592,-227 1586,-227 1580,-221 1580,-215 1580,-215 1580,-203 1580,-203 1580,-197 1586,-191 1592,-191 1592,-191 1709,-191 1709,-191 1715,-191 1721,-197 1721,-203 1721,-203 1721,-215 1721,-215 1721,-221 1715,-227 1709,-227"/>
<text text-anchor="middle" x="1650.5" y="-212" font-family="Helvetica,sans-Serif" font-size="10.00">backups.ipc.ts</text>
<text text-anchor="middle" x="1650.5" y="-201" font-family="Helvetica,sans-Serif" font-size="10.00">createBackup(cash_close)</text>
</g>
<!-- ipc&#45;&gt;backup -->
<g id="edge16" class="edge">
<title>ipc&#45;&gt;backup</title>
<path fill="none" stroke="#059669" stroke-width="1.1" d="M1210,-131.78C1210,-160.55 1210,-209 1210,-209 1210,-209 1571.73,-209 1571.73,-209"/>
<polygon fill="#059669" stroke="#059669" stroke-width="1.1" points="1571.73,-211.8 1579.73,-209 1571.73,-206.2 1571.73,-211.8"/>
<text text-anchor="middle" x="1390" y="-206.8" font-family="Helvetica,sans-Serif" font-size="9.00" fill="#059669">16. crea backup al cerrar</text>
</g>
<!-- dao -->
<g id="node8" class="node">
<title>dao</title>
<path fill="#fef3c7" stroke="#cbd5e1" stroke-width="1.1" d="M2280,-130C2280,-130 2029,-130 2029,-130 2023,-130 2017,-124 2017,-118 2017,-118 2017,-106 2017,-106 2017,-100 2023,-94 2029,-94 2029,-94 2280,-94 2280,-94 2286,-94 2292,-100 2292,-106 2292,-106 2292,-118 2292,-118 2292,-124 2286,-130 2280,-130"/>
<text text-anchor="middle" x="2154.5" y="-115" font-family="Helvetica,sans-Serif" font-size="10.00">openCash / getOpenCash / getCashStatus / closeCash</text>
<text text-anchor="middle" x="2154.5" y="-104" font-family="Helvetica,sans-Serif" font-size="10.00">(o equivalentes MySQL)</text>
</g>
<!-- repo&#45;&gt;dao -->
<g id="edge5" class="edge">
<title>repo&#45;&gt;dao</title>
<path fill="none" stroke="#059669" stroke-width="1.1" d="M1746,-75.2C1746,-87.83 1746,-102.4 1746,-102.4 1746,-102.4 2008.77,-102.4 2008.77,-102.4"/>
<polygon fill="#059669" stroke="#059669" stroke-width="1.1" points="2008.77,-105.2 2016.77,-102.4 2008.77,-99.6 2008.77,-105.2"/>
<text text-anchor="middle" x="1902.5" y="-114.8" font-family="Helvetica,sans-Serif" font-size="9.00" fill="#059669">5. lee cash_closures/sales/expenses</text>
</g>
<!-- repo&#45;&gt;dao -->
<g id="edge12" class="edge">
<title>repo&#45;&gt;dao</title>
<path fill="none" stroke="#059669" stroke-width="1.1" d="M1767,-75.19C1767,-86.23 1767,-98.2 1767,-98.2 1767,-98.2 2008.79,-98.2 2008.79,-98.2"/>
<polygon fill="#059669" stroke="#059669" stroke-width="1.1" points="2008.79,-101 2016.79,-98.2 2008.79,-95.4 2008.79,-101"/>
<text text-anchor="middle" x="1902.5" y="-59.8" font-family="Helvetica,sans-Serif" font-size="9.00" fill="#059669">12. INSERT o UPDATE cash_closures</text>
</g>
<!-- data -->
<g id="node9" class="node">
<title>data</title>
<path fill="#f3f4f6" stroke="#cbd5e1" stroke-width="1.1" d="M2729,-263C2729,-263 2505,-263 2505,-263 2499,-263 2493,-257 2493,-251 2493,-251 2493,-239 2493,-239 2493,-233 2499,-227 2505,-227 2505,-227 2729,-227 2729,-227 2735,-227 2741,-233 2741,-239 2741,-239 2741,-251 2741,-251 2741,-257 2735,-263 2729,-263"/>
<text text-anchor="middle" x="2617" y="-242.5" font-family="Helvetica,sans-Serif" font-size="10.00">cash_closures + sales + expenses + audit_logs</text>
</g>
<!-- audit&#45;&gt;data -->
<g id="edge15" class="edge">
<title>audit&#45;&gt;data</title>
<path fill="none" stroke="#334155" stroke-width="1.1" d="M1724.14,-140.5C1939.81,-140.5 2555,-140.5 2555,-140.5 2555,-140.5 2555,-218.8 2555,-218.8"/>
<polygon fill="#334155" stroke="#334155" stroke-width="1.1" points="2552.2,-218.8 2555,-226.8 2557.8,-218.8 2552.2,-218.8"/>
<text text-anchor="middle" x="2154.5" y="-212.8" font-family="Helvetica,sans-Serif" font-size="9.00" fill="#334155">15. inserta audit_logs</text>
</g>
<!-- backup&#45;&gt;file -->
<g id="edge17" class="edge">
<title>backup&#45;&gt;file</title>
<path fill="none" stroke="#334155" stroke-width="1.1" d="M1651,-227.38C1651,-257.6 1651,-314.5 1651,-314.5 1651,-314.5 2522,-314.5 2522,-314.5"/>
<polygon fill="#334155" stroke="#334155" stroke-width="1.1" points="2522,-317.3 2530,-314.5 2522,-311.7 2522,-317.3"/>
<text text-anchor="middle" x="2154.5" y="-384.8" font-family="Helvetica,sans-Serif" font-size="9.00" fill="#334155">17. guarda backup path</text>
</g>
<!-- dao&#45;&gt;data -->
<g id="edge6" class="edge">
<title>dao&#45;&gt;data</title>
<path fill="none" stroke="#d97706" stroke-width="1.1" d="M2292.01,-118C2428.35,-118 2617,-118 2617,-118 2617,-118 2617,-218.8 2617,-218.8"/>
<polygon fill="#d97706" stroke="#d97706" stroke-width="1.1" points="2614.2,-218.8 2617,-226.8 2619.8,-218.8 2614.2,-218.8"/>
<text text-anchor="middle" x="2392.5" y="-173.8" font-family="Helvetica,sans-Serif" font-size="9.00" fill="#d97706">6. calcula efectivo esperado</text>
</g>
<!-- dao&#45;&gt;data -->
<g id="edge13" class="edge">
<title>dao&#45;&gt;data</title>
<path fill="none" stroke="#d97706" stroke-width="1.1" d="M2292.31,-106C2447.71,-106 2679,-106 2679,-106 2679,-106 2679,-218.83 2679,-218.83"/>
<polygon fill="#d97706" stroke="#d97706" stroke-width="1.1" points="2676.2,-218.83 2679,-226.83 2681.8,-218.83 2676.2,-218.83"/>
<text text-anchor="middle" x="2392.5" y="-116.8" font-family="Helvetica,sans-Serif" font-size="9.00" fill="#d97706">13. persiste montos del turno</text>
</g>
<!-- data&#45;&gt;view_main -->
<g id="edge7" class="edge">
<title>data&#45;&gt;view_main</title>
<path fill="none" stroke="#334155" stroke-width="1.1" d="M2512,-263.02C2512,-295.1 2512,-358.75 2512,-358.75 2512,-358.75 1273.52,-358.75 1273.52,-358.75"/>
<polygon fill="#334155" stroke="#334155" stroke-width="1.1" points="1273.52,-355.95 1265.52,-358.75 1273.52,-361.55 1273.52,-355.95"/>
<text text-anchor="middle" x="1902.5" y="-286.8" font-family="Helvetica,sans-Serif" font-size="9.00" fill="#334155">7. renderiza resumen del turno</text>
</g>
<!-- note1 -->
<g id="node11" class="node">
<title>note1</title>
<polygon fill="#f8fafc" stroke="#cbd5e1" stroke-width="1.1" points="790,-495 0,-495 0,-459 796,-459 796,-489 790,-495"/>
<polyline fill="none" stroke="#cbd5e1" stroke-width="1.1" points="790,-495 790,-489 "/>
<polyline fill="none" stroke="#cbd5e1" stroke-width="1.1" points="796,-489 790,-489 "/>
<text text-anchor="middle" x="398" y="-474.5" font-family="Helvetica,sans-Serif" font-size="10.00">El cierre de caja no solo cierra la sesión: calcula efectivo esperado con ventas en efectivo y gastos del turno, registra auditoría y dispara un backup automático.</text>
</g>
<!-- note1&#45;&gt;view_main -->
<g id="edge21" class="edge">
<title>note1&#45;&gt;view_main</title>
<path fill="none" stroke="#94a3b8" stroke-width="1.1" stroke-dasharray="5,2" d="M796.09,-477C989.62,-477 1181,-477 1181,-477 1181,-477 1181,-412.82 1181,-378.73"/>
</g>
</g>
</svg>
