<?xml version="1.0" encoding="UTF-8" standalone="no"?>
<!DOCTYPE svg PUBLIC "-//W3C//DTD SVG 1.1//EN"
 "http://www.w3.org/Graphics/SVG/1.1/DTD/svg11.dtd">
<!-- Generated by graphviz version 2.42.4 (0)
 -->
<!-- Title: G Pages: 1 -->
<svg width="2410pt" height="303pt"
 viewBox="0.00 0.00 2410.00 303.00" xmlns="http://www.w3.org/2000/svg" xmlns:xlink="http://www.w3.org/1999/xlink">
<g id="graph0" class="graph" transform="scale(1 1) rotate(0) translate(4 299)">
<title>G</title>
<polygon fill="white" stroke="transparent" points="-4,4 -4,-299 2406,-299 2406,4 -4,4"/>
<text text-anchor="middle" x="1201" y="-279.8" font-family="Helvetica,sans-Serif" font-size="14.00">Registrar gasto y consultar gastos por fecha</text>
<g id="clust1" class="cluster">
<title>cluster_actor</title>
<path fill="white" stroke="#fdba74" d="M205.87,-180C205.87,-180 392.13,-180 392.13,-180 398.13,-180 404.13,-186 404.13,-192 404.13,-192 404.13,-243 404.13,-243 404.13,-249 398.13,-255 392.13,-255 392.13,-255 205.87,-255 205.87,-255 199.87,-255 193.87,-249 193.87,-243 193.87,-243 193.87,-192 193.87,-192 193.87,-186 199.87,-180 205.87,-180"/>
<text text-anchor="middle" x="299" y="-239.8" font-family="Helvetica,sans-Serif" font-size="14.00">Actor</text>
</g>
<g id="clust2" class="cluster">
<title>cluster_view</title>
<path fill="white" stroke="#60a5fa" d="M792,-140C792,-140 932,-140 932,-140 938,-140 944,-146 944,-152 944,-152 944,-203 944,-203 944,-209 938,-215 932,-215 932,-215 792,-215 792,-215 786,-215 780,-209 780,-203 780,-203 780,-152 780,-152 780,-146 786,-140 792,-140"/>
<text text-anchor="middle" x="862" y="-199.8" font-family="Helvetica,sans-Serif" font-size="14.00">Vista</text>
</g>
<g id="clust3" class="cluster">
<title>cluster_controller</title>
<path fill="white" stroke="#a78bfa" d="M1124,-120C1124,-120 1606,-120 1606,-120 1612,-120 1618,-126 1618,-132 1618,-132 1618,-252 1618,-252 1618,-258 1612,-264 1606,-264 1606,-264 1124,-264 1124,-264 1118,-264 1112,-258 1112,-252 1112,-252 1112,-132 1112,-132 1112,-126 1118,-120 1124,-120"/>
<text text-anchor="middle" x="1365" y="-248.8" font-family="Helvetica,sans-Serif" font-size="14.00">Controller</text>
</g>
<g id="clust4" class="cluster">
<title>cluster_model</title>
<path fill="white" stroke="#34d399" d="M1826.5,-91C1826.5,-91 2012.5,-91 2012.5,-91 2018.5,-91 2024.5,-97 2024.5,-103 2024.5,-103 2024.5,-230 2024.5,-230 2024.5,-236 2018.5,-242 2012.5,-242 2012.5,-242 1826.5,-242 1826.5,-242 1820.5,-242 1814.5,-236 1814.5,-230 1814.5,-230 1814.5,-103 1814.5,-103 1814.5,-97 1820.5,-91 1826.5,-91"/>
<text text-anchor="middle" x="1919.5" y="-226.8" font-family="Helvetica,sans-Serif" font-size="14.00">Model</text>
</g>
<g id="clust5" class="cluster">
<title>cluster_dao</title>
<path fill="white" stroke="#f59e0b" d="M1813,-8C1813,-8 2026,-8 2026,-8 2032,-8 2038,-14 2038,-20 2038,-20 2038,-71 2038,-71 2038,-77 2032,-83 2026,-83 2026,-83 1813,-83 1813,-83 1807,-83 1801,-77 1801,-71 1801,-71 1801,-20 1801,-20 1801,-14 1807,-8 1813,-8"/>
<text text-anchor="middle" x="1919.5" y="-67.8" font-family="Helvetica,sans-Serif" font-size="14.00">DAO</text>
</g>
<g id="clust6" class="cluster">
<title>cluster_data</title>
<path fill="white" stroke="#94a3b8" d="M2236,-36C2236,-36 2382,-36 2382,-36 2388,-36 2394,-42 2394,-48 2394,-48 2394,-99 2394,-99 2394,-105 2388,-111 2382,-111 2382,-111 2236,-111 2236,-111 2230,-111 2224,-105 2224,-99 2224,-99 2224,-48 2224,-48 2224,-42 2230,-36 2236,-36"/>
<text text-anchor="middle" x="2309" y="-95.8" font-family="Helvetica,sans-Serif" font-size="14.00">Datos</text>
</g>
<!-- actor -->
<g id="node1" class="node">
<title>actor</title>
<ellipse fill="#fff7ed" stroke="#cbd5e1" stroke-width="1.1" cx="299" cy="-206" rx="97.26" ry="18"/>
<text text-anchor="middle" x="299" y="-203.5" font-family="Helvetica,sans-Serif" font-size="10.00">Usuario con permiso de gastos</text>
</g>
<!-- view_main -->
<g id="node2" class="node">
<title>view_main</title>
<path fill="#eff6ff" stroke="#cbd5e1" stroke-width="1.1" d="M924,-184C924,-184 800,-184 800,-184 794,-184 788,-178 788,-172 788,-172 788,-160 788,-160 788,-154 794,-148 800,-148 800,-148 924,-148 924,-148 930,-148 936,-154 936,-160 936,-160 936,-172 936,-172 936,-178 930,-184 924,-184"/>
<text text-anchor="middle" x="862" y="-169" font-family="Helvetica,sans-Serif" font-size="10.00">Expenses.tsx</text>
<text text-anchor="middle" x="862" y="-158" font-family="Helvetica,sans-Serif" font-size="10.00">filtrar rango / agregar gasto</text>
</g>
<!-- actor&#45;&gt;view_main -->
<g id="edge1" class="edge">
<title>actor&#45;&gt;view_main</title>
<path fill="none" stroke="#64748b" stroke-width="1.1" d="M356.61,-191.5C500.09,-191.5 862,-191.5 862,-191.5 862,-191.5 862,-190.78 862,-190.78"/>
<polygon fill="#64748b" stroke="#64748b" stroke-width="1.1" points="864.8,-192.26 862,-184.26 859.2,-192.26 864.8,-192.26"/>
<text text-anchor="middle" x="693" y="-203.8" font-family="Helvetica,sans-Serif" font-size="9.00" fill="#64748b">1. filtra fechas o crea gasto</text>
</g>
<!-- preload -->
<g id="node3" class="node">
<title>preload</title>
<path fill="#f5f3ff" stroke="#cbd5e1" stroke-width="1.1" d="M1232,-195C1232,-195 1132,-195 1132,-195 1126,-195 1120,-189 1120,-183 1120,-183 1120,-171 1120,-171 1120,-165 1126,-159 1132,-159 1132,-159 1232,-159 1232,-159 1238,-159 1244,-165 1244,-171 1244,-171 1244,-183 1244,-183 1244,-189 1238,-195 1232,-195"/>
<text text-anchor="middle" x="1182" y="-180" font-family="Helvetica,sans-Serif" font-size="10.00">preload.ts</text>
<text text-anchor="middle" x="1182" y="-169" font-family="Helvetica,sans-Serif" font-size="10.00">api.expenses.add / list</text>
</g>
<!-- view_main&#45;&gt;preload -->
<g id="edge2" class="edge">
<title>view_main&#45;&gt;preload</title>
<path fill="none" stroke="#4f46e5" stroke-width="1.1" d="M936.22,-167.33C936.22,-167.33 1111.76,-167.33 1111.76,-167.33"/>
<polygon fill="#4f46e5" stroke="#4f46e5" stroke-width="1.1" points="1111.76,-170.13 1119.76,-167.33 1111.76,-164.53 1111.76,-170.13"/>
<text text-anchor="middle" x="1028" y="-206.8" font-family="Helvetica,sans-Serif" font-size="9.00" fill="#4f46e5">2. api.expenses.list/add</text>
</g>
<!-- preload&#45;&gt;view_main -->
<g id="edge12" class="edge">
<title>preload&#45;&gt;view_main</title>
<path fill="none" stroke="#4f46e5" stroke-width="1.1" d="M1119.92,-175.67C1119.92,-175.67 944.27,-175.67 944.27,-175.67"/>
<polygon fill="#4f46e5" stroke="#4f46e5" stroke-width="1.1" points="944.27,-172.87 936.27,-175.67 944.27,-178.47 944.27,-172.87"/>
<text text-anchor="middle" x="1028" y="-151.8" font-family="Helvetica,sans-Serif" font-size="9.00" fill="#4f46e5">12. refresca listado y total</text>
</g>
<!-- ipc -->
<g id="node4" class="node">
<title>ipc</title>
<path fill="#f5f3ff" stroke="#cbd5e1" stroke-width="1.1" d="M1598,-207C1598,-207 1466,-207 1466,-207 1460,-207 1454,-201 1454,-195 1454,-195 1454,-183 1454,-183 1454,-177 1460,-171 1466,-171 1466,-171 1598,-171 1598,-171 1604,-171 1610,-177 1610,-183 1610,-183 1610,-195 1610,-195 1610,-201 1604,-207 1598,-207"/>
<text text-anchor="middle" x="1532" y="-192" font-family="Helvetica,sans-Serif" font-size="10.00">expenses.ipc.ts</text>
<text text-anchor="middle" x="1532" y="-181" font-family="Helvetica,sans-Serif" font-size="10.00">expenses:add / expenses:list</text>
</g>
<!-- preload&#45;&gt;ipc -->
<g id="edge3" class="edge">
<title>preload&#45;&gt;ipc</title>
<path fill="none" stroke="#4f46e5" stroke-width="1.1" d="M1244.17,-179C1244.17,-179 1445.86,-179 1445.86,-179"/>
<polygon fill="#4f46e5" stroke="#4f46e5" stroke-width="1.1" points="1445.86,-181.8 1453.86,-179 1445.86,-176.2 1445.86,-181.8"/>
<text text-anchor="middle" x="1349" y="-170.8" font-family="Helvetica,sans-Serif" font-size="9.00" fill="#4f46e5">3. expenses:list o expenses:add</text>
</g>
<!-- ipc&#45;&gt;preload -->
<g id="edge11" class="edge">
<title>ipc&#45;&gt;preload</title>
<path fill="none" stroke="#4f46e5" stroke-width="1.1" d="M1453.89,-187C1453.89,-187 1252.15,-187 1252.15,-187"/>
<polygon fill="#4f46e5" stroke="#4f46e5" stroke-width="1.1" points="1252.15,-184.2 1244.15,-187 1252.15,-189.8 1252.15,-184.2"/>
<text text-anchor="middle" x="1349" y="-225.8" font-family="Helvetica,sans-Serif" font-size="9.00" fill="#4f46e5">11. respuesta IPC</text>
</g>
<!-- repo -->
<g id="node5" class="node">
<title>repo</title>
<path fill="#ecfdf5" stroke="#cbd5e1" stroke-width="1.1" d="M2004.5,-211C2004.5,-211 1834.5,-211 1834.5,-211 1828.5,-211 1822.5,-205 1822.5,-199 1822.5,-199 1822.5,-187 1822.5,-187 1822.5,-181 1828.5,-175 1834.5,-175 1834.5,-175 2004.5,-175 2004.5,-175 2010.5,-175 2016.5,-181 2016.5,-187 2016.5,-187 2016.5,-199 2016.5,-199 2016.5,-205 2010.5,-211 2004.5,-211"/>
<text text-anchor="middle" x="1919.5" y="-196" font-family="Helvetica,sans-Serif" font-size="10.00">expenses.repo.ts</text>
<text text-anchor="middle" x="1919.5" y="-185" font-family="Helvetica,sans-Serif" font-size="10.00">addExpenseRepo / listExpensesRepo</text>
</g>
<!-- ipc&#45;&gt;repo -->
<g id="edge4" class="edge">
<title>ipc&#45;&gt;repo</title>
<path fill="none" stroke="#7c3aed" stroke-width="1.1" d="M1610.42,-191C1610.42,-191 1814.29,-191 1814.29,-191"/>
<polygon fill="#7c3aed" stroke="#7c3aed" stroke-width="1.1" points="1814.29,-193.8 1822.29,-191 1814.29,-188.2 1814.29,-193.8"/>
<text text-anchor="middle" x="1709.5" y="-219.8" font-family="Helvetica,sans-Serif" font-size="9.00" fill="#7c3aed">4. valida expenses:read/write</text>
</g>
<!-- audit -->
<g id="node6" class="node">
<title>audit</title>
<path fill="#ecfdf5" stroke="#cbd5e1" stroke-width="1.1" d="M1958.5,-135C1958.5,-135 1880.5,-135 1880.5,-135 1874.5,-135 1868.5,-129 1868.5,-123 1868.5,-123 1868.5,-111 1868.5,-111 1868.5,-105 1874.5,-99 1880.5,-99 1880.5,-99 1958.5,-99 1958.5,-99 1964.5,-99 1970.5,-105 1970.5,-111 1970.5,-111 1970.5,-123 1970.5,-123 1970.5,-129 1964.5,-135 1958.5,-135"/>
<text text-anchor="middle" x="1919.5" y="-120" font-family="Helvetica,sans-Serif" font-size="10.00">audit repo</text>
<text text-anchor="middle" x="1919.5" y="-109" font-family="Helvetica,sans-Serif" font-size="10.00">EXPENSE_CREATE</text>
</g>
<!-- ipc&#45;&gt;audit -->
<g id="edge9" class="edge">
<title>ipc&#45;&gt;audit</title>
<path fill="none" stroke="#059669" stroke-width="1.1" d="M1532,-170.75C1532,-151.37 1532,-123.5 1532,-123.5 1532,-123.5 1860.44,-123.5 1860.44,-123.5"/>
<polygon fill="#059669" stroke="#059669" stroke-width="1.1" points="1860.44,-126.3 1868.44,-123.5 1860.44,-120.7 1860.44,-126.3"/>
<text text-anchor="middle" x="1709.5" y="-164.8" font-family="Helvetica,sans-Serif" font-size="9.00" fill="#059669">9. si crea gasto =&gt; audit log</text>
</g>
<!-- dao -->
<g id="node7" class="node">
<title>dao</title>
<path fill="#fef3c7" stroke="#cbd5e1" stroke-width="1.1" d="M2018,-52C2018,-52 1821,-52 1821,-52 1815,-52 1809,-46 1809,-40 1809,-40 1809,-28 1809,-28 1809,-22 1815,-16 1821,-16 1821,-16 2018,-16 2018,-16 2024,-16 2030,-22 2030,-28 2030,-28 2030,-40 2030,-40 2030,-46 2024,-52 2018,-52"/>
<text text-anchor="middle" x="1919.5" y="-37" font-family="Helvetica,sans-Serif" font-size="10.00">addExpense / listExpenses</text>
<text text-anchor="middle" x="1919.5" y="-26" font-family="Helvetica,sans-Serif" font-size="10.00">(o addExpenseMySql / listExpensesMySql)</text>
</g>
<!-- repo&#45;&gt;dao -->
<g id="edge5" class="edge">
<title>repo&#45;&gt;dao</title>
<path fill="none" stroke="#059669" stroke-width="1.1" d="M1986,-174.76C1986,-174.76 1986,-60.03 1986,-60.03"/>
<polygon fill="#059669" stroke="#059669" stroke-width="1.1" points="1988.8,-60.03 1986,-52.03 1983.2,-60.03 1988.8,-60.03"/>
<text text-anchor="middle" x="1709.5" y="-94.8" font-family="Helvetica,sans-Serif" font-size="9.00" fill="#059669">5. usa backend activo</text>
</g>
<!-- data -->
<g id="node8" class="node">
<title>data</title>
<path fill="#f3f4f6" stroke="#cbd5e1" stroke-width="1.1" d="M2374,-80C2374,-80 2244,-80 2244,-80 2238,-80 2232,-74 2232,-68 2232,-68 2232,-56 2232,-56 2232,-50 2238,-44 2244,-44 2244,-44 2374,-44 2374,-44 2380,-44 2386,-50 2386,-56 2386,-56 2386,-68 2386,-68 2386,-74 2380,-80 2374,-80"/>
<text text-anchor="middle" x="2309" y="-59.5" font-family="Helvetica,sans-Serif" font-size="10.00">Tabla expenses + audit_logs</text>
</g>
<!-- audit&#45;&gt;data -->
<g id="edge10" class="edge">
<title>audit&#45;&gt;data</title>
<path fill="none" stroke="#334155" stroke-width="1.1" d="M1920,-98.88C1920,-84.22 1920,-66 1920,-66 1920,-66 2223.68,-66 2223.68,-66"/>
<polygon fill="#334155" stroke="#334155" stroke-width="1.1" points="2223.68,-68.8 2231.68,-66 2223.68,-63.2 2223.68,-68.8"/>
<text text-anchor="middle" x="2131" y="-119.8" font-family="Helvetica,sans-Serif" font-size="9.00" fill="#334155">10. inserta audit_logs</text>
</g>
<!-- dao&#45;&gt;repo -->
<g id="edge8" class="edge">
<title>dao&#45;&gt;repo</title>
<path fill="none" stroke="#059669" stroke-width="1.1" d="M2002,-52.24C2002,-52.24 2002,-166.97 2002,-166.97"/>
<polygon fill="#059669" stroke="#059669" stroke-width="1.1" points="1999.2,-166.97 2002,-174.97 2004.8,-166.97 1999.2,-166.97"/>
<text text-anchor="middle" x="1709.5" y="-109.8" font-family="Helvetica,sans-Serif" font-size="9.00" fill="#059669">8. respuesta repo</text>
</g>
<!-- dao&#45;&gt;data -->
<g id="edge6" class="edge">
<title>dao&#45;&gt;data</title>
<path fill="none" stroke="#d97706" stroke-width="1.1" d="M2030.07,-46.67C2030.07,-46.67 2223.84,-46.67 2223.84,-46.67"/>
<polygon fill="#d97706" stroke="#d97706" stroke-width="1.1" points="2223.84,-49.47 2231.84,-46.67 2223.84,-43.87 2223.84,-49.47"/>
<text text-anchor="middle" x="2131" y="-64.8" font-family="Helvetica,sans-Serif" font-size="9.00" fill="#d97706">6. SELECT o INSERT expenses</text>
</g>
<!-- data&#45;&gt;dao -->
<g id="edge7" class="edge">
<title>data&#45;&gt;dao</title>
<path fill="none" stroke="#334155" stroke-width="1.1" d="M2231.58,-49.33C2231.58,-49.33 2038.33,-49.33 2038.33,-49.33"/>
<polygon fill="#334155" stroke="#334155" stroke-width="1.1" points="2038.33,-46.53 2030.33,-49.33 2038.33,-52.13 2038.33,-46.53"/>
<text text-anchor="middle" x="2131" y="-9.8" font-family="Helvetica,sans-Serif" font-size="9.00" fill="#334155">7. filas / id creado</text>
</g>
<!-- note1 -->
<g id="node9" class="node">
<title>note1</title>
<polygon fill="#f8fafc" stroke="#cbd5e1" stroke-width="1.1" points="592,-148 0,-148 0,-112 598,-112 598,-142 592,-148"/>
<polyline fill="none" stroke="#cbd5e1" stroke-width="1.1" points="592,-148 592,-142 "/>
<polyline fill="none" stroke="#cbd5e1" stroke-width="1.1" points="598,-142 592,-142 "/>
<text text-anchor="middle" x="299" y="-127.5" font-family="Helvetica,sans-Serif" font-size="10.00">Expenses.tsx usa directamente window.api/ipc para listar y crear; el repositorio vuelve a decidir si usa SQLite o MySQL.</text>
</g>
<!-- note1&#45;&gt;view_main -->
<g id="edge13" class="edge">
<title>note1&#45;&gt;view_main</title>
<path fill="none" stroke="#94a3b8" stroke-width="1.1" stroke-dasharray="5,2" d="M598.22,-141.5C732.82,-141.5 862,-141.5 862,-141.5 862,-141.5 862,-144.26 862,-147.94"/>
</g>
</g>
</svg>
