<?xml version="1.0" encoding="UTF-8" standalone="no"?>
<!DOCTYPE svg PUBLIC "-//W3C//DTD SVG 1.1//EN"
 "http://www.w3.org/Graphics/SVG/1.1/DTD/svg11.dtd">
<!-- Generated by graphviz version 2.42.4 (0)
 -->
<!-- Title: G Pages: 1 -->
<svg width="2071pt" height="607pt"
 viewBox="0.00 0.00 2071.00 607.00" xmlns="http://www.w3.org/2000/svg" xmlns:xlink="http://www.w3.org/1999/xlink">
<g id="graph0" class="graph" transform="scale(1 1) rotate(0) translate(4 603)">
<title>G</title>
<polygon fill="white" stroke="transparent" points="-4,4 -4,-603 2067,-603 2067,4 -4,4"/>
<text text-anchor="middle" x="1031.5" y="-583.8" font-family="Helvetica,sans-Serif" font-size="14.00">Reportes generales, dashboard y cierre diario</text>
<g id="clust1" class="cluster">
<title>cluster_actor</title>
<path fill="white" stroke="#fdba74" d="M300.23,-456C300.23,-456 461.77,-456 461.77,-456 467.77,-456 473.77,-462 473.77,-468 473.77,-468 473.77,-519 473.77,-519 473.77,-525 467.77,-531 461.77,-531 461.77,-531 300.23,-531 300.23,-531 294.23,-531 288.23,-525 288.23,-519 288.23,-519 288.23,-468 288.23,-468 288.23,-462 294.23,-456 300.23,-456"/>
<text text-anchor="middle" x="381" y="-515.8" font-family="Helvetica,sans-Serif" font-size="14.00">Actor</text>
</g>
<g id="clust2" class="cluster">
<title>cluster_view</title>
<path fill="white" stroke="#60a5fa" d="M1013,-304C1013,-304 1254,-304 1254,-304 1260,-304 1266,-310 1266,-316 1266,-316 1266,-519 1266,-519 1266,-525 1260,-531 1254,-531 1254,-531 1013,-531 1013,-531 1007,-531 1001,-525 1001,-519 1001,-519 1001,-316 1001,-316 1001,-310 1007,-304 1013,-304"/>
<text text-anchor="middle" x="1133.5" y="-515.8" font-family="Helvetica,sans-Serif" font-size="14.00">Vista</text>
</g>
<g id="clust3" class="cluster">
<title>cluster_controller</title>
<path fill="white" stroke="#a78bfa" d="M1595.5,-285C1595.5,-285 2043,-285 2043,-285 2049,-285 2055,-291 2055,-297 2055,-297 2055,-417 2055,-417 2055,-423 2049,-429 2043,-429 2043,-429 1595.5,-429 1595.5,-429 1589.5,-429 1583.5,-423 1583.5,-417 1583.5,-417 1583.5,-297 1583.5,-297 1583.5,-291 1589.5,-285 1595.5,-285"/>
<text text-anchor="middle" x="1819.25" y="-413.8" font-family="Helvetica,sans-Serif" font-size="14.00">Controller</text>
</g>
<g id="clust4" class="cluster">
<title>cluster_model</title>
<path fill="white" stroke="#34d399" d="M1561,-21C1561,-21 1802,-21 1802,-21 1808,-21 1814,-27 1814,-33 1814,-33 1814,-100 1814,-100 1814,-106 1808,-112 1802,-112 1802,-112 1561,-112 1561,-112 1555,-112 1549,-106 1549,-100 1549,-100 1549,-33 1549,-33 1549,-27 1555,-21 1561,-21"/>
<text text-anchor="middle" x="1681.5" y="-96.8" font-family="Helvetica,sans-Serif" font-size="14.00">Model</text>
</g>
<g id="clust5" class="cluster">
<title>cluster_dao</title>
<path fill="white" stroke="#f59e0b" d="M1069.5,-57C1069.5,-57 1197.5,-57 1197.5,-57 1203.5,-57 1209.5,-63 1209.5,-69 1209.5,-69 1209.5,-120 1209.5,-120 1209.5,-126 1203.5,-132 1197.5,-132 1197.5,-132 1069.5,-132 1069.5,-132 1063.5,-132 1057.5,-126 1057.5,-120 1057.5,-120 1057.5,-69 1057.5,-69 1057.5,-63 1063.5,-57 1069.5,-57"/>
<text text-anchor="middle" x="1133.5" y="-116.8" font-family="Helvetica,sans-Serif" font-size="14.00">DAO</text>
</g>
<g id="clust6" class="cluster">
<title>cluster_data</title>
<path fill="white" stroke="#94a3b8" d="M1570,-120C1570,-120 1793,-120 1793,-120 1799,-120 1805,-126 1805,-132 1805,-132 1805,-259 1805,-259 1805,-265 1799,-271 1793,-271 1793,-271 1570,-271 1570,-271 1564,-271 1558,-265 1558,-259 1558,-259 1558,-132 1558,-132 1558,-126 1564,-120 1570,-120"/>
<text text-anchor="middle" x="1681.5" y="-255.8" font-family="Helvetica,sans-Serif" font-size="14.00">Datos / salida</text>
</g>
<!-- actor -->
<g id="node1" class="node">
<title>actor</title>
<ellipse fill="#fff7ed" stroke="#cbd5e1" stroke-width="1.1" cx="381" cy="-482" rx="84.54" ry="18"/>
<text text-anchor="middle" x="381" y="-479.5" font-family="Helvetica,sans-Serif" font-size="10.00">Administrador / Supervisor</text>
</g>
<!-- dashboard -->
<g id="node2" class="node">
<title>dashboard</title>
<path fill="#eff6ff" stroke="#cbd5e1" stroke-width="1.1" d="M1246,-500C1246,-500 1021,-500 1021,-500 1015,-500 1009,-494 1009,-488 1009,-488 1009,-476 1009,-476 1009,-470 1015,-464 1021,-464 1021,-464 1246,-464 1246,-464 1252,-464 1258,-470 1258,-476 1258,-476 1258,-488 1258,-488 1258,-494 1252,-500 1246,-500"/>
<text text-anchor="middle" x="1133.5" y="-485" font-family="Helvetica,sans-Serif" font-size="10.00">Dashboard.tsx</text>
<text text-anchor="middle" x="1133.5" y="-474" font-family="Helvetica,sans-Serif" font-size="10.00">todaySummary + last7DaysSales + cash status</text>
</g>
<!-- actor&#45;&gt;dashboard -->
<g id="edge1" class="edge">
<title>actor&#45;&gt;dashboard</title>
<path fill="none" stroke="#64748b" stroke-width="1.1" d="M465.86,-482C465.86,-482 1000.74,-482 1000.74,-482"/>
<polygon fill="#64748b" stroke="#64748b" stroke-width="1.1" points="1000.74,-484.8 1008.74,-482 1000.74,-479.2 1000.74,-484.8"/>
<text text-anchor="middle" x="885.5" y="-484.8" font-family="Helvetica,sans-Serif" font-size="9.00" fill="#64748b">1. abre dashboard/reportes/cierre diario</text>
</g>
<!-- preload -->
<g id="node5" class="node">
<title>preload</title>
<path fill="#f5f3ff" stroke="#cbd5e1" stroke-width="1.1" d="M1759.5,-398C1759.5,-398 1603.5,-398 1603.5,-398 1597.5,-398 1591.5,-392 1591.5,-386 1591.5,-386 1591.5,-374 1591.5,-374 1591.5,-368 1597.5,-362 1603.5,-362 1603.5,-362 1759.5,-362 1759.5,-362 1765.5,-362 1771.5,-368 1771.5,-374 1771.5,-374 1771.5,-386 1771.5,-386 1771.5,-392 1765.5,-398 1759.5,-398"/>
<text text-anchor="middle" x="1681.5" y="-383" font-family="Helvetica,sans-Serif" font-size="10.00">preload.ts</text>
<text text-anchor="middle" x="1681.5" y="-372" font-family="Helvetica,sans-Serif" font-size="10.00">api.reports.* + api.cash.getStatus</text>
</g>
<!-- dashboard&#45;&gt;preload -->
<g id="edge2" class="edge">
<title>dashboard&#45;&gt;preload</title>
<path fill="none" stroke="#4f46e5" stroke-width="1.1" d="M1244,-463.77C1244,-437.99 1244,-394 1244,-394 1244,-394 1583.38,-394 1583.38,-394"/>
<polygon fill="#4f46e5" stroke="#4f46e5" stroke-width="1.1" points="1583.38,-396.8 1591.38,-394 1583.38,-391.2 1583.38,-396.8"/>
<text text-anchor="middle" x="1407.5" y="-497.8" font-family="Helvetica,sans-Serif" font-size="9.00" fill="#4f46e5">2a. todaySummary + last7DaysSales + cash status</text>
</g>
<!-- reports -->
<g id="node3" class="node">
<title>reports</title>
<path fill="#eff6ff" stroke="#cbd5e1" stroke-width="1.1" d="M1224,-424C1224,-424 1043,-424 1043,-424 1037,-424 1031,-418 1031,-412 1031,-412 1031,-400 1031,-400 1031,-394 1037,-388 1043,-388 1043,-388 1224,-388 1224,-388 1230,-388 1236,-394 1236,-400 1236,-400 1236,-412 1236,-412 1236,-418 1230,-424 1224,-424"/>
<text text-anchor="middle" x="1133.5" y="-409" font-family="Helvetica,sans-Serif" font-size="10.00">Reports.tsx</text>
<text text-anchor="middle" x="1133.5" y="-398" font-family="Helvetica,sans-Serif" font-size="10.00">salesByDay + topProducts + summary</text>
</g>
<!-- reports&#45;&gt;preload -->
<g id="edge3" class="edge">
<title>reports&#45;&gt;preload</title>
<path fill="none" stroke="#4f46e5" stroke-width="1.1" d="M1236.25,-390C1236.25,-390 1583.48,-390 1583.48,-390"/>
<polygon fill="#4f46e5" stroke="#4f46e5" stroke-width="1.1" points="1583.48,-392.8 1591.48,-390 1583.48,-387.2 1583.48,-392.8"/>
<text text-anchor="middle" x="1407.5" y="-442.8" font-family="Helvetica,sans-Serif" font-size="9.00" fill="#4f46e5">2b. salesByDay + topProducts + summary</text>
</g>
<!-- daily -->
<g id="node4" class="node">
<title>daily</title>
<path fill="#eff6ff" stroke="#cbd5e1" stroke-width="1.1" d="M1224,-348C1224,-348 1043,-348 1043,-348 1037,-348 1031,-342 1031,-336 1031,-336 1031,-324 1031,-324 1031,-318 1037,-312 1043,-312 1043,-312 1224,-312 1224,-312 1230,-312 1236,-318 1236,-324 1236,-324 1236,-336 1236,-336 1236,-342 1230,-348 1224,-348"/>
<text text-anchor="middle" x="1133.5" y="-333" font-family="Helvetica,sans-Serif" font-size="10.00">DailyClose.tsx</text>
<text text-anchor="middle" x="1133.5" y="-322" font-family="Helvetica,sans-Serif" font-size="10.00">reportDailyClose + exportar HTML/PDF</text>
</g>
<!-- daily&#45;&gt;preload -->
<g id="edge4" class="edge">
<title>daily&#45;&gt;preload</title>
<path fill="none" stroke="#4f46e5" stroke-width="1.1" d="M1236.25,-345.33C1387.41,-345.33 1652,-345.33 1652,-345.33 1652,-345.33 1652,-353.85 1652,-353.85"/>
<polygon fill="#4f46e5" stroke="#4f46e5" stroke-width="1.1" points="1649.2,-353.85 1652,-361.85 1654.8,-353.85 1649.2,-353.85"/>
<text text-anchor="middle" x="1407.5" y="-332.8" font-family="Helvetica,sans-Serif" font-size="9.00" fill="#4f46e5">2c. reportDailyClose(from,to)</text>
</g>
<!-- file -->
<g id="node10" class="node">
<title>file</title>
<path fill="#f3f4f6" stroke="#cbd5e1" stroke-width="1.1" d="M1785,-240C1785,-240 1578,-240 1578,-240 1572,-240 1566,-234 1566,-228 1566,-228 1566,-216 1566,-216 1566,-210 1572,-204 1578,-204 1578,-204 1785,-204 1785,-204 1791,-204 1797,-210 1797,-216 1797,-216 1797,-228 1797,-228 1797,-234 1791,-240 1785,-240"/>
<text text-anchor="middle" x="1681.5" y="-219.5" font-family="Helvetica,sans-Serif" font-size="10.00">Gráficas y documento HTML del cierre diario</text>
</g>
<!-- daily&#45;&gt;file -->
<g id="edge16" class="edge">
<title>daily&#45;&gt;file</title>
<path fill="none" stroke="#334155" stroke-width="1.1" d="M1236.27,-326C1367.83,-326 1579,-326 1579,-326 1579,-326 1579,-248.12 1579,-248.12"/>
<polygon fill="#334155" stroke="#334155" stroke-width="1.1" points="1581.8,-248.12 1579,-240.12 1576.2,-248.12 1581.8,-248.12"/>
<text text-anchor="middle" x="1407.5" y="-222.8" font-family="Helvetica,sans-Serif" font-size="9.00" fill="#334155">12. buildDailyCloseHtml + vista previa/print</text>
</g>
<!-- preload&#45;&gt;dashboard -->
<g id="edge13" class="edge">
<title>preload&#45;&gt;dashboard</title>
<path fill="none" stroke="#4f46e5" stroke-width="1.1" d="M1591.25,-396C1465.02,-396 1251,-396 1251,-396 1251,-396 1251,-455.76 1251,-455.76"/>
<polygon fill="#4f46e5" stroke="#4f46e5" stroke-width="1.1" points="1248.2,-455.76 1251,-463.76 1253.8,-455.76 1248.2,-455.76"/>
<text text-anchor="middle" x="1407.5" y="-552.8" font-family="Helvetica,sans-Serif" font-size="9.00" fill="#4f46e5">11a. cards + gráfico 7 días</text>
</g>
<!-- preload&#45;&gt;reports -->
<g id="edge14" class="edge">
<title>preload&#45;&gt;reports</title>
<path fill="none" stroke="#4f46e5" stroke-width="1.1" d="M1591.32,-392C1591.32,-392 1244.38,-392 1244.38,-392"/>
<polygon fill="#4f46e5" stroke="#4f46e5" stroke-width="1.1" points="1244.38,-389.2 1236.38,-392 1244.38,-394.8 1244.38,-389.2"/>
<text text-anchor="middle" x="1407.5" y="-387.8" font-family="Helvetica,sans-Serif" font-size="9.00" fill="#4f46e5">11b. charts + top productos</text>
</g>
<!-- preload&#45;&gt;daily -->
<g id="edge15" class="edge">
<title>preload&#45;&gt;daily</title>
<path fill="none" stroke="#4f46e5" stroke-width="1.1" d="M1712,-361.77C1712,-352.29 1712,-342.67 1712,-342.67 1712,-342.67 1244.26,-342.67 1244.26,-342.67"/>
<polygon fill="#4f46e5" stroke="#4f46e5" stroke-width="1.1" points="1244.26,-339.87 1236.26,-342.67 1244.26,-345.47 1244.26,-339.87"/>
<text text-anchor="middle" x="1407.5" y="-277.8" font-family="Helvetica,sans-Serif" font-size="9.00" fill="#4f46e5">11c. resumen neto + export</text>
</g>
<!-- ipc -->
<g id="node6" class="node">
<title>ipc</title>
<path fill="#f5f3ff" stroke="#cbd5e1" stroke-width="1.1" d="M2035,-340C2035,-340 1981,-340 1981,-340 1975,-340 1969,-334 1969,-328 1969,-328 1969,-316 1969,-316 1969,-310 1975,-304 1981,-304 1981,-304 2035,-304 2035,-304 2041,-304 2047,-310 2047,-316 2047,-316 2047,-328 2047,-328 2047,-334 2041,-340 2035,-340"/>
<text text-anchor="middle" x="2008" y="-325" font-family="Helvetica,sans-Serif" font-size="10.00">reports.ipc.ts</text>
<text text-anchor="middle" x="2008" y="-314" font-family="Helvetica,sans-Serif" font-size="10.00">reports:*</text>
</g>
<!-- preload&#45;&gt;ipc -->
<g id="edge5" class="edge">
<title>preload&#45;&gt;ipc</title>
<path fill="none" stroke="#4f46e5" stroke-width="1.1" d="M1771.76,-374C1864.37,-374 1995,-374 1995,-374 1995,-374 1995,-348.19 1995,-348.19"/>
<polygon fill="#4f46e5" stroke="#4f46e5" stroke-width="1.1" points="1997.8,-348.19 1995,-340.19 1992.2,-348.19 1997.8,-348.19"/>
<text text-anchor="middle" x="1887.5" y="-335.8" font-family="Helvetica,sans-Serif" font-size="9.00" fill="#4f46e5">3. reports:*</text>
</g>
<!-- ipc&#45;&gt;preload -->
<g id="edge12" class="edge">
<title>ipc&#45;&gt;preload</title>
<path fill="none" stroke="#4f46e5" stroke-width="1.1" d="M2021,-340.17C2021,-359.09 2021,-386 2021,-386 2021,-386 1779.59,-386 1779.59,-386"/>
<polygon fill="#4f46e5" stroke="#4f46e5" stroke-width="1.1" points="1779.59,-383.2 1771.59,-386 1779.59,-388.8 1779.59,-383.2"/>
<text text-anchor="middle" x="1887.5" y="-390.8" font-family="Helvetica,sans-Serif" font-size="9.00" fill="#4f46e5">10. respuesta IPC</text>
</g>
<!-- repo -->
<g id="node7" class="node">
<title>repo</title>
<path fill="#ecfdf5" stroke="#cbd5e1" stroke-width="1.1" d="M1794,-81C1794,-81 1569,-81 1569,-81 1563,-81 1557,-75 1557,-69 1557,-69 1557,-41 1557,-41 1557,-35 1563,-29 1569,-29 1569,-29 1794,-29 1794,-29 1800,-29 1806,-35 1806,-41 1806,-41 1806,-69 1806,-69 1806,-75 1800,-81 1794,-81"/>
<text text-anchor="middle" x="1681.5" y="-69" font-family="Helvetica,sans-Serif" font-size="10.00">reports.repo.ts</text>
<text text-anchor="middle" x="1681.5" y="-58" font-family="Helvetica,sans-Serif" font-size="10.00">reportSalesByDayRepo, reportTopProductsRepo,</text>
<text text-anchor="middle" x="1681.5" y="-47" font-family="Helvetica,sans-Serif" font-size="10.00">reportSummaryRepo, getTodaySummaryRepo,</text>
<text text-anchor="middle" x="1681.5" y="-36" font-family="Helvetica,sans-Serif" font-size="10.00">getLast7DaysSalesRepo, reportDailyCloseRepo</text>
</g>
<!-- ipc&#45;&gt;repo -->
<g id="edge6" class="edge">
<title>ipc&#45;&gt;repo</title>
<path fill="none" stroke="#7c3aed" stroke-width="1.1" d="M1968.88,-309.33C1908.62,-309.33 1800,-309.33 1800,-309.33 1800,-309.33 1800,-89.26 1800,-89.26"/>
<polygon fill="#7c3aed" stroke="#7c3aed" stroke-width="1.1" points="1802.8,-89.26 1800,-81.26 1797.2,-89.26 1802.8,-89.26"/>
<text text-anchor="middle" x="1887.5" y="-241.8" font-family="Helvetica,sans-Serif" font-size="9.00" fill="#7c3aed">4. valida reports:read</text>
</g>
<!-- repo&#45;&gt;ipc -->
<g id="edge11" class="edge">
<title>repo&#45;&gt;ipc</title>
<path fill="none" stroke="#059669" stroke-width="1.1" d="M1803,-81.46C1803,-146.07 1803,-306.67 1803,-306.67 1803,-306.67 1960.96,-306.67 1960.96,-306.67"/>
<polygon fill="#059669" stroke="#059669" stroke-width="1.1" points="1960.96,-309.47 1968.96,-306.67 1960.96,-303.87 1960.96,-309.47"/>
<text text-anchor="middle" x="1887.5" y="-143.8" font-family="Helvetica,sans-Serif" font-size="9.00" fill="#059669">9. resultado listo</text>
</g>
<!-- dao -->
<g id="node8" class="node">
<title>dao</title>
<path fill="#fef3c7" stroke="#cbd5e1" stroke-width="1.1" d="M1189.5,-101C1189.5,-101 1077.5,-101 1077.5,-101 1071.5,-101 1065.5,-95 1065.5,-89 1065.5,-89 1065.5,-77 1065.5,-77 1065.5,-71 1071.5,-65 1077.5,-65 1077.5,-65 1189.5,-65 1189.5,-65 1195.5,-65 1201.5,-71 1201.5,-77 1201.5,-77 1201.5,-89 1201.5,-89 1201.5,-95 1195.5,-101 1189.5,-101"/>
<text text-anchor="middle" x="1133.5" y="-86" font-family="Helvetica,sans-Serif" font-size="10.00">queries.ts report*</text>
<text text-anchor="middle" x="1133.5" y="-75" font-family="Helvetica,sans-Serif" font-size="10.00">o mysql/reports.mysql.ts</text>
</g>
<!-- repo&#45;&gt;dao -->
<g id="edge7" class="edge">
<title>repo&#45;&gt;dao</title>
<path fill="none" stroke="#059669" stroke-width="1.1" d="M1556.81,-70.33C1556.81,-70.33 1209.76,-70.33 1209.76,-70.33"/>
<polygon fill="#059669" stroke="#059669" stroke-width="1.1" points="1209.76,-67.53 1201.76,-70.33 1209.76,-73.13 1209.76,-67.53"/>
<text text-anchor="middle" x="1407.5" y="-57.8" font-family="Helvetica,sans-Serif" font-size="9.00" fill="#059669">5. ejecuta consultas agregadas</text>
</g>
<!-- dao&#45;&gt;repo -->
<g id="edge10" class="edge">
<title>dao&#45;&gt;repo</title>
<path fill="none" stroke="#059669" stroke-width="1.1" d="M1201.52,-75.67C1201.52,-75.67 1548.74,-75.67 1548.74,-75.67"/>
<polygon fill="#059669" stroke="#059669" stroke-width="1.1" points="1548.74,-78.47 1556.74,-75.67 1548.74,-72.87 1548.74,-78.47"/>
<text text-anchor="middle" x="1407.5" y="-2.8" font-family="Helvetica,sans-Serif" font-size="9.00" fill="#059669">8. respuesta repo</text>
</g>
<!-- data -->
<g id="node9" class="node">
<title>data</title>
<path fill="#f3f4f6" stroke="#cbd5e1" stroke-width="1.1" d="M1769.5,-164C1769.5,-164 1593.5,-164 1593.5,-164 1587.5,-164 1581.5,-158 1581.5,-152 1581.5,-152 1581.5,-140 1581.5,-140 1581.5,-134 1587.5,-128 1593.5,-128 1593.5,-128 1769.5,-128 1769.5,-128 1775.5,-128 1781.5,-134 1781.5,-140 1781.5,-140 1781.5,-152 1781.5,-152 1781.5,-158 1775.5,-164 1769.5,-164"/>
<text text-anchor="middle" x="1681.5" y="-149" font-family="Helvetica,sans-Serif" font-size="10.00">sales, sale_items, expenses, products</text>
<text text-anchor="middle" x="1681.5" y="-138" font-family="Helvetica,sans-Serif" font-size="10.00">+ cash status</text>
</g>
<!-- dao&#45;&gt;data -->
<g id="edge8" class="edge">
<title>dao&#45;&gt;data</title>
<path fill="none" stroke="#d97706" stroke-width="1.1" d="M1111,-101.13C1111,-121.57 1111,-152 1111,-152 1111,-152 1573.47,-152 1573.47,-152"/>
<polygon fill="#d97706" stroke="#d97706" stroke-width="1.1" points="1573.47,-154.8 1581.47,-152 1573.47,-149.2 1573.47,-154.8"/>
<text text-anchor="middle" x="1407.5" y="-112.8" font-family="Helvetica,sans-Serif" font-size="9.00" fill="#d97706">6. suma ventas, costos, gastos, top y por método</text>
</g>
<!-- data&#45;&gt;dao -->
<g id="edge9" class="edge">
<title>data&#45;&gt;dao</title>
<path fill="none" stroke="#334155" stroke-width="1.1" d="M1581.3,-140C1429.06,-140 1157,-140 1157,-140 1157,-140 1157,-109.04 1157,-109.04"/>
<polygon fill="#334155" stroke="#334155" stroke-width="1.1" points="1159.8,-109.04 1157,-101.04 1154.2,-109.04 1159.8,-109.04"/>
<text text-anchor="middle" x="1407.5" y="-167.8" font-family="Helvetica,sans-Serif" font-size="9.00" fill="#334155">7. dataset consolidado</text>
</g>
<!-- note1 -->
<g id="node11" class="node">
<title>note1</title>
<polygon fill="#f8fafc" stroke="#cbd5e1" stroke-width="1.1" points="756,-576 0,-576 0,-540 762,-540 762,-570 756,-576"/>
<polyline fill="none" stroke="#cbd5e1" stroke-width="1.1" points="756,-576 756,-570 "/>
<polyline fill="none" stroke="#cbd5e1" stroke-width="1.1" points="762,-570 756,-570 "/>
<text text-anchor="middle" x="381" y="-555.5" font-family="Helvetica,sans-Serif" font-size="10.00">El cierre diario NO usa cash_closures; se calcula como resumen analítico del día por ventas, devoluciones, utilidad, gastos y totales por método de pago.</text>
</g>
<!-- view_main -->
<g id="node12" class="node">
<title>view_main</title>
<path fill="#cbd5e1" stroke="#cbd5e1" stroke-width="1.1" d="M1155.5,-576C1155.5,-576 1111.5,-576 1111.5,-576 1105.5,-576 1099.5,-570 1099.5,-564 1099.5,-564 1099.5,-552 1099.5,-552 1099.5,-546 1105.5,-540 1111.5,-540 1111.5,-540 1155.5,-540 1155.5,-540 1161.5,-540 1167.5,-546 1167.5,-552 1167.5,-552 1167.5,-564 1167.5,-564 1167.5,-570 1161.5,-576 1155.5,-576"/>
<text text-anchor="middle" x="1133.5" y="-555.5" font-family="Helvetica,sans-Serif" font-size="10.00">view_main</text>
</g>
<!-- note1&#45;&gt;view_main -->
<g id="edge17" class="edge">
<title>note1&#45;&gt;view_main</title>
<path fill="none" stroke="#94a3b8" stroke-width="1.1" stroke-dasharray="5,2" d="M762.21,-558C900.23,-558 1037.36,-558 1099.29,-558"/>
</g>
</g>
</svg>
