<?xml version="1.0" encoding="UTF-8" standalone="no"?>
<!DOCTYPE svg PUBLIC "-//W3C//DTD SVG 1.1//EN"
 "http://www.w3.org/Graphics/SVG/1.1/DTD/svg11.dtd">
<!-- Generated by graphviz version 2.42.4 (0)
 -->
<!-- Title: G Pages: 1 -->
<svg width="2619pt" height="484pt"
 viewBox="0.00 0.00 2619.00 484.00" xmlns="http://www.w3.org/2000/svg" xmlns:xlink="http://www.w3.org/1999/xlink">
<g id="graph0" class="graph" transform="scale(1 1) rotate(0) translate(4 480)">
<title>G</title>
<polygon fill="white" stroke="transparent" points="-4,4 -4,-480 2615,-480 2615,4 -4,4"/>
<text text-anchor="middle" x="1305.5" y="-460.8" font-family="Helvetica,sans-Serif" font-size="14.00">Listar usuarios, crear usuario y resetear/cambiar contraseña</text>
<g id="clust1" class="cluster">
<title>cluster_actor</title>
<path fill="white" stroke="#fdba74" d="M1009.05,-243C1009.05,-243 1099.95,-243 1099.95,-243 1105.95,-243 1111.95,-249 1111.95,-255 1111.95,-255 1111.95,-306 1111.95,-306 1111.95,-312 1105.95,-318 1099.95,-318 1099.95,-318 1009.05,-318 1009.05,-318 1003.05,-318 997.05,-312 997.05,-306 997.05,-306 997.05,-255 997.05,-255 997.05,-249 1003.05,-243 1009.05,-243"/>
<text text-anchor="middle" x="1054.5" y="-302.8" font-family="Helvetica,sans-Serif" font-size="14.00">Actor</text>
</g>
<g id="clust2" class="cluster">
<title>cluster_view</title>
<path fill="white" stroke="#60a5fa" d="M1382,-195C1382,-195 1542,-195 1542,-195 1548,-195 1554,-201 1554,-207 1554,-207 1554,-334 1554,-334 1554,-340 1548,-346 1542,-346 1542,-346 1382,-346 1382,-346 1376,-346 1370,-340 1370,-334 1370,-334 1370,-207 1370,-207 1370,-201 1376,-195 1382,-195"/>
<text text-anchor="middle" x="1462" y="-330.8" font-family="Helvetica,sans-Serif" font-size="14.00">Vista</text>
</g>
<g id="clust3" class="cluster">
<title>cluster_controller</title>
<path fill="white" stroke="#a78bfa" d="M308,-8C308,-8 1548,-8 1548,-8 1554,-8 1560,-14 1560,-20 1560,-20 1560,-140 1560,-140 1560,-146 1554,-152 1548,-152 1548,-152 308,-152 308,-152 302,-152 296,-146 296,-140 296,-140 296,-20 296,-20 296,-14 302,-8 308,-8"/>
<text text-anchor="middle" x="928" y="-136.8" font-family="Helvetica,sans-Serif" font-size="14.00">Controller</text>
</g>
<g id="clust4" class="cluster">
<title>cluster_model</title>
<path fill="white" stroke="#34d399" d="M1772,-94C1772,-94 2123,-94 2123,-94 2129,-94 2135,-100 2135,-106 2135,-106 2135,-157 2135,-157 2135,-163 2129,-169 2123,-169 2123,-169 1772,-169 1772,-169 1766,-169 1760,-163 1760,-157 1760,-157 1760,-106 1760,-106 1760,-100 1766,-94 1772,-94"/>
<text text-anchor="middle" x="1947.5" y="-153.8" font-family="Helvetica,sans-Serif" font-size="14.00">Model</text>
</g>
<g id="clust5" class="cluster">
<title>cluster_dao</title>
<path fill="white" stroke="#f59e0b" d="M1842,-11C1842,-11 2053,-11 2053,-11 2059,-11 2065,-17 2065,-23 2065,-23 2065,-74 2065,-74 2065,-80 2059,-86 2053,-86 2053,-86 1842,-86 1842,-86 1836,-86 1830,-80 1830,-74 1830,-74 1830,-23 1830,-23 1830,-17 1836,-11 1842,-11"/>
<text text-anchor="middle" x="1947.5" y="-70.8" font-family="Helvetica,sans-Serif" font-size="14.00">DAO</text>
</g>
<g id="clust6" class="cluster">
<title>cluster_data</title>
<path fill="white" stroke="#94a3b8" d="M2345,-39C2345,-39 2591,-39 2591,-39 2597,-39 2603,-45 2603,-51 2603,-51 2603,-102 2603,-102 2603,-108 2597,-114 2591,-114 2591,-114 2345,-114 2345,-114 2339,-114 2333,-108 2333,-102 2333,-102 2333,-51 2333,-51 2333,-45 2339,-39 2345,-39"/>
<text text-anchor="middle" x="2468" y="-98.8" font-family="Helvetica,sans-Serif" font-size="14.00">Datos</text>
</g>
<!-- actor -->
<g id="node1" class="node">
<title>actor</title>
<ellipse fill="#fff7ed" stroke="#cbd5e1" stroke-width="1.1" cx="1054.5" cy="-269" rx="49.4" ry="18"/>
<text text-anchor="middle" x="1054.5" y="-266.5" font-family="Helvetica,sans-Serif" font-size="10.00">Administrador</text>
</g>
<!-- users -->
<g id="node2" class="node">
<title>users</title>
<path fill="#eff6ff" stroke="#cbd5e1" stroke-width="1.1" d="M1512.5,-315C1512.5,-315 1411.5,-315 1411.5,-315 1405.5,-315 1399.5,-309 1399.5,-303 1399.5,-303 1399.5,-291 1399.5,-291 1399.5,-285 1405.5,-279 1411.5,-279 1411.5,-279 1512.5,-279 1512.5,-279 1518.5,-279 1524.5,-285 1524.5,-291 1524.5,-291 1524.5,-303 1524.5,-303 1524.5,-309 1518.5,-315 1512.5,-315"/>
<text text-anchor="middle" x="1462" y="-300" font-family="Helvetica,sans-Serif" font-size="10.00">Users.tsx</text>
<text text-anchor="middle" x="1462" y="-289" font-family="Helvetica,sans-Serif" font-size="10.00">listado, crear, resetear</text>
</g>
<!-- actor&#45;&gt;users -->
<g id="edge1" class="edge">
<title>actor&#45;&gt;users</title>
<path fill="none" stroke="#64748b" stroke-width="1.1" d="M1080.61,-284.33C1080.61,-284.33 1391.35,-284.33 1391.35,-284.33"/>
<polygon fill="#64748b" stroke="#64748b" stroke-width="1.1" points="1391.35,-287.13 1399.35,-284.33 1391.35,-281.53 1391.35,-287.13"/>
<text text-anchor="middle" x="1265" y="-333.8" font-family="Helvetica,sans-Serif" font-size="9.00" fill="#64748b">1. abre gestión de usuarios</text>
</g>
<!-- service -->
<g id="node4" class="node">
<title>service</title>
<path fill="#f5f3ff" stroke="#cbd5e1" stroke-width="1.1" d="M508,-121C508,-121 316,-121 316,-121 310,-121 304,-115 304,-109 304,-109 304,-97 304,-97 304,-91 310,-85 316,-85 316,-85 508,-85 508,-85 514,-85 520,-91 520,-97 520,-97 520,-109 520,-109 520,-115 514,-121 508,-121"/>
<text text-anchor="middle" x="412" y="-106" font-family="Helvetica,sans-Serif" font-size="10.00">services/users.ts</text>
<text text-anchor="middle" x="412" y="-95" font-family="Helvetica,sans-Serif" font-size="10.00">listUsers, createUser, resetUserPassword</text>
</g>
<!-- users&#45;&gt;service -->
<g id="edge2" class="edge">
<title>users&#45;&gt;service</title>
<path fill="none" stroke="#4f46e5" stroke-width="1.1" d="M1399.46,-301C1173.42,-301 412,-301 412,-301 412,-301 412,-129.27 412,-129.27"/>
<polygon fill="#4f46e5" stroke="#4f46e5" stroke-width="1.1" points="414.8,-129.27 412,-121.27 409.2,-129.27 414.8,-129.27"/>
<text text-anchor="middle" x="1054.5" y="-369.8" font-family="Helvetica,sans-Serif" font-size="9.00" fill="#4f46e5">2a. listUsers / createUser / resetUserPassword</text>
</g>
<!-- change -->
<g id="node3" class="node">
<title>change</title>
<path fill="#eff6ff" stroke="#cbd5e1" stroke-width="1.1" d="M1534,-239C1534,-239 1390,-239 1390,-239 1384,-239 1378,-233 1378,-227 1378,-227 1378,-215 1378,-215 1378,-209 1384,-203 1390,-203 1390,-203 1534,-203 1534,-203 1540,-203 1546,-209 1546,-215 1546,-215 1546,-227 1546,-227 1546,-233 1540,-239 1534,-239"/>
<text text-anchor="middle" x="1462" y="-224" font-family="Helvetica,sans-Serif" font-size="10.00">ChangePassword.tsx</text>
<text text-anchor="middle" x="1462" y="-213" font-family="Helvetica,sans-Serif" font-size="10.00">cambio obligatorio o voluntario</text>
</g>
<!-- preload -->
<g id="node5" class="node">
<title>preload</title>
<path fill="#f5f3ff" stroke="#cbd5e1" stroke-width="1.1" d="M1076,-121C1076,-121 1033,-121 1033,-121 1027,-121 1021,-115 1021,-109 1021,-109 1021,-97 1021,-97 1021,-91 1027,-85 1033,-85 1033,-85 1076,-85 1076,-85 1082,-85 1088,-91 1088,-97 1088,-97 1088,-109 1088,-109 1088,-115 1082,-121 1076,-121"/>
<text text-anchor="middle" x="1054.5" y="-106" font-family="Helvetica,sans-Serif" font-size="10.00">preload.ts</text>
<text text-anchor="middle" x="1054.5" y="-95" font-family="Helvetica,sans-Serif" font-size="10.00">api.users.*</text>
</g>
<!-- change&#45;&gt;preload -->
<g id="edge3" class="edge">
<title>change&#45;&gt;preload</title>
<path fill="none" stroke="#4f46e5" stroke-width="1.1" d="M1377.91,-227C1255.85,-227 1044,-227 1044,-227 1044,-227 1044,-129.03 1044,-129.03"/>
<polygon fill="#4f46e5" stroke="#4f46e5" stroke-width="1.1" points="1046.8,-129.03 1044,-121.03 1041.2,-129.03 1046.8,-129.03"/>
<text text-anchor="middle" x="1265" y="-168.8" font-family="Helvetica,sans-Serif" font-size="9.00" fill="#4f46e5">2b. users:change&#45;password</text>
</g>
<!-- service&#45;&gt;preload -->
<g id="edge4" class="edge">
<title>service&#45;&gt;preload</title>
<path fill="none" stroke="#4f46e5" stroke-width="1.1" d="M520.26,-103C520.26,-103 1012.89,-103 1012.89,-103"/>
<polygon fill="#4f46e5" stroke="#4f46e5" stroke-width="1.1" points="1012.89,-105.8 1020.89,-103 1012.89,-100.2 1012.89,-105.8"/>
<text text-anchor="middle" x="887.5" y="-105.8" font-family="Helvetica,sans-Serif" font-size="9.00" fill="#4f46e5">3. api.users.*</text>
</g>
<!-- preload&#45;&gt;users -->
<g id="edge12" class="edge">
<title>preload&#45;&gt;users</title>
<path fill="none" stroke="#4f46e5" stroke-width="1.1" d="M1088.16,-111.5C1141.13,-111.5 1238,-111.5 1238,-111.5 1238,-111.5 1238,-281.67 1238,-281.67 1238,-281.67 1391.31,-281.67 1391.31,-281.67"/>
<polygon fill="#4f46e5" stroke="#4f46e5" stroke-width="1.1" points="1391.31,-284.47 1399.31,-281.67 1391.31,-278.87 1391.31,-284.47"/>
<text text-anchor="middle" x="1265" y="-278.8" font-family="Helvetica,sans-Serif" font-size="9.00" fill="#4f46e5">11. refresca tabla o cierra modal</text>
</g>
<!-- preload&#45;&gt;change -->
<g id="edge13" class="edge">
<title>preload&#45;&gt;change</title>
<path fill="none" stroke="#4f46e5" stroke-width="1.1" d="M1066,-121.49C1066,-153.31 1066,-215 1066,-215 1066,-215 1369.53,-215 1369.53,-215"/>
<polygon fill="#4f46e5" stroke="#4f46e5" stroke-width="1.1" points="1369.53,-217.8 1377.53,-215 1369.53,-212.2 1369.53,-217.8"/>
<text text-anchor="middle" x="1265" y="-223.8" font-family="Helvetica,sans-Serif" font-size="9.00" fill="#4f46e5">12. permite continuar sesión</text>
</g>
<!-- ipc -->
<g id="node6" class="node">
<title>ipc</title>
<path fill="#f5f3ff" stroke="#cbd5e1" stroke-width="1.1" d="M1540,-98.5C1540,-98.5 1384,-98.5 1384,-98.5 1378,-98.5 1372,-92.5 1372,-86.5 1372,-86.5 1372,-69.5 1372,-69.5 1372,-63.5 1378,-57.5 1384,-57.5 1384,-57.5 1540,-57.5 1540,-57.5 1546,-57.5 1552,-63.5 1552,-69.5 1552,-69.5 1552,-86.5 1552,-86.5 1552,-92.5 1546,-98.5 1540,-98.5"/>
<text text-anchor="middle" x="1462" y="-86.5" font-family="Helvetica,sans-Serif" font-size="10.00">users.ipc.ts</text>
<text text-anchor="middle" x="1462" y="-75.5" font-family="Helvetica,sans-Serif" font-size="10.00">users:list, create, reset&#45;password,</text>
<text text-anchor="middle" x="1462" y="-64.5" font-family="Helvetica,sans-Serif" font-size="10.00">change&#45;password</text>
</g>
<!-- preload&#45;&gt;ipc -->
<g id="edge5" class="edge">
<title>preload&#45;&gt;ipc</title>
<path fill="none" stroke="#4f46e5" stroke-width="1.1" d="M1088.19,-89.5C1088.19,-89.5 1363.97,-89.5 1363.97,-89.5"/>
<polygon fill="#4f46e5" stroke="#4f46e5" stroke-width="1.1" points="1363.97,-92.3 1371.97,-89.5 1363.97,-86.7 1363.97,-92.3"/>
<text text-anchor="middle" x="1265" y="-58.8" font-family="Helvetica,sans-Serif" font-size="9.00" fill="#4f46e5">4. users:*</text>
</g>
<!-- ipc&#45;&gt;preload -->
<g id="edge11" class="edge">
<title>ipc&#45;&gt;preload</title>
<path fill="none" stroke="#4f46e5" stroke-width="1.1" d="M1371.82,-94C1371.82,-94 1096.16,-94 1096.16,-94"/>
<polygon fill="#4f46e5" stroke="#4f46e5" stroke-width="1.1" points="1096.16,-91.2 1088.16,-94 1096.16,-96.8 1096.16,-91.2"/>
<text text-anchor="middle" x="1265" y="-113.8" font-family="Helvetica,sans-Serif" font-size="9.00" fill="#4f46e5">10. respuesta IPC</text>
</g>
<!-- audit -->
<g id="node7" class="node">
<title>audit</title>
<path fill="#ecfdf5" stroke="#cbd5e1" stroke-width="1.1" d="M2115,-138C2115,-138 1780,-138 1780,-138 1774,-138 1768,-132 1768,-126 1768,-126 1768,-114 1768,-114 1768,-108 1774,-102 1780,-102 1780,-102 2115,-102 2115,-102 2121,-102 2127,-108 2127,-114 2127,-114 2127,-126 2127,-126 2127,-132 2121,-138 2115,-138"/>
<text text-anchor="middle" x="1947.5" y="-123" font-family="Helvetica,sans-Serif" font-size="10.00">audit mysql/sqlite</text>
<text text-anchor="middle" x="1947.5" y="-112" font-family="Helvetica,sans-Serif" font-size="10.00">USER_CREATE / USER_RESET_PASSWORD / USER_CHANGE_PASSWORD</text>
</g>
<!-- ipc&#45;&gt;audit -->
<g id="edge9" class="edge">
<title>ipc&#45;&gt;audit</title>
<path fill="none" stroke="#059669" stroke-width="1.1" d="M1552.04,-90.75C1653.07,-90.75 1803,-90.75 1803,-90.75 1803,-90.75 1803,-93.98 1803,-93.98"/>
<polygon fill="#059669" stroke="#059669" stroke-width="1.1" points="1800.2,-93.98 1803,-101.98 1805.8,-93.98 1800.2,-93.98"/>
<text text-anchor="middle" x="1660" y="-112.8" font-family="Helvetica,sans-Serif" font-size="9.00" fill="#059669">8. registra evento de seguridad</text>
</g>
<!-- dao -->
<g id="node8" class="node">
<title>dao</title>
<path fill="#fef3c7" stroke="#cbd5e1" stroke-width="1.1" d="M2045,-55C2045,-55 1850,-55 1850,-55 1844,-55 1838,-49 1838,-43 1838,-43 1838,-31 1838,-31 1838,-25 1844,-19 1850,-19 1850,-19 2045,-19 2045,-19 2051,-19 2057,-25 2057,-31 2057,-31 2057,-43 2057,-43 2057,-49 2051,-55 2045,-55"/>
<text text-anchor="middle" x="1947.5" y="-40" font-family="Helvetica,sans-Serif" font-size="10.00">listUsers, createUser, resetUserPassword,</text>
<text text-anchor="middle" x="1947.5" y="-29" font-family="Helvetica,sans-Serif" font-size="10.00">changeUserPassword (SQLite o MySQL)</text>
</g>
<!-- ipc&#45;&gt;dao -->
<g id="edge6" class="edge">
<title>ipc&#45;&gt;dao</title>
<path fill="none" stroke="#059669" stroke-width="1.1" d="M1462,-57.02C1462,-46.93 1462,-37 1462,-37 1462,-37 1829.94,-37 1829.94,-37"/>
<polygon fill="#059669" stroke="#059669" stroke-width="1.1" points="1829.94,-39.8 1837.94,-37 1829.94,-34.2 1829.94,-39.8"/>
<text text-anchor="middle" x="1660" y="-48.8" font-family="Helvetica,sans-Serif" font-size="9.00" fill="#059669">5. backend activo + validaciones</text>
</g>
<!-- data -->
<g id="node9" class="node">
<title>data</title>
<path fill="#f3f4f6" stroke="#cbd5e1" stroke-width="1.1" d="M2583,-83C2583,-83 2353,-83 2353,-83 2347,-83 2341,-77 2341,-71 2341,-71 2341,-59 2341,-59 2341,-53 2347,-47 2353,-47 2353,-47 2583,-47 2583,-47 2589,-47 2595,-53 2595,-59 2595,-59 2595,-71 2595,-71 2595,-77 2589,-83 2583,-83"/>
<text text-anchor="middle" x="2468" y="-68" font-family="Helvetica,sans-Serif" font-size="10.00">Tabla users + audit_logs</text>
<text text-anchor="middle" x="2468" y="-57" font-family="Helvetica,sans-Serif" font-size="10.00">password_hash + role + must_change_password</text>
</g>
<!-- audit&#45;&gt;data -->
<g id="edge10" class="edge">
<title>audit&#45;&gt;data</title>
<path fill="none" stroke="#334155" stroke-width="1.1" d="M2092,-101.76C2092,-87.56 2092,-70.25 2092,-70.25 2092,-70.25 2332.97,-70.25 2332.97,-70.25"/>
<polygon fill="#334155" stroke="#334155" stroke-width="1.1" points="2332.97,-73.05 2340.97,-70.25 2332.97,-67.45 2332.97,-73.05"/>
<text text-anchor="middle" x="2234" y="-122.8" font-family="Helvetica,sans-Serif" font-size="9.00" fill="#334155">9. inserta audit_logs</text>
</g>
<!-- dao&#45;&gt;data -->
<g id="edge7" class="edge">
<title>dao&#45;&gt;data</title>
<path fill="none" stroke="#d97706" stroke-width="1.1" d="M2057.25,-49.67C2057.25,-49.67 2332.99,-49.67 2332.99,-49.67"/>
<polygon fill="#d97706" stroke="#d97706" stroke-width="1.1" points="2332.99,-52.47 2340.99,-49.67 2332.99,-46.87 2332.99,-52.47"/>
<text text-anchor="middle" x="2234" y="-12.8" font-family="Helvetica,sans-Serif" font-size="9.00" fill="#d97706">6. SELECT/INSERT/UPDATE users</text>
</g>
<!-- data&#45;&gt;dao -->
<g id="edge8" class="edge">
<title>data&#45;&gt;dao</title>
<path fill="none" stroke="#334155" stroke-width="1.1" d="M2340.67,-52.33C2340.67,-52.33 2065.22,-52.33 2065.22,-52.33"/>
<polygon fill="#334155" stroke="#334155" stroke-width="1.1" points="2065.22,-49.53 2057.22,-52.33 2065.22,-55.13 2065.22,-49.53"/>
<text text-anchor="middle" x="2234" y="-67.8" font-family="Helvetica,sans-Serif" font-size="9.00" fill="#334155">7. respuesta DB</text>
</g>
<!-- note1 -->
<g id="node10" class="node">
<title>note1</title>
<polygon fill="#f8fafc" stroke="#cbd5e1" stroke-width="1.1" points="818,-453 0,-453 0,-417 824,-417 824,-447 818,-453"/>
<polyline fill="none" stroke="#cbd5e1" stroke-width="1.1" points="818,-453 818,-447 "/>
<polyline fill="none" stroke="#cbd5e1" stroke-width="1.1" points="824,-447 818,-447 "/>
<text text-anchor="middle" x="412" y="-432.5" font-family="Helvetica,sans-Serif" font-size="10.00">App.tsx fuerza ChangePassword cuando el usuario llega con mustChangePassword. users.ipc.ts también permite auto&#45;cambio o cambio administrativo a otro usuario.</text>
</g>
<!-- view_main -->
<g id="node11" class="node">
<title>view_main</title>
<path fill="#cbd5e1" stroke="#cbd5e1" stroke-width="1.1" d="M1076.5,-453C1076.5,-453 1032.5,-453 1032.5,-453 1026.5,-453 1020.5,-447 1020.5,-441 1020.5,-441 1020.5,-429 1020.5,-429 1020.5,-423 1026.5,-417 1032.5,-417 1032.5,-417 1076.5,-417 1076.5,-417 1082.5,-417 1088.5,-423 1088.5,-429 1088.5,-429 1088.5,-441 1088.5,-441 1088.5,-447 1082.5,-453 1076.5,-453"/>
<text text-anchor="middle" x="1054.5" y="-432.5" font-family="Helvetica,sans-Serif" font-size="10.00">view_main</text>
</g>
<!-- note1&#45;&gt;view_main -->
<g id="edge14" class="edge">
<title>note1&#45;&gt;view_main</title>
<path fill="none" stroke="#94a3b8" stroke-width="1.1" stroke-dasharray="5,2" d="M824.36,-435C906.22,-435 979.49,-435 1020.36,-435"/>
</g>
</g>
</svg>
